<?xml version="1.0" encoding="UTF-8"?>
<svg width="18px" height="20px" viewBox="0 0 18 20" version="1.1" xmlns="http://www.w3.org/2000/svg" xmlns:xlink="http://www.w3.org/1999/xlink">
<g id="иконка">
    <polygon id="Shape" points="2.625 0 1.875 0 1.875 14.2857143 0 14.2857143 0 16.7857143 1.875 16.7857143 1.875 20 2.625 20 2.625 16.7857143 4.5 16.7857143 4.5 14.2857143 2.625 14.2857143"></polygon>
    <polygon id="Shape" points="9.375 0 8.625 0 8.625 3.21428571 6.75 3.21428571 6.75 5.71428571 8.625 5.71428571 8.625 20 9.375 20 9.375 5.71428571 11.25 5.71428571 11.25 3.21428571 9.375 3.21428571"></polygon>
    <polygon id="Shape" points="18 9.28571429 16.125 9.28571429 16.125 0 15.375 0 15.375 9.28571429 13.5 9.28571429 13.5 11.7857143 15.375 11.7857143 15.375 20 16.125 20 16.125 11.7857143 18 11.7857143"></polygon>
</g>
</svg>