<?xml version="1.0" encoding="UTF-8"?>
<svg width="22px" height="22px" viewBox="0 0 22 22" version="1.1" xmlns="http://www.w3.org/2000/svg" xmlns:xlink="http://www.w3.org/1999/xlink">
    <g id="Иконка">
        <path d="M20.5242225,5.50064442 C22.0430483,8.13131477 22.351929,11.1280363 21.6235703,13.8463383 C20.8951142,16.5649412 19.129496,19.0057261 16.4993556,20.5242225 C13.8686852,22.0430483 10.8719637,22.351929 8.15366165,21.6235703 C5.43505883,20.8951142 2.99427392,19.129496 1.4757775,16.4993556 C-0.0430483142,13.8686852 -0.351929027,10.8719637 0.376429681,8.15366165 C1.10488577,5.43505883 2.87050395,2.99427392 5.50064442,1.4757775 C8.13131477,-0.0430483142 11.1280363,-0.351929027 13.8463383,0.376429681 C16.5649412,1.10488577 19.0057261,2.87050395 20.5242225,5.50064442 Z M20.9603389,13.6691129 C21.6434625,11.1196011 21.3542864,8.30987211 19.9308144,5.84435441 C18.5070387,3.37830683 16.2183598,1.72274172 13.6690914,1.03966108 C11.1195796,0.356537466 8.30985063,0.645713571 5.84433293,2.06918564 C3.37828534,3.49296132 1.72272024,5.78164023 1.03963959,8.3309086 C0.356515984,10.8804204 0.645692089,13.6901494 2.06916416,16.1556671 C3.49293984,18.6217147 5.78161875,20.2772798 8.33088712,20.9603604 C10.8803989,21.643484 13.6901279,21.3543079 16.1556456,19.9308358 C18.6216932,18.5070602 20.2772583,16.2183813 20.9603389,13.6691129 Z" id="Shape"></path>
        <path d="M21,6.32293365 C20.702221,6.50034278 20.5280822,6.60795007 20.3672731,6.70731348 C18.9929082,7.55654804 18.3721411,7.94010633 16.6807526,7.3756044 C16.2399526,7.22849609 15.7113156,7.07952616 15.2444636,7.02338558 C14.8485943,6.97579066 14.5137167,6.9894322 14.3745336,7.12888223 L14.3739286,7.12831243 C14.3066278,7.19688934 13.2190649,8.28173572 12.2437278,7.73022108 C11.971793,7.5764595 11.7682664,7.51265822 11.6200084,7.51743427 C11.5020378,7.52122175 11.417259,7.59150817 11.3577032,7.70228416 C11.265007,7.87466468 11.2207508,8.1250072 11.2081133,8.4060535 C11.1700633,9.25225443 11.4137155,10.2903941 11.5262405,10.5563404 C11.8171051,11.2437525 12.0942243,12.0229682 12.1907761,12.6763903 C12.2719242,13.2256929 12.2258182,13.7052958 11.9668838,14.0208301 C11.7992979,14.3661956 10.7320986,16.3184992 8.67083004,14.7979188 C8.55005875,14.7361626 7.71020884,14.3430858 7.12755164,15.0343177 L7.10971081,15.0542773 C7.10772273,15.0563051 6.41843075,15.7602077 5.71785045,15.9548438 C5.58285143,15.99235 5.4515523,16.0056229 5.32485148,15.9978803 C5.00337101,15.9782054 4.73446165,15.8254657 4.52298284,15.5910278 C4.33520544,15.382834 4.1951412,15.1100344 4.10813254,14.8156986 C4.02188471,14.5240289 3.98556341,14.2045556 4.00520209,13.9030983 C4.02950845,13.5296115 4.15748809,13.2706377 4.29208987,12.9983418 C4.34649395,12.8882868 4.40222926,12.7754836 4.44904356,12.6510324 L5.015126,11.14564 C5.39688827,10.1304086 5.10640466,9.40289243 4.8522766,8.76639786 C4.53727878,7.97749393 4.26752341,7.30143022 4.97382583,6.4127528 C5.12657875,6.10460958 6.35571119,3.54444078 5.63711734,2.33785662 L6.24360183,2 C7.19545703,3.59823165 5.59140944,6.73247576 5.58682811,6.7415284 L5.54704929,6.80271477 C5.05838106,7.40197573 5.26446621,7.91814675 5.50543795,8.52165308 C5.80392542,9.26922984 6.14509682,10.12373 5.67378495,11.3770814 L5.1077025,12.8824738 C5.05200189,13.0305881 4.98684486,13.1623963 4.92329597,13.2909864 C4.81958757,13.5007893 4.72096225,13.7003533 4.70500517,13.9456686 C4.69043172,14.1695328 4.71804003,14.4089313 4.78324885,14.6294781 C4.8436517,14.8338352 4.93408288,15.0156515 5.04990999,15.1440742 C5.14205296,15.2462358 5.25003209,15.312232 5.36876315,15.3194883 C5.41569909,15.3223541 5.467994,15.3164214 5.52575197,15.3003833 C6.01851852,15.1634807 6.5478991,14.6404227 6.5981371,14.5899621 C7.60330843,13.4202653 9.02458736,14.2102249 9.02870031,14.212454 L9.07122778,14.2403909 C10.6177409,15.399714 11.3435083,13.7087524 11.3456306,13.7039423 L11.407382,13.6094897 C11.5406003,13.4664366 11.5534104,13.1576393 11.4964651,12.7721541 C11.4090589,12.1806361 11.1506611,11.4574604 10.8785712,10.8143991 C10.7483954,10.5067411 10.4657774,9.32227352 10.5083047,8.37679714 C10.5251427,8.00212123 10.5917001,7.65432515 10.7347204,7.38836328 C10.9108293,7.06079659 11.1867746,6.85229914 11.5980462,6.83904369 C11.8741115,6.83012801 12.203389,6.92086016 12.5950048,7.14229451 C13.1185087,7.43832167 13.8674081,6.66155226 13.8695685,6.65934018 L13.8723172,6.65535158 C14.1922593,6.33479005 14.7341047,6.276033 15.3295413,6.34764396 C15.8539775,6.41070726 16.4314196,6.57258089 16.9085189,6.73180528 C18.2833683,7.19066085 18.8147761,6.8623227 19.9912847,6.13534383 C20.2187206,5.99480464 20.4652942,5.84245104 20.6322404,5.74298688 L20.9999821,6.32294215 L21,6.32293365 Z" id="Shape"></path>
        <path d="M20.6640653,7.52677196 C20.660159,7.53052225 19.3141675,8.83144602 18.0602756,9.71449311 C17.8893119,9.83490037 17.6918229,9.93971816 17.4919881,10.0457468 C17.1470522,10.2288024 16.7935638,10.4164219 16.696663,10.623709 C16.6922369,10.6331798 16.6982066,10.6210647 16.6888662,10.642305 C16.6498819,10.7310852 16.6239397,10.8346244 16.649252,10.9288139 C16.6788642,11.0389553 16.7780181,11.1609528 16.999417,11.2855764 L17.0388737,11.3063846 C17.4884293,11.5439844 17.6287095,11.5140506 17.8797519,11.460424 C18.0352485,11.427207 18.2225928,11.3871806 18.5048388,11.3710388 C18.9666489,11.3445965 19.5209803,11.3907409 20.0166358,11.6436351 C20.4096601,11.8441634 20.7616988,12.1697324 21,12.6817605 L20.43239,13 C20.2674742,12.6456401 20.022733,12.4197742 19.7490874,12.2801493 C19.3641914,12.0837678 18.9158174,12.0489791 18.5373467,12.0706337 C18.3045599,12.0839585 18.1380225,12.1195259 17.9997734,12.1490618 C17.6168778,12.2308426 17.4029601,12.2765203 16.7613353,11.9374025 C16.7570037,11.9351212 16.7405752,11.9259269 16.709372,11.908368 C16.3066605,11.6816899 16.1114559,11.404635 16.0366542,11.1263525 C15.9575832,10.8321703 16.0171385,10.5578619 16.1137564,10.3377861 C16.1155363,10.333742 16.1167806,10.3316854 16.1290508,10.3054678 C16.3247128,9.88693709 16.7750232,9.64793699 17.2144502,9.41472698 C17.3958092,9.31849803 17.5750266,9.22337472 17.7152281,9.1246404 C18.9331114,8.2669617 20.2401752,7.00364349 20.243976,7 L20.6640604,7.52677035 L20.6640653,7.52677196 Z" id="Shape" stroke="#979797"></path>
        <path d="M20.8440884,16.4288455 C20.8410719,16.4281698 19.7929186,16.1996763 18.8996264,15.3839325 C18.5931638,15.1040465 18.4248147,14.8374342 18.2680939,14.5892053 C18.0991315,14.3216043 17.9469693,14.0806357 17.631036,13.9241373 C17.1727453,13.6971349 16.7416565,13.6530887 16.350905,13.75324 C15.9164841,13.8645669 15.5176651,14.1551081 15.1747407,14.5728479 C14.9882566,14.8000074 14.8146465,15.0808102 14.6971924,15.4204058 C14.5987504,15.7050904 14.5394187,16.0305115 14.5443115,16.3994932 L14.5443115,16.4159886 C14.5440835,16.4221051 14.4862951,18.5444593 12.2409787,19.3540108 L12.2145312,19.3622585 C12.2090768,19.3637486 10.3033606,19.8648148 10.8009344,21.8294665 L10.1104557,22 C9.47462589,19.4894559 11.7815031,18.7560873 12.0075049,18.6905697 C13.7451055,18.0588224 13.8308436,16.4779796 13.8342144,16.3949163 C13.829672,15.9425046 13.9028062,15.5436689 14.0234337,15.1948383 C14.1709651,14.7682786 14.3891231,14.4154637 14.6234685,14.1299986 C15.0596788,13.5986445 15.5838783,13.2247424 16.1727095,13.0738393 C16.7264615,12.9319126 17.3254777,12.9884337 17.9484424,13.2969951 C18.4466145,13.5437688 18.6482862,13.8631765 18.8722493,14.217881 C19.0065394,14.4305887 19.1507913,14.659048 19.3812954,14.8695551 C20.131562,15.5546877 20.9975054,15.7433801 21,15.7439347 L20.8440855,16.4288428 L20.8440884,16.4288455 Z" id="Shape"></path>
    </g>
</svg>