<?xml version="1.0" encoding="UTF-8"?>
<svg width="62px" height="61px" viewBox="0 0 62 61" version="1.1" xmlns="http://www.w3.org/2000/svg" xmlns:xlink="http://www.w3.org/1999/xlink">
    <g id="Dekstope-(1440-px)" stroke="none" stroke-width="1" fill="none" fill-rule="evenodd">
        <g id="4.-Услуги-––-«Оценка-нед-сти»" transform="translate(-187.000000, -679.000000)" fill-rule="nonzero">
            <g id="4.-Почему-МЫ" transform="translate(63.000000, 613.000000)">
                <g id="1-карточка" transform="translate(3.000000, 67.000000)">
                    <g id="Иконка" transform="translate(122.000000, 0.000000)">
                        <path d="M30.6666667,0 L30.6666667,2.66666667 C45.3333333,2.66666667 57.3333333,14.6666667 57.3333333,29.3333333 C57.3333333,44 45.3333333,56 30.6666667,56 C16,56 4,44 4,29.3333333 C4,23.0666667 6.26666667,17.2 10.2666667,12.4 L11.4666667,20.1333333 L14.1333333,19.7333333 L12.2666667,7.86666667 L0.4,9.73333333 L0.8,12.4 L7.73333333,11.3333333 C3.6,16.4 1.33333333,22.8 1.33333333,29.3333333 C1.33333333,45.4666667 14.5333333,58.6666667 30.6666667,58.6666667 C46.8,58.6666667 60,45.4666667 60,29.3333333 C60,13.2 46.8,0 30.6666667,0 Z" id="Shape" stroke-opacity="0.5" stroke="#FFFFFF" fill="#027993"></path>
                        <polygon id="Shape" fill="#BA7530" points="44 28 32 28 32 10.6666667 29.3333333 10.6666667 29.3333333 30.6666667 44 30.6666667"></polygon>
                    </g>
                </g>
            </g>
        </g>
    </g>
</svg>