<?xml version="1.0" encoding="UTF-8"?>
<svg width="60px" height="57px" viewBox="0 0 60 57" version="1.1" xmlns="http://www.w3.org/2000/svg" xmlns:xlink="http://www.w3.org/1999/xlink">
    <g id="Dekstope-(1440-px)" stroke="none" stroke-width="1" fill="none" fill-rule="evenodd">
        <g id="4.-Услуги-––-«Оценка-нед-сти»" transform="translate(-539.000000, -682.000000)">
            <g id="4.-Почему-МЫ" transform="translate(63.000000, 613.000000)">
                <g id="2-карточка" transform="translate(343.000000, 67.000000)">
                    <g id="иконка-2" transform="translate(133.000000, 2.000000)">
                        <path d="M26.4801332,26.337344 C25.2666443,25.1806696 25.8918486,23.0643487 27.5090135,21.5298425 C28.2646738,20.8135848 29.1532526,20.2989922 30.0196778,20.0741467 C30.866412,19.8562562 31.8805247,19.8771188 32.5968013,20.5562885 C33.8078293,21.7129629 33.185086,23.8269659 31.567921,25.3614721 C30.8122607,26.0777298 29.921221,26.5923224 29.0547957,26.8171679 C28.2080616,27.0350584 27.1964099,27.0141958 26.4801332,26.337344 Z M28.5674305,25.1389458 C29.0695633,25.0091387 29.6873846,24.6776665 30.2559767,24.1352576 C30.8270298,23.5951666 31.1790141,23.0087175 31.3143936,22.5288935 C31.4571576,22.0328456 31.3316237,21.8219088 31.284857,21.7778672 C31.2356278,21.7315062 31.0165605,21.6202438 30.5095041,21.7523688 C30.0073713,21.8821759 29.38955,22.2136481 28.8209579,22.756057 C28.2499048,23.2961466 27.8979205,23.8849151 27.76008,24.3624211 C27.617316,24.860787 27.7453109,25.0694058 27.7920776,25.1111295 C27.8413068,25.1574891 28.0579131,25.2710708 28.5674305,25.1389458 Z" id="path3251" fill="#BA7530"></path>
                        <path d="M11.0764637,43.4533505 L11.0764637,23.9776342 C11.0764637,21.3328133 12.5188654,19.8052608 14.0351103,19.1260911 L33.1973926,10.1925744 L33.6109141,9.97931977 C34.945012,9.38127965 37.2267634,8.93622572 38.3836387,9.78229051 C38.74547,10.0442226 38.9891519,10.4266902 39.0359201,10.8995604 L39.0383811,11.1800358 L39.0408421,31.5435398 C39.00146,32.883336 38.4796346,33.9727896 37.2193789,34.6519594 L36.6384803,34.9162094 L18.4903103,42.7788167 L18.4115445,42.8089505 C18.3253941,42.8390843 18.2540129,42.8993519 18.2097057,42.9781634 L18.1998602,43.0569749 L18.426312,43.054657 C18.6675329,43.0361131 19.0539788,42.9781634 19.6914912,42.8112684 L38.7996212,37.076572 C39.8629617,36.7149656 40.1731028,36.4808498 40.350327,36.1563313 C40.5841633,35.7367758 40.6826202,35.0019748 40.6826202,33.316799 L40.7023127,20.7417269 C40.7023127,20.2920371 41.0666051,19.9188426 41.5416623,19.8771188 C43.9883299,19.6685 48.1112356,20.4125726 48.0029317,23.9915431 L47.9635496,43.5089821 C48.0127787,46.2581132 46.311926,47.7601679 43.3237419,47.7601679 L15.7581162,47.7601679 C12.7551634,47.7601679 11.0764637,46.2418873 11.0764637,43.4533505 Z M46.1150107,43.5205721 L46.1593164,23.9660447 C46.1987,22.6077052 44.8965997,21.8566775 43.3262029,21.6457408 L42.543467,21.6271975 L42.528698,33.3191169 C42.528698,34.9092557 42.4646998,36.0914284 41.992105,36.9560365 C41.4628966,37.9180009 40.5201651,38.3375565 39.3977514,38.7246599 L20.2846979,44.4570383 L20.1813175,44.487172 C18.972752,44.8024182 18.0423286,44.9183174 17.3383585,44.6355231 C17.0651385,44.5242599 16.8485322,44.3643188 16.6836161,44.176562 C16.6073113,44.0907966 16.5457756,44.005031 16.4940854,43.9215836 C16.4497797,43.854362 16.4177806,43.7825045 16.395627,43.706011 C16.1544076,42.8692181 16.4743943,42.0556057 17.0922141,41.5572385 L17.7223419,41.207223 L35.9418947,33.3028915 C36.84278,32.9644656 37.1676887,32.449873 37.1947658,31.5226786 L37.1947658,11.1591746 L37.0667708,11.0873167 C36.4932552,10.9737349 34.9942412,11.1638105 34.1081234,11.7015822 L34.0170511,11.750261 L14.8399993,20.6907315 C13.9194227,21.1010153 12.922541,22.0397993 12.922541,23.9776342 L12.922541,43.4533505 C12.922541,45.2335635 13.7421993,46.0216786 15.7581162,46.0216786 L43.3237419,46.0216786 C45.3396579,46.0216786 46.1494709,45.2428354 46.1150107,43.5205721 Z" id="path3253" stroke-opacity="0.3" stroke="#BA7530" fill="#BA7530"></path>
                        <path d="M0,51.3831795 L0,5.92052671 C0,3.11808233 2.41713047,0.839502185 5.39546852,0.839502185 L53.6814667,0.839502185 C56.6573427,0.839502185 59.0769346,3.11808233 59.0769346,5.92052671 L59.0769346,51.3831795 C59.0769346,54.1879421 56.6573427,56.464204 53.6814667,56.464204 L5.39546852,56.464204 C2.41713047,56.464204 0,54.1879421 0,51.3831795 Z M57.2308568,51.3831795 L57.2308568,5.92052671 C57.2308568,4.08004537 55.6358469,2.57799134 53.6814667,2.57799134 L5.39546852,2.57799134 C3.43862669,2.57799134 1.84607722,4.08004537 1.84607722,5.92052671 L1.84607722,51.3831795 C1.84607722,53.2259781 3.43862669,54.7257148 5.39546852,54.7257148 L53.6814667,54.7257148 C55.6358469,54.7257148 57.2308568,53.2259781 57.2308568,51.3831795 Z" id="path3255" fill="#027993"></path>
                    </g>
                </g>
            </g>
        </g>
    </g>
</svg>