<?xml version="1.0" encoding="UTF-8"?>
<svg width="60px" height="60px" viewBox="0 0 60 60" version="1.1" xmlns="http://www.w3.org/2000/svg" xmlns:xlink="http://www.w3.org/1999/xlink">
    <g id="Dekstope-(1440-px)" stroke="none" stroke-width="1" fill="none" fill-rule="evenodd">
        <g id="3.-К.Н.-––-«Карточка-объекта»" transform="translate(-855.000000, -1897.000000)" fill-rule="nonzero">
            <g id="7.-Инфраструктура" transform="translate(59.000000, 1631.000000)">
                <g id="2-часть" transform="translate(4.000000, 262.000000)">
                    <g id="3-карточка" transform="translate(679.000000, 0.000000)">
                        <g id="cup-of-tea" transform="translate(113.000000, 4.000000)">
                            <path d="M58.9910486,22.9057732 C58.8998977,22.4780412 58.5248593,22.1726289 58.0908951,22.1726289 L10.8205627,22.1726289 C10.386445,22.1726289 10.0115601,22.4780412 9.92040921,22.9057732 C9.77063939,23.6084536 9.6398977,24.3180928 9.52465473,25.0322165 C8.15892583,25.2115979 6.87069054,25.6393299 5.68726343,26.3118557 C2.71304348,28.008866 0.75483376,31.0020619 0.173401535,34.74 C-0.366445013,38.2114948 0.363529412,41.953299 2.22905371,45.2761856 C4.94225064,50.1086598 9.71677749,53.272732 14.4774936,53.4298454 C15.8892583,55.8001546 17.5348849,57.9255155 19.3628133,59.7174742 C19.5346803,59.8858763 19.7651662,59.9802062 20.0048593,59.9802062 L48.9067519,59.9802062 C49.1465985,59.9802062 49.3769309,59.8858763 49.548798,59.7174742 C52.7146803,56.6137113 55.3384143,52.5146907 57.1361125,47.8636082 C58.9858312,43.0781443 59.9636317,37.6806186 59.9636317,32.2549485 C59.9634783,29.0798969 59.6363171,25.9343814 58.9910486,22.9057732 Z M11.1053708,45.9862887 C9.72506394,45.0963402 8.48670077,43.7749485 7.60803069,42.2096907 C6.42598465,40.1048969 5.95442455,37.7947423 6.2802046,35.7041753 C6.56255754,33.883299 7.43309463,32.473299 8.73375959,31.732732 C8.80634271,31.691134 8.88138107,31.6544845 8.95626598,31.6172165 C8.95335038,31.8296907 8.94797954,32.0420103 8.94797954,32.2547938 C8.94797954,36.982268 9.69084399,41.6879381 11.1053708,45.9862887 Z M3.83171355,44.3624227 C2.16997442,41.4023196 1.5168798,38.0870103 1.99273657,35.0274742 C2.48531969,31.8606186 4.11959079,29.3389175 6.59309463,27.9275258 C7.42158568,27.4566495 8.31529412,27.1317526 9.25933504,26.9531443 C9.1569821,27.8282474 9.07902813,28.7092268 9.02762148,29.5948454 C8.60823529,29.7259794 8.20557545,29.9008763 7.82547315,30.1186082 C6.02685422,31.1426289 4.83191816,33.0245876 4.46086957,35.4171649 C4.07094629,37.9190722 4.61953964,40.6560309 6.00537084,43.1236082 C7.43846547,45.676701 9.62040921,47.6223711 12.0402046,48.525 C12.4528389,49.5361856 12.904757,50.5192268 13.3930435,51.4702577 C9.65171355,50.9101546 6.01196931,48.2454124 3.83171355,44.3624227 Z M48.528798,58.1245361 L20.3826598,58.1245361 C14.3693095,52.0557216 10.7894118,42.4190722 10.7894118,32.2549485 C10.7894118,29.4663402 11.0524297,26.7026289 11.5715601,24.0284536 L23.5968798,24.0284536 L23.5968798,33.0742268 L20.1443478,33.0742268 C19.6359591,33.0742268 19.2236317,33.4897423 19.2236317,34.0020619 L19.2236317,45.1356186 C19.2236317,45.6479381 19.6359591,46.0634536 20.1443478,46.0634536 L28.8906905,46.0634536 C29.3990793,46.0634536 29.8114066,45.6479381 29.8114066,45.1356186 L29.8114066,34.0020619 C29.8114066,33.4897423 29.3990793,33.0742268 28.8906905,33.0742268 L25.4381586,33.0742268 L25.4381586,24.0284536 L57.3397442,24.0284536 C57.8588747,26.7026289 58.1218926,29.4663402 58.1218926,32.2549485 C58.122046,42.4190722 54.5421483,52.0557216 48.528798,58.1245361 Z M27.9701279,34.9298969 L27.9701279,44.2077835 L21.0652174,44.2077835 L21.0652174,34.9298969 L27.9701279,34.9298969 Z" id="Shape" fill="#027993"></path>
                            <path d="M25.8701279,18.6935567 C25.8701279,19.2058763 26.2824552,19.6213918 26.790844,19.6213918 C27.2992327,19.6213918 27.7115601,19.2058763 27.7115601,18.6935567 C27.7115601,17.435567 27.9937596,16.8429897 28.3206138,16.1568557 C28.691202,15.3790206 29.1110486,14.4974227 29.1110486,12.817268 C29.1110486,11.1371134 28.691202,10.2555155 28.3206138,9.47768041 C27.993913,8.79154639 27.7115601,8.19896907 27.7115601,6.94097938 C27.7115601,5.68329897 27.9937596,5.09087629 28.3206138,4.40489691 C28.691202,3.62721649 29.1110486,2.74561856 29.1110486,1.06561856 C29.1110486,0.553298969 28.6987212,0.137783505 28.1903325,0.137783505 C27.6819437,0.137783505 27.2696164,0.553298969 27.2696164,1.06561856 C27.2696164,2.32329897 26.9874169,2.91587629 26.6605627,3.60185567 C26.2899744,4.37953608 25.8701279,5.26113402 25.8701279,6.94113402 C25.8701279,8.62128866 26.2899744,9.5028866 26.6604092,10.2807216 C26.9872634,10.9668557 27.2694629,11.559433 27.2694629,12.8174227 C27.2694629,14.0754124 26.9872634,14.6679897 26.6604092,15.3541237 C26.2899744,16.1318041 25.8701279,17.0134021 25.8701279,18.6935567 Z" id="Shape" fill="#BA7530"></path>
                            <path d="M32.8353453,18.6935567 C32.8353453,19.2058763 33.2476726,19.6213918 33.7560614,19.6213918 C34.2644501,19.6213918 34.6767775,19.2058763 34.6767775,18.6935567 C34.6767775,17.435567 34.958977,16.8429897 35.2858312,16.1568557 C35.6564194,15.3790206 36.076266,14.4974227 36.076266,12.817268 C36.076266,11.1371134 35.6564194,10.2555155 35.2858312,9.47768041 C34.9591304,8.79154639 34.6767775,8.19896907 34.6767775,6.94097938 C34.6767775,5.68329897 34.958977,5.09087629 35.2858312,4.40489691 C35.6564194,3.62721649 36.076266,2.74561856 36.076266,1.06561856 C36.076266,0.553298969 35.6639386,0.137783505 35.1555499,0.137783505 C34.6471611,0.137783505 34.2348338,0.553298969 34.2348338,1.06561856 C34.2348338,2.32329897 33.9526343,2.91587629 33.6257801,3.60185567 C33.2551918,4.37953608 32.8353453,5.26113402 32.8353453,6.94113402 C32.8353453,8.62128866 33.2551918,9.5028866 33.6256266,10.2807216 C33.9524808,10.9668557 34.2346803,11.559433 34.2346803,12.8174227 C34.2346803,14.0754124 33.9524808,14.6679897 33.6256266,15.3541237 C33.2551918,16.1318041 32.8353453,17.0134021 32.8353453,18.6935567 Z" id="Shape" fill="#BA7530"></path>
                            <path d="M39.8005627,18.6935567 C39.8005627,19.2058763 40.21289,19.6213918 40.7212788,19.6213918 C41.2296675,19.6213918 41.6419949,19.2058763 41.6419949,18.6935567 C41.6419949,17.435567 41.9241944,16.8429897 42.2510486,16.1568557 C42.6214834,15.3790206 43.0413299,14.4974227 43.0413299,12.817268 C43.0413299,11.1371134 42.6214834,10.2555155 42.2510486,9.47768041 C41.9241944,8.79154639 41.6419949,8.19896907 41.6419949,6.94097938 C41.6419949,5.68329897 41.9241944,5.09087629 42.2510486,4.40489691 C42.6216368,3.62721649 43.0414834,2.74561856 43.0414834,1.06561856 C43.0414834,0.553298969 42.629156,0.137783505 42.1207673,0.137783505 C41.6123785,0.137783505 41.2000512,0.553298969 41.2000512,1.06561856 C41.2000512,2.32329897 40.9178517,2.91587629 40.5909974,3.60185567 C40.2204092,4.37953608 39.8005627,5.26113402 39.8005627,6.94113402 C39.8005627,8.62128866 40.2204092,9.5028866 40.5909974,10.2807216 C40.9176982,10.9668557 41.2000512,11.559433 41.2000512,12.8174227 C41.2000512,14.0754124 40.9178517,14.6679897 40.5909974,15.3541237 C40.2204092,16.1318041 39.8005627,17.0134021 39.8005627,18.6935567 Z" id="Shape" fill="#BA7530"></path>
                        </g>
                    </g>
                </g>
            </g>
        </g>
    </g>
</svg>