<?xml version="1.0" encoding="UTF-8"?>
<svg width="61px" height="60px" viewBox="0 0 61 60" version="1.1" xmlns="http://www.w3.org/2000/svg" xmlns:xlink="http://www.w3.org/1999/xlink">
    <g id="Dekstope-(1440-px)" stroke="none" stroke-width="1" fill="none" fill-rule="evenodd">
        <g id="3.-К.Н.-––-«Карточка-объекта»" transform="translate(-858.000000, -1701.000000)" fill-rule="nonzero">
            <g id="7.-Инфраструктура" transform="translate(59.000000, 1631.000000)">
                <g id="1-часть" transform="translate(3.000000, 40.000000)">
                    <g id="3-карточка" transform="translate(679.000000, 27.000000)">
                        <g id="Актив">
                            <g id="hospital-—-копия" transform="translate(117.000000, 3.000000)">
                                <path d="M59.6059459,36.7445738 L48.0150936,30.0525156 L59.6059459,23.3604574 C60.0832017,23.0849064 60.246736,22.474553 59.971185,21.9972973 L51.987817,8.17010395 C51.7122661,7.69284823 51.1019127,7.52931393 50.624657,7.80486486 L39.0338046,14.4969231 L39.0338046,1.11280665 C39.0338046,0.561704782 38.5869854,0.114885655 38.0358836,0.114885655 L22.0691476,0.114885655 C21.5180457,0.114885655 21.0712266,0.561704782 21.0712266,1.11280665 L21.0712266,14.4969231 L9.48037422,7.80486486 C9.0031185,7.52931393 8.39276507,7.69284823 8.11721414,8.17010395 L0.133846154,21.9972973 C-0.141704782,22.474553 0.0218295218,23.0849064 0.499085239,23.3604574 L12.0899376,30.0525156 L0.499085239,36.7445738 C0.0218295218,37.0201247 -0.141704782,37.6304782 0.133846154,38.1077339 L8.11721414,51.9349272 C8.39276507,52.412183 9.0031185,52.5757173 9.48037422,52.3001663 L21.0712266,45.6081081 L21.0712266,58.9922245 C21.0712266,59.5433264 21.5180457,59.9901455 22.0691476,59.9901455 L38.0358836,59.9901455 C38.5869854,59.9901455 39.0338046,59.5433264 39.0338046,58.9922245 L39.0338046,45.6081081 L50.624657,52.3001663 C51.1019127,52.5757173 51.7122661,52.412183 51.987817,51.9349272 L59.971185,38.1077339 C60.246736,37.6304782 60.0832017,37.0201247 59.6059459,36.7445738 Z M50.7583784,50.0728067 L38.5348441,43.0155094 C38.0575884,42.7399584 37.4472349,42.9034927 37.171684,43.3807484 C37.0841164,43.5324324 37.0379626,43.7045738 37.0379626,43.8797089 L37.0379626,57.9943035 L23.0670686,57.9943035 L23.0670686,43.8797089 C23.0670686,43.3286071 22.6202495,42.8817879 22.0691476,42.8817879 C21.8940125,42.8817879 21.7218711,42.9279418 21.5701871,43.0155094 L9.34665281,50.0728067 L2.36120582,37.9740125 L14.5847401,30.9167152 C15.0619958,30.6411642 15.2255301,30.0308108 14.9499792,29.5535551 C14.8624116,29.4018711 14.7364241,29.2758836 14.5847401,29.188316 L2.36120582,22.1310187 L9.34665281,10.0322245 L21.5701871,17.0895218 C22.0474428,17.3650728 22.6577963,17.2015385 22.9333472,16.7242827 C23.0209148,16.5725988 23.0670686,16.4004574 23.0670686,16.2253222 L23.0670686,2.11072765 L37.0379626,2.11072765 L37.0379626,16.2253222 C37.0379626,16.7764241 37.4847817,17.2232432 38.0358836,17.2232432 C38.2110187,17.2232432 38.3831601,17.1770894 38.5348441,17.0895218 L50.7583784,10.0322245 L57.7438254,22.1310187 L45.5202911,29.188316 C45.0430353,29.4638669 44.879501,30.0742204 45.155052,30.5514761 C45.2426195,30.7031601 45.3686071,30.8291476 45.5202911,30.9167152 L57.7438254,37.9740125 L50.7583784,50.0728067 Z" id="Shape" fill="#027993"></path>
                                <path d="M34.0441996,22.0691476 L31.0504366,22.0691476 L31.0504366,20.8876091 C32.6093139,20.3365073 33.426237,18.6259459 32.8750104,17.0671933 C32.3237838,15.5084407 30.6133472,14.6913929 29.0545946,15.2426195 C27.495842,15.7938462 26.6787942,17.5042827 27.2300208,19.0630353 C27.5313929,19.9156341 28.2021206,20.586237 29.0545946,20.8876091 L29.0545946,22.0691476 L26.0608316,22.0691476 C25.5097297,22.0691476 25.0629106,22.5159667 25.0629106,23.0670686 C25.0629106,23.6181705 25.5097297,24.0649896 26.0608316,24.0649896 L29.0545946,24.0649896 L29.0545946,27.9289397 L26.270395,28.6883576 C24.969605,29.046237 24.0673597,30.2281497 24.0649896,31.5773389 L24.0649896,32.257921 C24.0653638,33.7832432 25.212474,35.0644491 26.7284407,35.2327235 L29.0545946,35.491185 L29.0545946,39.4219958 L28.2323077,39.6565073 C26.9348857,40.0372141 26.0481081,41.2333472 26.0608316,42.5854054 C26.0511019,43.847526 26.8435759,44.9765489 28.0337214,45.3965489 L29.0545946,45.8306445 L29.0545946,48.0150936 C29.0545946,48.5661954 29.5014137,49.0130146 30.0525156,49.0130146 C30.6036175,49.0130146 31.0504366,48.5661954 31.0504366,48.0150936 L31.0504366,46.6798753 L31.6581705,46.9373389 C31.7814137,46.9903534 31.9141372,47.0175468 32.0483576,47.0171726 C32.5994595,47.0166736 33.0459044,46.5694802 33.0454054,46.0183784 C33.0450312,45.618711 32.8062786,45.2578378 32.4385447,45.1011642 L31.0504366,44.5123909 L31.0504366,40.9298545 L32.8706445,40.4099376 C34.1543451,40.0383368 35.0390021,38.8642827 35.0421206,37.5279418 L35.0421206,36.8293971 C35.0417464,35.3040748 33.8946362,34.022869 32.3786694,33.8545946 L31.0504366,33.7059044 L31.0504366,29.453763 L34.8325572,28.4229106 C36.1334719,28.0650312 37.0355925,26.8831185 37.0379626,25.5339293 L37.0379626,25.0629106 C37.0379626,23.4094802 35.6976299,22.0691476 34.0441996,22.0691476 Z M29.0545946,43.6651559 L28.7392516,43.5314345 C28.316632,43.385738 28.0393347,42.9802079 28.0566736,42.5335135 C28.0565489,42.0875676 28.3523077,41.6957588 28.7811642,41.5735135 L29.0545946,41.4976715 L29.0545946,43.6651559 Z M29.0545946,33.4843659 L26.9489813,33.2458628 C26.4449064,33.190104 26.0628274,32.7651143 26.0608316,32.257921 L26.0608316,31.5773389 C26.0607069,31.1271518 26.3619543,30.7327235 26.7962994,30.6143451 L29.0545946,29.9986279 L29.0545946,33.4843659 Z M32.1581289,35.8404574 C32.6637006,35.8964657 33.0462786,36.3237006 33.0462786,36.8323909 L33.0462786,37.5309356 C33.0464033,37.9768815 32.7506445,38.3686902 32.3217879,38.4909356 L31.0504366,38.851185 L31.0504366,35.7137214 L32.1581289,35.8404574 Z M30.0525156,19.0753846 C29.5014137,19.0753846 29.0545946,18.6285655 29.0545946,18.0774636 C29.0545946,17.5263617 29.5014137,17.0795426 30.0525156,17.0795426 C30.6036175,17.0795426 31.0504366,17.5263617 31.0504366,18.0774636 C31.0504366,18.6285655 30.6036175,19.0753846 30.0525156,19.0753846 Z M35.0421206,25.5339293 C35.0422453,25.9841164 34.7409979,26.3785447 34.3066528,26.4969231 L31.0504366,27.3850728 L31.0504366,24.0649896 L34.0441996,24.0649896 C34.5953015,24.0649896 35.0421206,24.5118087 35.0421206,25.0629106 L35.0421206,25.5339293 Z" id="Shape" fill="#BA7530"></path>
                            </g>
                        </g>
                    </g>
                </g>
            </g>
        </g>
    </g>
</svg>