<?xml version="1.0" encoding="UTF-8"?>
<svg width="52px" height="60px" viewBox="0 0 52 60" version="1.1" xmlns="http://www.w3.org/2000/svg" xmlns:xlink="http://www.w3.org/1999/xlink">
    <g id="Dekstope-(1440-px)" stroke="none" stroke-width="1" fill="none" fill-rule="evenodd">
        <g id="3.-К.Н.-––-«Карточка-объекта»" transform="translate(-189.000000, -1899.000000)" fill-rule="nonzero">
            <g id="7.-Инфраструктура" transform="translate(59.000000, 1631.000000)">
                <g id="2-часть" transform="translate(4.000000, 262.000000)">
                    <g id="1-карточка">
                        <g id="Актив">
                            <g id="Иконка" transform="translate(126.000000, 6.000000)">
                                <path d="M34.5899767,7.39158416 C33.9780698,3.17792079 30.2449535,0 25.9068837,0 C23.1170233,0 20.4674419,1.32267327 18.8200698,3.53940594 C18.4835814,3.99148515 18.5842558,4.62564356 19.0443953,4.95623762 C19.5030233,5.28564356 20.15,5.18792079 20.4858837,4.73524752 C21.7468837,3.04009901 23.7730698,2.02782178 25.9065814,2.02782178 C29.2243023,2.02782178 32.0785581,4.45693069 32.5465581,7.67762376 C32.6203256,8.18346535 33.0620233,8.54851485 33.5672093,8.54851485 C33.6152791,8.54851485 33.6648605,8.5449505 33.7141395,8.53841584 C34.2782791,8.45910891 34.6703953,7.94554455 34.5899767,7.39158416 Z" id="Shape" fill="#BA7530"></path>
                                <path d="M49.4943256,18.7413861 L46.3985116,13.6719802 C46.2122791,13.3663366 45.8763953,13.179802 45.5136047,13.179802 L42.5468837,13.179802 C41.9773023,13.179802 41.5150465,13.6339604 41.5150465,14.1935644 C41.5150465,14.7531683 41.9773023,15.2073267 42.5468837,15.2073267 L44.9295116,15.2073267 L46.787,18.2489109 L5.02646512,18.2489109 L6.88395349,15.2073267 L7.97686047,15.2073267 C8.54644186,15.2073267 9.00869767,14.7531683 9.00869767,14.1935644 C9.00869767,13.6339604 8.54644186,13.179802 7.97686047,13.179802 L6.29986047,13.179802 C5.93706977,13.179802 5.60118605,13.3663366 5.41495349,13.6719802 L2.31913953,18.7413861 C2.12776744,19.0550495 2.12323256,19.4450495 2.30613953,19.7628713 C2.48904651,20.0806931 2.83188372,20.2773267 3.20404651,20.2773267 L48.6094186,20.2773267 C48.9815814,20.2773267 49.3241163,20.0806931 49.5073256,19.7628713 C49.6905349,19.4450495 49.6856977,19.0544554 49.4943256,18.7413861 Z" id="Shape" fill="#BA7530"></path>
                                <path d="M44.3505581,9.3929703 C44.2060465,9.1639604 43.9753721,9.00148515 43.7087209,8.94029703 L29.6412093,5.70772277 C29.3748605,5.64623762 29.0943023,5.6919802 28.8615116,5.83336634 C28.6293256,5.97534653 28.4636512,6.2019802 28.4013721,6.4639604 L27.3405116,10.9194059 C27.2105116,11.4644554 27.5551628,12.009802 28.1102326,12.1369307 C28.665,12.2646535 29.2206744,11.9260396 29.3500698,11.3806931 L30.1760233,7.91287129 L42.2336744,10.6838614 L40.339,18.6427723 C40.209,19.1878218 40.5536512,19.7331683 41.1087209,19.860297 C41.1882326,19.8784158 41.2671395,19.8870297 41.3451395,19.8870297 C41.8137442,19.8870297 42.237907,19.5715842 42.3482558,19.1043564 L44.4781395,10.1584158 C44.5410233,9.89673267 44.4950698,9.62108911 44.3505581,9.3929703 Z" id="Shape" fill="#BA7530"></path>
                                <path d="M26.4525814,11.789703 L25.5123488,3.97633663 C25.4803023,3.70930693 25.3415349,3.46544554 25.1262791,3.29910891 C24.9110233,3.13277228 24.6392326,3.05673267 24.3662326,3.08821782 L7.10646512,5.09257426 C6.54081395,5.15851485 6.13630233,5.66227723 6.20311628,6.21861386 L7.77067442,19.250198 C7.83295349,19.7661386 8.27827907,20.1454455 8.79434884,20.1454455 C8.83455814,20.1454455 8.87597674,20.1427723 8.91709302,20.1383168 C9.48244186,20.0723762 9.88695349,19.5686139 9.82044186,19.0122772 L8.37381395,6.98673267 L23.5841163,5.22059406 L24.402814,12.0270297 C24.4699302,12.5830693 24.9802558,12.9781188 25.5489302,12.9151485 C26.1145814,12.849802 26.519093,12.3457426 26.4525814,11.789703 Z" id="Shape" fill="#BA7530"></path>
                                <path d="M34.6138605,18.8780198 L32.5656047,10.509505 C32.5015116,10.2484158 32.3343256,10.0223762 32.1012326,9.88188119 C31.8681395,9.74257426 31.5884884,9.69891089 31.3209302,9.76128713 L14.6969535,13.6892079 C14.1427907,13.819901 13.8017674,14.3676238 13.9347907,14.9120792 L14.9584651,19.0948515 C15.0914884,19.639901 15.6489767,19.9752475 16.2028372,19.8436634 C16.757,19.7129703 17.0980233,19.1652475 16.965,18.6207921 L16.1822791,15.4235644 L30.7997209,11.970297 L32.6067209,19.3526733 C32.720093,19.8175248 33.1433488,20.1294059 33.6092326,20.1294059 C33.6893488,20.1294059 33.7703721,20.120198 33.8516977,20.1008911 C34.4058605,19.969901 34.7468837,19.4224752 34.6138605,18.8780198 Z" id="Shape" fill="#BA7530"></path>
                                <path d="M49.6409535,19.2115842 C49.6125349,18.6727723 49.1596512,18.249802 48.6100233,18.249802 L3.20465116,18.249802 C2.65502326,18.249802 2.20213953,18.6724752 2.17372093,19.2115842 L0.109744186,58.7521782 C0.0952325581,59.029604 0.197418605,59.3010891 0.392116279,59.5024752 C0.587116279,59.7035644 0.857395349,59.8179208 1.14037209,59.8179208 L50.6733953,59.8179208 C50.9560698,59.8179208 51.2266512,59.7038614 51.4225581,59.5024752 C51.6169535,59.3010891 51.7191395,59.029901 51.7049302,58.7521782 L49.6409535,19.2115842 Z M2.22632558,57.790099 L4.18448837,20.2773267 L47.6289767,20.2773267 L49.5871395,57.790099 L2.22632558,57.790099 Z" id="Shape" fill="#027993"></path>
                                <path d="M33.6464186,22.3048515 C31.939186,22.3048515 30.5506047,23.6691089 30.5506047,25.3464356 C30.5506047,27.0237624 31.939186,28.3880198 33.6464186,28.3880198 C35.3536512,28.3880198 36.7422326,27.0237624 36.7422326,25.3464356 C36.7422326,23.6691089 35.3536512,22.3048515 33.6464186,22.3048515 Z M33.6464186,26.360495 C33.0771395,26.360495 32.6145814,25.9057426 32.6145814,25.3467327 C32.6145814,24.7877228 33.0774419,24.3329703 33.6464186,24.3329703 C34.2153953,24.3329703 34.6782558,24.7877228 34.6782558,25.3467327 C34.6782558,25.9057426 34.2153953,26.360495 33.6464186,26.360495 Z" id="Shape" fill="#BA7530"></path>
                                <path d="M18.1673488,22.3048515 C16.4601163,22.3048515 15.0715349,23.6691089 15.0715349,25.3464356 C15.0715349,27.0237624 16.4601163,28.3880198 18.1673488,28.3880198 C19.8745814,28.3880198 21.2631628,27.0237624 21.2631628,25.3464356 C21.2631628,23.6691089 19.8745814,22.3048515 18.1673488,22.3048515 Z M18.1673488,26.360495 C17.5983721,26.360495 17.1355116,25.9057426 17.1355116,25.3467327 C17.1355116,24.7877228 17.5983721,24.3329703 18.1673488,24.3329703 C18.7363256,24.3329703 19.199186,24.7877228 19.199186,25.3467327 C19.199186,25.9057426 18.7363256,26.360495 18.1673488,26.360495 Z" id="Shape" fill="#BA7530"></path>
                                <path d="M33.6464186,25.3464356 L33.566907,25.3464356 C32.9973256,25.3464356 32.5350698,25.8005941 32.5350698,26.360198 C32.5350698,26.4986139 32.5628837,26.6307921 32.6145814,26.7510891 L32.6145814,31.9363366 C32.6145814,35.569901 29.6055349,38.5265347 25.9068837,38.5265347 C22.2082326,38.5265347 19.199186,35.570198 19.199186,31.9363366 L19.199186,26.360495 C19.199186,25.8008911 18.7369302,25.3467327 18.1673488,25.3467327 C17.5977674,25.3467327 17.1355116,25.8008911 17.1355116,26.360495 L17.1355116,31.9366337 C17.1355116,36.6885149 21.0702791,40.5543564 25.9068837,40.5543564 C30.7434884,40.5543564 34.6782558,36.6885149 34.6782558,31.9366337 L34.6782558,26.360495 C34.6782558,25.8008911 34.216,25.3464356 33.6464186,25.3464356 Z" id="Shape" fill="#BA7530"></path>
                            </g>
                        </g>
                    </g>
                </g>
            </g>
        </g>
    </g>
</svg>