<?xml version="1.0" encoding="UTF-8"?>
<svg width="76px" height="62px" viewBox="0 0 76 62" version="1.1" xmlns="http://www.w3.org/2000/svg" xmlns:xlink="http://www.w3.org/1999/xlink">
    <g id="Dekstope-(1440-px)" stroke="none" stroke-width="1" fill="none" fill-rule="evenodd">
        <g id="3.-К.Н.-––-«Карточка-объекта»" transform="translate(-1204.000000, -1700.000000)" fill-rule="nonzero">
            <g id="7.-Инфраструктура" transform="translate(59.000000, 1631.000000)">
                <g id="1-часть" transform="translate(3.000000, 40.000000)">
                    <g id="4-карточка" transform="translate(1019.000000, 27.000000)">
                        <g id="иконка" transform="translate(124.000000, 3.000000)">
                            <path d="M33.6880174,34.6549451 L41.4876174,34.6549451 L41.4876174,29.3268132 L46.6875652,29.3268132 L46.6875652,21.3346154 L41.4876174,21.3346154 L41.4876174,16.0068132 L33.6880174,16.0068132 L33.6880174,21.3349451 L28.4880696,21.3349451 L28.4880696,29.3268132 L33.6880174,29.3268132 L33.6880174,34.6549451 Z M31.0880435,26.6627473 L31.0880435,23.9986813 L36.2879913,23.9986813 L36.2879913,18.6708791 L38.8879652,18.6708791 L38.8879652,23.999011 L44.0875913,23.999011 L44.0875913,26.6627473 L38.8876435,26.6627473 L38.8876435,31.9908791 L36.2876696,31.9908791 L36.2876696,26.6627473 L31.0880435,26.6627473 Z" id="Shape" stroke="#FFFFFF" fill="#BA7530"></path>
                            <rect id="Rectangle-path" fill="#027993" x="7.6886" y="37.3186813" width="9.09974783" height="2.66406593"></rect>
                            <rect id="Rectangle-path" fill="#027993" x="7.6886" y="42.6468132" width="9.09974783" height="2.66406593"></rect>
                            <rect id="Rectangle-path" fill="#027993" x="7.6886" y="47.9746154" width="9.09974783" height="2.66406593"></rect>
                            <rect id="Rectangle-path" fill="#027993" x="57.0871391" y="37.3186813" width="9.09974783" height="2.66406593"></rect>
                            <rect id="Rectangle-path" fill="#027993" x="57.0871391" y="42.6468132" width="9.09974783" height="2.66406593"></rect>
                            <rect id="Rectangle-path" fill="#027993" x="57.0871391" y="47.9746154" width="9.09974783" height="2.66406593"></rect>
                            <path d="M71.386513,57.299011 L71.386513,31.9908791 L54.4871652,31.9908791 L54.4871652,2.68681319 L60.9869391,2.68681319 L60.9869391,0.0227472527 L54.4871652,0.0227472527 L19.3883217,0.0227472527 L12.8885478,0.0227472527 L12.8885478,2.68681319 L19.3883217,2.68681319 L19.3883217,31.9908791 L2.48897391,31.9908791 L2.48897391,57.299011 L0,57.299011 L0,59.9630769 L2.48897391,59.9630769 L19.3883217,59.9630769 L21.9882957,59.9630769 L29.7878957,59.9630769 L44.0872696,59.9630769 L51.8868696,59.9630769 L54.4868435,59.9630769 L71.3861913,59.9630769 L73.9861652,59.9630769 L73.9861652,57.299011 L71.386513,57.299011 Z M19.3883217,57.2986813 L5.08894783,57.2986813 L5.08894783,34.6546154 L19.3883217,34.6546154 L19.3883217,57.2986813 Z M41.4876174,57.2986813 L32.3878696,57.2986813 L32.3878696,46.6427473 L41.4876174,46.6427473 L41.4876174,57.2986813 Z M51.8871913,31.9908791 L51.8871913,57.299011 L44.0875913,57.299011 L44.0875913,57.2986813 L44.0875913,43.9786813 L29.7878957,43.9786813 L29.7878957,57.2986813 L21.9882957,57.299011 L21.9882957,31.9908791 L21.9882957,2.68681319 L51.8871913,2.68681319 L51.8871913,31.9908791 Z M68.7865391,57.2986813 L54.4871652,57.2986813 L54.4871652,34.6546154 L68.7865391,34.6546154 L68.7865391,57.2986813 Z" id="Shape" stroke="#FFFFFF" fill="#027993"></path>
                        </g>
                    </g>
                </g>
            </g>
        </g>
    </g>
</svg>