<?xml version="1.0" encoding="UTF-8"?>
<svg width="62px" height="62px" viewBox="0 0 62 62" version="1.1" xmlns="http://www.w3.org/2000/svg" xmlns:xlink="http://www.w3.org/1999/xlink">
    <g id="Dekstope-(1440-px)" stroke="none" stroke-width="1" fill="none" fill-rule="evenodd">
        <g id="3.-К.Н.-––-«Карточка-объекта»" transform="translate(-537.000000, -1898.000000)" fill-rule="nonzero">
            <g id="7.-Инфраструктура" transform="translate(59.000000, 1631.000000)">
                <g id="2-часть" transform="translate(4.000000, 262.000000)">
                    <g id="2-карточка" transform="translate(340.000000, 0.000000)">
                        <g id="credit-card" transform="translate(135.000000, 6.000000)">
                            <path d="M20.6395112,31.9102041 L6.75763747,31.9102041 L6.75763747,42.3795918 L20.6395112,42.3795918 L20.6395112,31.9102041 Z M18.0855397,39.8326531 L9.299389,39.8326531 L9.299389,34.4693878 L18.0855397,34.4693878 L18.0855397,39.8326531 Z" id="Shape" fill="#BA7530"></path>
                            <rect id="Rectangle-path" fill="#BA7530" x="20.5173116" y="48.7714286" width="24.9653768" height="2.55918367"></rect>
                            <path d="M54.01222,0 L13.4541752,0 C10.2647658,0 7.5885947,2.68163265 7.5885947,5.87755102 L7.5885947,23.3632653 L5.86558045,23.3632653 C2.67617108,23.3632653 0,26.044898 0,29.2408163 L0,54.122449 C0,57.3183673 2.67617108,60 5.86558045,60 L47.6578411,60 C50.8472505,60 53.5234216,57.3183673 53.5234216,54 L53.5234216,36.6367347 L54.0366599,36.6367347 C57.2260692,36.6367347 59.9022403,33.955102 59.9022403,30.6367347 L59.9022403,5.87755102 C59.8778004,2.68163265 57.2016293,0 54.01222,0 Z M13.4541752,2.55918367 L54.01222,2.55918367 C55.796334,2.55918367 57.3238289,4.08979592 57.3238289,5.87755102 L57.3238289,8.43673469 L10.1425662,8.43673469 L10.1425662,5.87755102 C10.1425662,4.08979592 11.6700611,2.55918367 13.4541752,2.55918367 Z M50.9572301,54 C50.9572301,55.7877551 49.4297352,57.3183673 47.6456212,57.3183673 L5.86558045,57.3183673 C4.0814664,57.3183673 2.55397149,55.7877551 2.55397149,54 L2.55397149,29.2285714 C2.55397149,27.4408163 4.0814664,25.9102041 5.86558045,25.9102041 L47.6578411,25.9102041 C49.4419552,25.9102041 50.9694501,27.4408163 50.9694501,29.2285714 L50.9694501,54 L50.9572301,54 Z M54.01222,34.0897959 L53.4989817,34.0897959 L53.4989817,29.2408163 C53.4989817,26.044898 50.8228106,23.3632653 47.6334012,23.3632653 L10.1425662,23.3632653 L10.1425662,10.9836735 L57.3238289,10.9836735 L57.3238289,30.7714286 C57.3238289,32.5591837 55.796334,34.0897959 54.01222,34.0897959 Z" id="Shape" stroke-opacity="0.4" stroke="#FFFFFF" fill="#027993"></path>
                        </g>
                    </g>
                </g>
            </g>
        </g>
    </g>
</svg>