<?xml version="1.0" encoding="UTF-8"?>
<svg width="66px" height="60px" viewBox="0 0 66 60" version="1.1" xmlns="http://www.w3.org/2000/svg" xmlns:xlink="http://www.w3.org/1999/xlink">
    <g id="Dekstope-(1440-px)" stroke="none" stroke-width="1" fill="none" fill-rule="evenodd">
        <g id="3.-К.Н.-––-«Карточка-объекта»" transform="translate(-1210.000000, -1899.000000)" fill-rule="nonzero">
            <g id="7.-Инфраструктура" transform="translate(59.000000, 1631.000000)">
                <g id="2-часть" transform="translate(4.000000, 262.000000)">
                    <g id="4-карточка" transform="translate(1019.000000, 0.000000)">
                        <g id="Актив">
                            <g id="park" transform="translate(128.000000, 6.000000)">
                                <ellipse id="Oval" fill="#000000" cx="48.9420938" cy="34.1300905" rx="1" ry="1"></ellipse>
                                <ellipse id="Oval" fill="#000000" cx="48.9420938" cy="42.2162443" rx="1" ry="1"></ellipse>
                                <ellipse id="Oval" fill="#000000" cx="18.4292109" cy="42.2162443" rx="1" ry="1"></ellipse>
                                <ellipse id="Oval" fill="#000000" cx="18.4292109" cy="34.1300905" rx="1" ry="1"></ellipse>
                                <path d="M58.2645938,19.2229412 C57.006082,17.8977828 55.2851836,17.4078733 54.0630234,17.230181 C53.3807227,17.1308145 52.7096367,17.3686425 52.2221133,17.8820362 C51.7345898,18.3954299 51.5090039,19.101991 51.6031055,19.8206335 C51.7718438,21.1076471 52.2369375,22.9201357 53.4953203,24.2452941 C54.7537031,25.5704525 56.4747305,26.0602262 57.6968906,26.2379186 C57.7988555,26.2527149 57.9004336,26.2600452 58.0012383,26.2600452 C58.5755156,26.2600452 59.1231094,26.0228959 59.5378008,25.5861991 C60.0254531,25.0728054 60.2510391,24.3661086 60.1569375,23.6474661 C59.9881992,22.3603167 59.5228477,20.5480995 58.2645938,19.2229412 Z M58.1706211,24.1463348 C58.1306602,24.1884163 58.0613086,24.2349774 57.9612773,24.2208597 C57.0326367,24.0859276 55.7412539,23.7308145 54.8626289,22.8054299 C53.9840039,21.880181 53.6467852,20.5202715 53.5186523,19.5423529 C53.5047305,19.4364706 53.5494609,19.3641176 53.5894219,19.3219005 C53.6293828,19.2799548 53.697832,19.2320362 53.7986367,19.2473756 C54.7272773,19.3823077 56.0185312,19.7374208 56.8974141,20.6629412 C57.7760391,21.5880543 58.1132578,22.9480995 58.2415195,23.9258824 C58.2554414,24.0317647 58.210582,24.1041176 58.1706211,24.1463348 Z" id="Shape" fill="#BA7530"></path>
                                <path d="M29.5573008,25.8689593 C30.779332,25.691267 32.5003594,25.2013575 33.7588711,23.8761991 C35.0172539,22.550905 35.4824766,20.7386878 35.6512148,19.4516742 C35.7453164,18.7330317 35.5197305,18.0263348 35.0320781,17.5129412 C34.5445547,16.9996833 33.8735977,16.761991 33.1912969,16.8612217 C31.9691367,17.038914 30.2481094,17.5286878 28.9897266,18.8538462 C27.7313437,20.1791403 27.2661211,21.9913575 27.0973828,23.2785068 C27.0032812,23.9968778 27.2287383,24.7034389 27.7162617,25.2168326 C28.131082,25.6538009 28.6786758,25.8909502 29.2532109,25.8909502 C29.3538867,25.8909502 29.4554648,25.8836199 29.5573008,25.8689593 Z M29.0835703,23.7772398 C29.0436094,23.7351584 28.9988789,23.6628054 29.0128008,23.5569231 C29.1409336,22.5790045 29.4781523,21.219095 30.3569062,20.2938462 C31.2355312,19.3685973 32.5269141,19.0133484 33.4556836,18.8784163 C33.4684453,18.8765158 33.4806914,18.8757014 33.4925508,18.8757014 C33.5732461,18.8757014 33.6300937,18.9162896 33.6648984,18.9529412 C33.7048594,18.9951584 33.7495898,19.0675113 33.735668,19.1733937 C33.6075352,20.1511765 33.2703164,21.511086 32.3915625,22.4363348 C31.5128086,23.3617195 30.2214258,23.7169683 29.293043,23.8519005 C29.192625,23.8662896 29.1235312,23.8191855 29.0835703,23.7772398 Z" id="Shape" fill="#BA7530"></path>
                                <path d="M59.162168,49.2376018 L59.162168,48.1990045 C63.2530078,46.251991 65.9998711,41.9395928 65.9998711,37.0057466 C65.9998711,30.7023529 64.7791289,22.9335747 62.8142109,16.7313122 C59.8335117,7.32271493 56.5532344,5.3478733 54.32625,5.3478733 C52.8069609,5.3478733 51.4240547,6.23918552 50.1848789,7.72859729 C47.155582,2.97339367 42.0613359,0.0749321267 36.566707,0.0749321267 C33.4380234,0.0749321267 30.3958359,1.00656109 27.7689844,2.76936652 C25.353668,4.39004525 23.3878477,6.64045249 22.0574062,9.29850679 C18.3425859,10.0208145 14.8560586,11.7795475 11.9769375,14.4261991 C11.5746211,14.7961086 11.5332422,15.4391403 11.8843828,15.8628054 C12.2356523,16.2863348 12.8464102,16.3297738 13.2484687,15.9602715 C16.7539453,12.7379186 21.2504531,10.9630317 25.9097695,10.9630317 C33.9553242,10.9630317 41.1828398,16.2745249 43.9758516,24.2074208 C43.6516523,25.8804977 43.389457,27.5239819 43.1918438,29.069457 L21.436207,29.069457 C21.2101055,27.8558824 20.7151055,26.3642986 19.6371914,25.2291855 C18.3788086,23.9040271 16.6577813,23.4142534 15.43575,23.2365611 C14.7531914,23.1373303 14.0823633,23.3750226 13.5948398,23.8884163 C13.1073164,24.40181 12.8816016,25.108371 12.975832,25.8268778 C13.1329688,27.0253846 13.547918,28.678914 14.6201602,29.9708145 C14.1477188,30.4919457 13.8554883,31.1959276 13.8554883,31.9717195 L13.8554883,36.2894118 C13.8554883,37.0085973 14.1065977,37.6660181 14.5194844,38.1737104 C14.1065977,38.681267 13.8554883,39.3386878 13.8554883,40.0578733 L13.8554883,41.4591855 C10.817168,42.0146606 7.95776953,43.458733 5.63410547,45.6073303 C4.18867969,44.019095 3.33970313,41.920724 3.27847266,39.7251584 C3.20744531,37.1788235 4.17682031,34.7184163 5.93819531,32.9747511 C6.38898047,32.5284163 6.64730859,31.9011312 6.64717969,31.2480543 C6.64717969,27.1829864 7.78451953,23.2614027 9.93648047,19.9072398 C10.2354141,19.4413575 10.1190117,18.8085068 9.67660547,18.4937104 C9.23407031,18.1791855 8.63323828,18.3013575 8.33417578,18.7675113 C5.96565234,22.4595475 4.71358594,26.7752036 4.71358594,31.2544344 C4.71358594,31.3433484 4.67813672,31.4273756 4.61368359,31.4911765 C2.44934766,33.6331222 1.25825391,36.6561991 1.34552344,39.7844796 C1.4210625,42.4949321 2.47100391,45.0828054 4.25712891,47.0356561 C1.88770313,49.7991855 0.388523438,53.3106787 0.0140507813,57.0078733 C-0.0609726562,57.7482353 0.167835938,58.491448 0.641824219,59.0465158 C1.11826172,59.6045701 1.80017578,59.9247964 2.51264063,59.9247964 L15.9638789,59.9247964 C15.9647813,59.9247964 15.9655547,59.9249321 15.9663281,59.9249321 L18.5386523,59.9249321 C18.5395547,59.9249321 18.5403281,59.9247964 18.5411016,59.9247964 L48.8300742,59.9247964 C48.8309766,59.9247964 48.83175,59.9249321 48.8325234,59.9249321 L51.4048477,59.9249321 C51.40575,59.9249321 51.4065234,59.9247964 51.4072969,59.9247964 L63.3186211,59.9247964 C64.0848398,59.9247964 64.7992383,59.5637104 65.2787695,58.9339819 C65.7577852,58.3049321 65.9372227,57.4930317 65.7710625,56.7063801 C65.0154141,53.1282353 62.4619102,50.2752489 59.162168,49.2376018 Z M25.9096406,8.92628959 C25.4317852,8.92628959 24.9553477,8.94339367 24.4813594,8.97705882 C25.6021992,7.18303167 27.0731484,5.65031674 28.8079688,4.48615385 C31.1238984,2.93226244 33.8066953,2.11085973 36.5665781,2.11085973 C41.6453555,2.11085973 46.3370273,4.9179638 48.9511172,9.4759276 C47.1553242,12.4240724 45.7245938,16.6125339 44.6915391,20.9032127 C41.0721094,13.6314027 33.8532305,8.92628959 25.9096406,8.92628959 Z M20.5814297,31.1051131 L20.5814297,31.1052489 C20.5852969,31.1052489 20.589293,31.1052489 20.5931602,31.1052489 L50.7599297,31.1052489 C51.2134219,31.1052489 51.5823516,31.4937557 51.5823516,31.9713122 L51.5823516,36.2890045 C51.5823516,36.7666968 51.2134219,37.1552036 50.7599297,37.1552036 L48.0558633,37.1552036 C47.5219336,37.1552036 47.0890664,37.610905 47.0890664,38.1733032 C47.0890664,38.7357014 47.5219336,39.1914027 48.0558633,39.1914027 L50.7599297,39.1914027 C51.2134219,39.1914027 51.5823516,39.5799095 51.5823516,40.0574661 L51.5823516,44.3752941 C51.5823516,44.8528507 51.2134219,45.2413575 50.7599297,45.2413575 L16.611375,45.2413575 C16.1578828,45.2413575 15.7889531,44.8528507 15.7889531,44.3752941 L15.7889531,40.0573303 C15.7889531,39.5797738 16.1578828,39.191267 16.611375,39.191267 L43.0156289,39.191267 C43.5495586,39.191267 43.9824258,38.7355656 43.9824258,38.1731674 C43.9824258,37.6107692 43.5495586,37.1550679 43.0156289,37.1550679 L16.611375,37.1550679 C16.1578828,37.1550679 15.7889531,36.7665611 15.7889531,36.2888688 L15.7889531,31.9711765 C15.7889531,31.4936199 16.1578828,31.1051131 16.611375,31.1051131 L20.5814297,31.1051131 Z M14.9620195,25.3278733 C15.0019805,25.2856561 15.0706875,25.238552 15.1713633,25.2533484 C16.1000039,25.3882805 17.3913867,25.7433937 18.2700117,26.6687783 C18.9108047,27.3435747 19.2628477,28.2488688 19.4565938,29.0691855 L16.6115039,29.0691855 C16.5790195,29.0691855 16.5474375,29.0731222 16.5152109,29.0743439 C16.4151797,28.9895023 16.321207,28.90181 16.2353555,28.8114027 C15.3566016,27.8861538 15.0193828,26.5262443 14.89125,25.5483258 C14.8771992,25.4423077 14.9220586,25.3699548 14.9620195,25.3278733 Z M14.2331836,57.8884615 L2.51264063,57.8884615 C2.28705469,57.8884615 2.14461328,57.7609955 2.07977344,57.6851131 C2.01648047,57.6108597 1.91361328,57.4523077 1.93681641,57.2238462 C2.2914375,53.7240271 3.78558984,50.411267 6.1441875,47.8958824 C8.24226563,45.658371 10.9483945,44.1350226 13.8553594,43.531086 L13.8553594,44.3752941 C13.8553594,44.6767873 13.8994453,44.9676923 13.9809141,45.2413575 L12.1653984,45.2413575 C11.1253828,45.2413575 10.2793711,46.1323982 10.2793711,47.2274661 L10.2793711,49.3343891 C10.2793711,50.4295928 11.1253828,51.3206335 12.1653984,51.3206335 L14.2331836,51.3206335 L14.2331836,57.8884615 Z M18.338332,57.8884615 L16.1667773,57.8884615 L16.1667773,51.3204977 L18.338332,51.3204977 L18.338332,57.8884615 Z M20.2719258,57.8884615 L20.2719258,51.3204977 L29.7594258,51.3204977 C30.8204531,53.3375566 31.4431992,55.5810407 31.585125,57.8884615 L20.2719258,57.8884615 Z M47.0995078,57.8884615 L33.5210391,57.8884615 C33.3967734,55.6057466 32.8571719,53.3754299 31.9318828,51.3204977 L47.0995078,51.3204977 L47.0995078,57.8884615 Z M51.2045273,57.8885973 L49.0331016,57.8885973 L49.0331016,51.3204977 L51.2045273,51.3204977 L51.2045273,57.8885973 Z M12.2129648,49.2842986 L12.2129648,47.2774208 L55.1583398,47.2774208 L55.1583398,49.2842986 L12.2129648,49.2842986 Z M57.2285742,50.0195023 C57.2285742,50.0222172 57.2285742,50.0247964 57.2285742,50.0275113 L57.2285742,57.8884615 L53.1381211,57.8884615 L53.1381211,51.3204977 L55.2059062,51.3204977 C56.2459219,51.3204977 57.0919336,50.429457 57.0919336,49.3342534 L57.0919336,48.9458824 C57.1374375,48.9343439 57.1833281,48.9236199 57.2285742,48.9115385 L57.2285742,50.0195023 Z M57.8047852,46.5878281 C57.5603789,46.6854299 57.3109453,46.7728507 57.0568711,46.8502262 C56.8890352,45.9350226 56.123332,45.2412217 55.2059063,45.2412217 L53.3905195,45.2412217 C53.4719883,44.9675566 53.5160742,44.6766516 53.5160742,44.3751584 L53.5160742,40.0573303 C53.5160742,39.3381448 53.2649648,38.680724 52.8520781,38.1731674 C53.2649648,37.6656109 53.5160742,37.0080543 53.5160742,36.2888688 L53.5160742,31.9711765 C53.5160742,30.3708597 52.2797344,29.068914 50.7600586,29.068914 L45.1420664,29.068914 C45.3493477,27.4736199 45.6034219,25.9157919 45.8960391,24.4134842 C45.9142148,24.351448 45.9268477,24.2875113 45.9335508,24.2223529 C47.826668,14.6429864 51.2963086,7.38393665 54.3263789,7.38393665 C56.5106953,7.38393665 58.9980703,11.1191403 60.9801328,17.3755656 C62.8838203,23.3845249 64.0664062,30.9062443 64.0664062,37.0056109 C64.0664062,41.3108145 61.5602109,45.04819 57.8865117,46.5545701 C57.858668,46.5644796 57.8314688,46.5754751 57.8047852,46.5878281 Z M63.7704375,57.66 C63.7054687,57.7452489 63.5603203,57.8884615 63.31875,57.8884615 L59.162168,57.8884615 L59.162168,51.3871493 C61.5254062,52.3437557 63.3235195,54.4964253 63.8837461,57.148371 C63.936082,57.3954299 63.8351484,57.5748869 63.7704375,57.66 Z" id="Shape" fill="#027993"></path>
                            </g>
                        </g>
                    </g>
                </g>
            </g>
        </g>
    </g>
</svg>