<?xml version="1.0" encoding="UTF-8"?>
<svg width="60px" height="50px" viewBox="0 0 60 50" version="1.1" xmlns="http://www.w3.org/2000/svg" xmlns:xlink="http://www.w3.org/1999/xlink">
    <g id="Dekstope-(1440-px)" stroke="none" stroke-width="1" fill="none" fill-rule="evenodd">
        <g id="3.-К.Н.-––-«Карточка-объекта»" transform="translate(-184.000000, -1703.000000)" fill-rule="nonzero">
            <g id="7.-Инфраструктура" transform="translate(59.000000, 1631.000000)">
                <g id="1-часть" transform="translate(3.000000, 40.000000)">
                    <g id="1-карточка" transform="translate(0.000000, 27.000000)">
                        <g id="Иконка" transform="translate(122.000000, 5.000000)">
                            <path d="M30.9677419,40.5252903 L30.9677419,11.6283871 C30.9677419,11.0938065 30.5345806,10.6606452 30,10.6606452 C29.4654194,10.6606452 29.0322581,11.0938065 29.0322581,11.6283871 L29.0322581,40.5252903 C29.0322581,41.059871 29.4654194,41.4930323 30,41.4930323 C30.5345806,41.4930323 30.9677419,41.059871 30.9677419,40.5252903 Z" id="Shape" fill="#BA7530"></path>
                            <path d="M59.0322581,4.35896774 C56.9863226,4.35896774 54.4369032,3.47612903 51.7376774,2.54154839 C48.3193548,1.35780645 44.4446452,0.0162580645 40.4263226,0.0162580645 C35.7766452,0.0162580645 32.94,2.05380645 31.3792258,3.76309677 C30.7954839,4.40258065 30.3430968,5.04335484 30.000129,5.61174194 C29.6571613,5.04335484 29.2047742,4.40258065 28.6210323,3.76309677 C27.060129,2.05380645 24.2236129,0.0162580645 19.5739355,0.0162580645 C15.5554839,0.0162580645 11.6809032,1.35780645 8.26258065,2.54154839 C5.56309677,3.47612903 3.01367742,4.35896774 0.967741935,4.35896774 C0.43316129,4.35896774 0,4.79212903 0,5.32670968 L0,44.3063226 C0,44.8409032 0.43316129,45.2740645 0.967741935,45.2740645 C3.33935484,45.2740645 6.03832258,44.3394839 8.8956129,43.3500645 C12.1698065,42.2163871 15.8809032,40.9313548 19.5736774,40.9313548 C22.740129,40.9313548 25.3030968,41.979871 27.1914839,44.0477419 C27.5517419,44.4423226 28.164,44.4700645 28.5587097,44.1096774 C28.9534194,43.7492903 28.9810323,43.1371613 28.6206452,42.7424516 C27.0597419,41.0332903 24.2232258,38.9957419 19.5736774,38.9957419 C15.5552258,38.9957419 11.6806452,40.3372903 8.26232258,41.5210323 C5.97393548,42.3136774 3.79303226,43.0686452 1.93548387,43.2802581 L1.93548387,6.24645161 C4.06335484,6.04374194 6.42,5.2276129 8.8956129,4.37045161 C12.1698065,3.23677419 15.8809032,1.95174194 19.5736774,1.95174194 C27.0421935,1.95174194 28.9962581,7.88232258 29.0748387,8.1316129 C29.1997419,8.53780645 29.5749677,8.81522581 30,8.81522581 C30.4250323,8.81522581 30.8002581,8.53793548 30.9251613,8.1316129 C30.944,8.06980645 32.9100645,1.95174194 40.4263226,1.95174194 C44.1190968,1.95174194 47.8301935,3.23677419 51.1043871,4.37045161 C53.580129,5.22774194 55.9366452,6.04374194 58.0645161,6.24645161 L58.0645161,43.2802581 C56.2069677,43.0686452 54.0260645,42.3136774 51.7376774,41.5211613 C48.3193548,40.3374194 44.4446452,38.995871 40.4263226,38.995871 C35.7765161,38.995871 32.939871,41.0334194 31.3792258,42.7427097 C31.0188387,43.1375484 31.0465806,43.7495484 31.4411613,44.1099355 C31.836,44.4703226 32.448129,44.4425806 32.8083871,44.048 C34.6967742,41.98 37.2597419,40.9314839 40.4263226,40.9314839 C44.1190968,40.9314839 47.8301935,42.2165161 51.1043871,43.3501935 C53.9618065,44.3396129 56.6607742,45.2741935 59.0322581,45.2741935 C59.5668387,45.2741935 60,44.8410323 60,44.3064516 L60,5.32670968 C60,4.79225806 59.5668387,4.35896774 59.0322581,4.35896774 Z" id="Shape" fill="#027993"></path>
                            <path d="M59.0322581,47.2095484 C56.9863226,47.2095484 54.4369032,46.3267097 51.7376774,45.392129 C48.3193548,44.2083871 44.4446452,42.8668387 40.4263226,42.8668387 C36.0594839,42.8668387 33.292,44.664 31.6784516,46.2985806 L28.3214194,46.2984516 C26.707871,44.663871 23.9402581,42.8668387 19.5736774,42.8668387 C15.5552258,42.8668387 11.6806452,44.2083871 8.26232258,45.392129 C5.56309677,46.3267097 3.01367742,47.2095484 0.967741935,47.2095484 C0.43316129,47.2095484 -2.84217094e-14,47.6427097 -2.84217094e-14,48.1772903 C-2.84217094e-14,48.711871 0.43316129,49.1450323 0.967741935,49.1450323 C3.33935484,49.1450323 6.03832258,48.2104516 8.8956129,47.2210323 C12.1698065,46.0873548 15.8809032,44.8023226 19.5736774,44.8023226 C22.740129,44.8023226 25.3030968,45.8508387 27.1914839,47.9187097 C27.3748387,48.1194839 27.6341935,48.2338065 27.9060645,48.2338065 L32.0936774,48.2339355 C32.3655484,48.2339355 32.6249032,48.1194839 32.8082581,47.9188387 C34.6966452,45.8508387 37.2596129,44.8023226 40.4261935,44.8023226 C44.1189677,44.8023226 47.8300645,46.0873548 51.1042581,47.2210323 C53.9616774,48.2104516 56.6606452,49.1450323 59.032129,49.1450323 C59.5667097,49.1450323 59.999871,48.711871 59.999871,48.1772903 C59.999871,47.6427097 59.5668387,47.2095484 59.0322581,47.2095484 Z" id="Shape" fill="#BA7530"></path>
                        </g>
                    </g>
                </g>
            </g>
        </g>
    </g>
</svg>