<?xml version="1.0" encoding="UTF-8"?>
<svg width="28px" height="15px" viewBox="0 0 28 15" version="1.1" xmlns="http://www.w3.org/2000/svg" xmlns:xlink="http://www.w3.org/1999/xlink">
<g id="3.-К.Н.-––-«Карточка-объекта»" transform="translate(-576.000000, -510.000000)">
    <g id="4.-Карточка-1-часть" transform="translate(1.000000, 314.000000)">
        <g id="Инфо" transform="translate(51.000000, 0.117073)">
            <g id="Описание" transform="translate(0.000000, 138.000000)">
                <g id="Group-3" transform="translate(524.000000, 58.000000)">
                    <path d="M14,14 C6.2680135,14 0,10.8659932 0,7 C0,3.13400675 6.2680135,0 14,0 C21.7319865,0 28,3.13400675 28,7 C28,10.8659932 21.7319865,14 14,14 Z M14,12.9230769 C21.1592468,12.9230769 26.962963,10.2712251 26.962963,7 C26.962963,3.72877494 21.1592468,1.07692308 14,1.07692308 C6.84075324,1.07692308 1.03703704,3.72877494 1.03703704,7 C1.03703704,10.2712251 6.84075324,12.9230769 14,12.9230769 Z" id="Combined-Shape" ></path>
                    <circle id="Oval-5" cx="14" cy="7" r="4"></circle>
                </g>
            </g>
        </g>
    </g>
</g>
</svg>