<?xml version="1.0" encoding="UTF-8"?>
<svg width="62px" height="68px" viewBox="0 0 62 68" version="1.1" xmlns="http://www.w3.org/2000/svg" xmlns:xlink="http://www.w3.org/1999/xlink">
    <g id="Dekstope-(1440-px)" stroke="none" stroke-width="1" fill="none" fill-rule="evenodd">
        <g id="4.-Услуги-––-«Оценка-нед-сти»" transform="translate(-1215.000000, -680.000000)" fill-rule="nonzero">
            <g id="4.-Почему-МЫ" transform="translate(63.000000, 613.000000)">
                <g id="4-карточка" transform="translate(1022.000000, 67.000000)">
                    <g id="иконка" transform="translate(131.000000, 1.000000)">
                        <path d="M27.4581081,48.7962973 L23.2824324,62.1510811 L20.3424324,57.7931351 C20.2094595,57.5961081 19.9751351,57.4851892 19.7335135,57.4851892 C19.6240541,57.4851892 19.5121622,57.5078108 19.4075676,57.5567027 L14.3748649,59.8954865 L18.1840541,47.7104595 C17.7478378,47.4244054 17.3586486,47.0858108 17.0237838,46.691027 L12.5602703,60.9674595 C12.4840541,61.2126486 12.5764865,61.4760811 12.7962162,61.6373514 C13.0151351,61.7986216 13.3216216,61.8270811 13.572973,61.7103243 L19.4708108,58.9694595 L22.9151351,64.0768378 C23.0448649,64.2694865 23.2767568,64.3847838 23.5232432,64.3847838 C23.5548649,64.3847838 23.5872973,64.3825946 23.6189189,64.3789459 C23.8994595,64.3446486 24.1313514,64.1636757 24.2083784,63.9177568 L29.0237838,48.5168108 C28.5145946,48.6218919 27.9908108,48.716027 27.4581081,48.7962973 Z" id="Shape" stroke-opacity="0.3" stroke="#027993" fill="#027993"></path>
                        <path d="M45.6137838,62.7224595 L41.8727027,47.3361081 C41.6627027,47.6433243 41.4413514,47.9447027 41.1948649,48.2344054 C41.1454054,48.2927838 41.0902703,48.3394865 41.0359459,48.3876486 C40.9605405,48.527027 40.8705405,48.6488919 40.757027,48.7393784 L43.902973,61.6774865 L39.0308108,59.0767297 C38.7105405,58.9052432 38.2954054,58.9862432 38.0821622,59.2635405 L34.8640541,63.458027 L31.1108108,48.0264324 C30.6251351,48.0184054 30.1402703,48.0191351 29.6562162,48.0373784 L33.8221622,65.1714324 C33.882973,65.4202703 34.1018919,65.6136486 34.38,65.6625405 C34.4254054,65.6712973 34.4716216,65.6756757 34.5178378,65.6756757 C34.7489189,65.6756757 34.9686486,65.5742432 35.1040541,65.3991081 L38.8759459,60.4836486 L44.5856757,63.5317297 C44.6975676,63.5915676 44.8232432,63.6214865 44.9489189,63.6214865 C44.9545946,63.6222162 44.9594595,63.6214865 44.9627027,63.6214865 C45.3559459,63.6214865 45.6745946,63.3347027 45.6745946,62.9807838 C45.672973,62.8888378 45.6527027,62.8012703 45.6137838,62.7224595 Z" id="Shape" stroke-opacity="0.3" stroke="#027993" fill="#027993"></path>
                        <path d="M38.0910811,51.2941622 C36.6948649,51.2941622 35.2321622,50.6403243 33.8172973,50.0083784 C32.5045946,49.4216757 31.1472973,48.8152703 30.0008108,48.8152703 C28.8543243,48.8152703 27.4962162,49.4224054 26.1843243,50.0083784 C24.7694595,50.6403243 23.3059459,51.2941622 21.9097297,51.2941622 C21.5189189,51.2941622 21.1451351,51.2430811 20.7972973,51.1409189 C18.9940541,50.6140541 18.0137838,48.9123243 17.0651351,47.2675135 C16.4116216,46.1327838 15.7354054,44.9593784 14.8694595,44.3923784 C13.9864865,43.8137027 12.5237838,43.5933243 11.1089189,43.3802432 C9.09324324,43.0759459 7.00945946,42.7614324 5.90918919,41.4019459 C4.8227027,40.0577838 5.12918919,38.1874865 5.42513514,36.3784865 C5.63675676,35.091973 5.85486486,33.7609459 5.51027027,32.8086486 C5.18837838,31.9161892 4.21702703,31.0302973 3.18810811,30.0918649 C1.72945946,28.7615676 0.222162162,27.3867568 0.222162162,25.6463514 C0.222162162,23.9059459 1.73027027,22.5311351 3.18810811,21.2008378 C4.21702703,20.2631351 5.18837838,19.3772432 5.51027027,18.4840541 C5.85405405,17.5317568 5.63594595,16.2014595 5.42513514,14.9142162 C5.12918919,13.1052162 4.8227027,11.2349189 5.90918919,9.89075676 C7.00864865,8.53127027 9.09324324,8.21675676 11.1089189,7.91245946 C12.5237838,7.69937838 13.9856757,7.47827027 14.8686486,6.90032432 C15.7354054,6.33259459 16.4116216,5.15991892 17.0651351,4.02445946 C18.012973,2.37891892 18.9932432,0.677918919 20.7964865,0.151054054 C21.1443243,0.0510810811 21.5181081,0 21.9089189,0 C23.3051351,0 24.7678378,0.653837838 26.1835135,1.28578378 C27.4954054,1.87248649 28.8527027,2.47889189 30,2.47889189 C31.1464865,2.47889189 32.5045946,1.87175676 33.8164865,1.28578378 C35.2321622,0.653837838 36.6948649,0 38.0910811,0 C38.4818919,0 38.8556757,0.0510810811 39.2035135,0.153243243 C41.0067568,0.680108108 41.987027,2.38183784 42.9356757,4.02664865 C43.5891892,5.16137838 44.2654054,6.33478378 45.1313514,6.90178378 C46.0143243,7.48045946 47.477027,7.70083784 48.8918919,7.91464865 C50.9075676,8.21894595 52.9913514,8.53345946 54.0916216,9.89294595 C55.1781081,11.2371081 54.8716216,13.1074054 54.5756757,14.9164054 C54.3640541,16.2029189 54.1459459,17.5332162 54.4905405,18.4862432 C54.8124324,19.3787027 55.7837838,20.2645946 56.8127027,21.203027 C58.2713514,22.5333243 59.7786486,23.9081351 59.7786486,25.6485405 C59.7786486,27.3889459 58.2713514,28.7637568 56.8127027,30.0940541 C55.7837838,31.0317568 54.8124324,31.9176486 54.4905405,32.8108378 C54.1467568,33.7631351 54.3648649,35.0934324 54.5756757,36.3806757 C54.8716216,38.1896757 55.1781081,40.059973 54.0916216,41.4041351 C52.9921622,42.7636216 50.9075676,43.0781351 48.8918919,43.3824324 C47.477027,43.5955135 46.0151351,43.8166216 45.1321622,44.3945676 C44.2654054,44.9622973 43.5891892,46.134973 42.9356757,47.2704324 C41.9878378,48.915973 41.0075676,50.616973 39.2043243,51.1438378 C38.8556757,51.2430811 38.4818919,51.2941622 38.0910811,51.2941622 Z M30,47.5338649 C31.4805405,47.5338649 32.9902703,48.2088649 34.4497297,48.8612432 C35.7762162,49.4537838 37.0289189,50.0134865 38.0902703,50.0134865 C38.3351351,50.0134865 38.5548649,49.9842973 38.7632432,49.923 C40.0102703,49.5588649 40.8543243,48.0942973 41.67,46.6786216 C42.3997297,45.4118108 43.1537838,44.1019459 44.292973,43.3568919 C45.4467568,42.6008919 47.0772973,42.354973 48.6551351,42.1170811 C50.4697297,41.8434324 52.182973,41.5851081 52.9394595,40.6481351 C53.6837838,39.7272162 53.4324324,38.1918649 53.1656757,36.566027 C52.9305405,35.1328378 52.6872973,33.6514865 53.1340541,32.4131351 C53.5597297,31.2324324 54.6972973,30.1954865 55.7967568,29.1928378 C57.0535135,28.0464324 58.3524324,26.8620811 58.3524324,25.6478108 C58.3524324,24.4335405 57.0535135,23.2484595 55.7967568,22.1027838 C54.6972973,21.1001351 53.5597297,20.0631892 53.1340541,18.8824865 C52.6872973,17.6441351 52.9305405,16.1627838 53.1656757,14.7295946 C53.4316216,13.1037568 53.6837838,11.5684054 52.9394595,10.6474865 C52.1821622,9.71124324 50.4689189,9.45291892 48.6551351,9.17927027 C47.0781081,8.94137838 45.4467568,8.69545946 44.2921622,7.93872973 C43.1554054,7.19367568 42.3997297,5.88381081 41.6708108,4.61772973 C40.8551351,3.20205405 40.0110811,1.73748649 38.7632432,1.37262162 C38.5548649,1.31132432 38.3351351,1.28213514 38.0902703,1.28213514 C37.0281081,1.28213514 35.7754054,1.84183784 34.4497297,2.43437838 C32.9902703,3.08675676 31.4805405,3.76175676 30,3.76175676 C28.5194595,3.76175676 27.0097297,3.08675676 25.5502703,2.43437838 C23.9181081,1.70537838 22.35,1.04716216 21.2367568,1.37262162 C19.9897297,1.73675676 19.1456757,3.20132432 18.33,4.617 C17.6002703,5.88381081 16.8462162,7.19367568 15.707027,7.93872973 C14.5532432,8.69472973 12.9227027,8.94064865 11.3448649,9.17854054 C9.53027027,9.45218919 7.81702703,9.71051351 7.06054054,10.6474865 C6.31621622,11.5684054 6.56756757,13.1037568 6.83432432,14.7295946 C7.06945946,16.1627838 7.3127027,17.6441351 6.86594595,18.8824865 C6.44027027,20.0631892 5.3027027,21.1001351 4.20324324,22.1027838 C2.94648649,23.2491892 1.64756757,24.4335405 1.64756757,25.6478108 C1.64756757,26.8620811 2.94648649,28.0471622 4.20324324,29.1928378 C5.3027027,30.1954865 6.44027027,31.2324324 6.86594595,32.4131351 C7.3127027,33.6514865 7.06945946,35.1328378 6.83432432,36.566027 C6.56837838,38.1918649 6.31621622,39.7272162 7.06054054,40.6481351 C7.81783784,41.5843784 9.53108108,41.8427027 11.3448649,42.1163514 C12.9218919,42.3542432 14.5532432,42.6008919 15.7078378,43.3568919 C16.8445946,44.1019459 17.6002703,45.4118108 18.3291892,46.6778919 C19.1448649,48.0942973 19.9889189,49.5581351 21.2367568,49.923 C22.35,50.2491892 23.9181081,49.5902432 25.5502703,48.8612432 C27.0097297,48.2088649 28.5194595,47.5338649 30,47.5338649 Z" id="Shape" stroke-opacity="0.3" stroke="#027993" fill="#027993"></path>
                        <polygon id="Shape" fill="#BA7530" points="41.3886486 18.6438649 29.5475676 32.6502973 27.3405405 35.2561622 25.1375676 32.6502973 20.0351351 26.6168919 22.2389189 24.0066486 27.3405405 30.0407838 39.1848649 16.038"></polygon>
                    </g>
                </g>
            </g>
        </g>
    </g>
</svg>