<?xml version="1.0" encoding="UTF-8"?>
<svg width="62px" height="61px" viewBox="0 0 62 61" version="1.1" xmlns="http://www.w3.org/2000/svg" xmlns:xlink="http://www.w3.org/1999/xlink">
    <g id="Dekstope-(1440-px)" stroke="none" stroke-width="1" fill="none" fill-rule="evenodd">
        <g id="3.-К.Н.-––-«Карточка-объекта»" transform="translate(-534.000000, -1699.000000)" fill-rule="nonzero">
            <g id="7.-Инфраструктура" transform="translate(59.000000, 1631.000000)">
                <g id="1-часть" transform="translate(3.000000, 40.000000)">
                    <g id="2-карточка" transform="translate(340.000000, 27.000000)">
                        <g id="duck" transform="translate(133.000000, 2.000000)">
                            <ellipse id="Oval" fill="#000000" cx="39.1191813" cy="11.4492438" rx="1.94116959" ry="2.00810647"></ellipse>
                            <path d="M59.2666667,10.7292196 C58.5509942,9.66436782 57.4236257,9.00266183 56.1734503,8.91349062 L49.7072515,8.45323654 C47.2578947,3.6676346 42.2794152,0.428070175 36.7354386,0.0996975197 C32.5111111,-0.150514217 28.3508772,1.31833031 25.3223392,4.13042952 C22.5412865,6.71276467 20.9088889,10.1990321 20.725614,13.9468845 C20.5083041,18.3923775 21.6236257,21.7564428 24.1298246,24.1866909 C23.2915789,24.5882638 22.4266667,25.0331518 21.5115789,25.5332123 C16.600117,28.2186328 14.0101754,27.1893527 8.38280702,23.7939504 C5.88152047,22.2839685 3.36444444,22.7924985 1.81391813,25.1202662 C0.0197660819,27.8142771 -0.384795322,32.8883243 0.758245614,38.3623714 C1.49345029,41.8834846 3.50573099,48.4400484 8.72315789,52.7906836 C13.4422222,56.7260738 20.3215205,58.9718088 27.6355556,58.9718088 C27.7295906,58.9718088 27.8239766,58.9714459 27.9182456,58.9705989 C35.2626901,58.9125227 41.9916959,56.6297641 46.379883,52.70732 C48.814269,50.5313975 50.6652632,47.9605566 51.8812865,45.0658197 C53.0212865,42.3526921 53.5417544,39.430611 53.3865497,36.61585 C53.1225731,31.8267393 50.9374269,27.6237145 47.3832749,25.0592861 C48.3294737,24.0957048 49.065731,22.8953418 49.5099415,21.6079855 C56.7863158,21.1032063 59.0991813,16.8996975 59.8323977,14.3304295 C60.1832749,13.0990926 59.9773099,11.7864489 59.2666667,10.7292196 Z M49.5100585,36.8446461 C49.7690058,41.5430127 47.7026901,46.2170599 43.8411696,49.6686025 C40.1395322,52.9772535 34.3249123,54.9039322 27.8880702,54.9547489 C21.3518129,55.0037508 15.2529825,53.0781609 11.1592982,49.6641258 C8.02760234,47.0523896 5.6194152,42.6240774 4.55263158,37.5143376 C3.80783626,33.9474894 3.72608187,29.3274047 5.01076023,27.3986691 C5.27356725,27.0041137 5.48128655,26.692559 6.42631579,27.2627949 C10.0525146,29.4508167 13.0955556,31.0601331 16.5188304,31.0598911 C18.5796491,31.0596491 20.7790643,30.4761041 23.3247953,29.0839685 C24.5559064,28.4114943 25.6836257,27.8485178 26.7728655,27.3626134 C27.8087719,26.9006655 28.5072515,25.9327284 28.6412865,24.7739867 C28.7750877,23.6165759 28.3177778,22.5067151 27.4178947,21.8059286 C26.0989474,20.7784634 24.3722807,18.8670296 24.6025731,14.1495463 C24.7333333,11.4782819 25.9098246,8.9814882 27.9155556,7.11893527 C30.1797661,5.01633394 33.3125146,3.91893527 36.5132164,4.10913491 C40.8122807,4.36370236 44.6419883,6.89316394 46.4066667,10.599274 L45.7552047,12.1431337 C44.694152,14.6577132 44.7784795,17.507441 45.9518129,19.9322444 C45.6777778,20.9421658 45.0459649,21.9345433 44.2481871,22.5679371 C43.4259649,23.2206897 42.9663158,24.246703 43.0181287,25.3124017 C43.0699415,26.3759226 43.625614,27.3462795 44.5036257,27.908167 C44.6994152,28.0335148 44.894152,28.1643073 45.0809357,28.2958258 C47.6981287,30.1426497 49.3123977,33.2585602 49.5100585,36.8446461 Z M56.108538,13.1933454 C55.3418713,15.8792498 53.0207018,17.3604356 49.2018713,17.6056866 C48.7615205,16.3664852 48.7916959,14.9862069 49.3133333,13.7497883 L49.8454971,12.4886872 L55.9069006,12.9201452 C55.997193,12.9265578 56.0504094,12.9788264 56.0791813,13.0216576 C56.134152,13.1035693 56.1148538,13.1710829 56.108538,13.1933454 Z" id="Shape" stroke="#FFFFFF" stroke-width="2" fill="#027993"></path>
                            <path d="M25.5354975,32.4938899 C18.890527,32.4938899 13.6854971,36.3591047 13.6854971,41.2934059 C13.6854971,46.2275862 18.890644,50.092801 25.5354975,50.092801 C32.1803509,50.092801 37.3854978,46.2277072 37.3854978,41.2934059 C37.3854978,36.3591047 32.1803509,32.4938899 25.5354975,32.4938899 Z M25.5354975,46.076709 C21.2914807,46.076709 17.5685051,43.8416213 17.5685051,41.2935269 C17.5685051,38.7454325 21.2914807,36.5102238 25.5354975,36.5102238 C29.7795142,36.5102238 33.5024898,38.7454325 33.5024898,41.2935269 C33.5024898,43.8416213 29.7795142,46.076709 25.5354975,46.076709 Z" id="Shape" stroke="#FFFFFF" stroke-width="2" fill="#BA7530"></path>
                        </g>
                    </g>
                </g>
            </g>
        </g>
    </g>
</svg>