<svg xmlns="http://www.w3.org/2000/svg" viewBox="0 0 87.67 16.45"><defs></defs><title>Ресурс 4</title><g id="Слой_2" data-name="Слой 2"><g id="Слой_1-2" data-name="Слой 1"><path d="M19.27,8.87C16.52,5.06,14.15-.23,8.38,0a8.48,8.48,0,0,0-6,2.39A8,8,0,0,0,0,8.19,8.12,8.12,0,0,0,2.5,14h0a8.63,8.63,0,0,0,11.41.49,3,3,0,0,0,.26-.21,3.77,3.77,0,0,0,.4-.4l0,0h0c.06-.08.13-.14.18-.2l0-.05h0a.73.73,0,0,1,.21-.16.19.19,0,0,1,.09-.05h.27l.31-.2-.91-1.42-.31.2a1.82,1.82,0,0,1-.14,1.16c0,.11-.11.21-.16.3l0,0-.17.18h0a8,8,0,0,1-1.68,1.25C5.2,18.41-2.24,9.35,2.66,3A7.34,7.34,0,0,1,8.39.58C16.23.5,16.46,13.21,24.62,13.23a5.22,5.22,0,0,0,3.67-1.48h0a5,5,0,0,0,1.5-3.57A5,5,0,0,0,28.24,4.6a5.32,5.32,0,0,0-3.68-1.49,5.26,5.26,0,0,0-3.67,1.47.28.28,0,0,0,0,.4.28.28,0,0,0,.41,0,4.68,4.68,0,0,1,3.26-1.31A4.74,4.74,0,0,1,27.83,5,4.47,4.47,0,0,1,29.2,8.17a4.37,4.37,0,0,1-1.33,3.18h0l-.37.33V7.76L24.74,6,22,7.77v4.06a9,9,0,0,1-2.75-3Zm2.09-1.2a.23.23,0,0,1-.29-.08.24.24,0,0,1,.06-.33l3.46-2.33.13-.08.13.08,1.45,1V5.2h1.17V6.7l.87.58a.24.24,0,0,1,.07.33.25.25,0,0,1-.29.08s0,0,0,0l-.44-.29-.17-.11h0L26.3,6.48,24.71,5.41l-2.91,2-.44.28s0,0,0,0Zm3.69.08h.66a.2.2,0,0,1,.19.19V8.6a.19.19,0,0,1-.18.18h-.66a.19.19,0,0,1-.19-.19V7.93a.19.19,0,0,1,.18-.18Zm-1.24,0h.66a.19.19,0,0,1,.19.19V8.6a.18.18,0,0,1-.18.18h-.66a.2.2,0,0,1-.19-.19V7.93a.18.18,0,0,1,.18-.18Zm0,1.21h.66a.19.19,0,0,1,.19.19v.66a.18.18,0,0,1-.18.18h-.66a.2.2,0,0,1-.19-.19V9.14A.2.2,0,0,1,23.81,9Zm1.25,0h.66a.19.19,0,0,1,.19.19v.66a.18.18,0,0,1-.18.18h-.66a.19.19,0,0,1-.18-.19V9.15A.17.17,0,0,1,25.06,9Z"/><path d="M24.22,16.45h.42A8.38,8.38,0,0,0,30.53,14a8.08,8.08,0,0,0-.06-11.59h0A8.45,8.45,0,0,0,19.16,2a1.69,1.69,0,0,0-.25.2,5.09,5.09,0,0,0-.41.4l0,0h0l-.19.19s0,0,0,.05h0a.87.87,0,0,1-.22.17l-.08,0a.43.43,0,0,1-.16,0h-.11l-.3.2.9,1.42.3-.2a1.91,1.91,0,0,1,.15-1.16,1.4,1.4,0,0,1,.15-.3l0,0,.17-.18h0a8,8,0,0,1,1.66-1.26C27.79-2,35.17,7,30.31,13.41a6,6,0,0,1-2.64,1.89h0a5.31,5.31,0,0,1-.56.2l-.73.19a8.32,8.32,0,0,1-1.78.17,8,8,0,0,1-5.49-2.23,63.54,63.54,0,0,1-4.73-6c-.51-.69-1-1.38-1.49-2h0l-.18-.25h0a4.44,4.44,0,0,0-.6-.7,5.26,5.26,0,0,0-3.65-1.5A5.08,5.08,0,0,0,4.82,4.63h0A4.94,4.94,0,0,0,3.35,8.19a5.12,5.12,0,0,0,1.54,3.58h0a5.28,5.28,0,0,0,3.66,1.5,5,5,0,0,0,3.62-1.47h0l.26-.26a2.92,2.92,0,0,0,.23-.29.28.28,0,0,0-.06-.4.29.29,0,0,0-.4.06l-.21.26-.22.24h0a4.56,4.56,0,0,1-3.22,1.3A4.65,4.65,0,0,1,5.3,11.38h0A4.49,4.49,0,0,1,3.93,8.21,4.38,4.38,0,0,1,5.23,5h0c.12-.12.26-.23.39-.35V9.87l2.55,1.68V7.83H8a.18.18,0,0,1-.18-.18V7A.18.18,0,0,1,8,6.81H8.7A.19.19,0,0,1,8.88,7v.66a.19.19,0,0,1-.19.18H8.52v3.72l2.59-1.67V4.63a10.46,10.46,0,0,1,2.44,2.86L13.9,8a65,65,0,0,0,4.7,6l0,.07.11.11h0a8.48,8.48,0,0,0,5.43,2.3Z"/><path d="M39.4,12a.9.9,0,0,0-.24,0,.44.44,0,0,0-.19.1.69.69,0,0,0-.13.2,1,1,0,0,0-.06.32h-.35V12h-.31v1.6h.31v-.7h.35a1.63,1.63,0,0,0,0,.35.71.71,0,0,0,.12.23.35.35,0,0,0,.19.12.69.69,0,0,0,.25,0,.73.73,0,0,0,.22,0,.45.45,0,0,0,.17-.08,1,1,0,0,0,.13-.16,1.35,1.35,0,0,0,.08-.24,3.32,3.32,0,0,0,0-.35,3.08,3.08,0,0,0,0-.33.87.87,0,0,0-.08-.23.49.49,0,0,0-.13-.15.45.45,0,0,0-.17-.08.68.68,0,0,0-.21,0Zm0,1.39a.23.23,0,0,1-.12,0s-.06,0-.09-.05a.44.44,0,0,1-.06-.1.65.65,0,0,1,0-.16,1.85,1.85,0,0,1,0-.25,1.7,1.7,0,0,1,0-.24.57.57,0,0,1,0-.16l.06-.1.09,0h.24l.09,0a.44.44,0,0,1,.06.1,1.57,1.57,0,0,1,0,.16,3,3,0,0,1,0,.49c0,.06,0,.12,0,.16a.44.44,0,0,1-.06.1.14.14,0,0,1-.09.05l-.12,0Zm1.65-.54V12.3h.44a.14.14,0,0,1,.14.07.33.33,0,0,1,0,.21.31.31,0,0,1,0,.21.17.17,0,0,1-.14.07Zm0,.78v-.52h.53a.39.39,0,0,0,.2,0,.36.36,0,0,0,.14-.11A.46.46,0,0,0,42,12.8a.64.64,0,0,0,0-.2.78.78,0,0,0,0-.22.51.51,0,0,0-.07-.17.38.38,0,0,0-.14-.11.48.48,0,0,0-.22,0h-.83v1.6h.32Zm3-1.6h-.36c-.11.2-.22.41-.34.6l-.36.61V12h-.31v1.6h.4c.08-.12.16-.25.23-.38s.16-.25.23-.38l.21-.39v1.15h.3V12Zm.73.78a3.11,3.11,0,0,0,0,.34,1.1,1.1,0,0,0,.09.24.46.46,0,0,0,.15.16.5.5,0,0,0,.2.08,1.2,1.2,0,0,0,.28,0h.23l.12,0,.11,0-.07-.27-.07,0h-.45a.37.37,0,0,1-.14,0,.26.26,0,0,1-.09-.09.31.31,0,0,1,0-.17,1.57,1.57,0,0,1,0-.25,1.81,1.81,0,0,1,0-.25.25.25,0,0,1,0-.16.28.28,0,0,1,.09-.1l.14,0h.36l.09,0,.07,0,.07-.27-.11,0h-.35l-.28,0-.2.08a.43.43,0,0,0-.15.15.69.69,0,0,0-.09.23c0,.11,0,.23,0,.35Zm2.48.82V12.31h.54v-.26H46.42v.26H47v1.33Zm1.45-.26v-.52h.48a.13.13,0,0,1,.13.07s0,.11,0,.2a.36.36,0,0,1,0,.19.14.14,0,0,1-.13.06ZM48.41,12v1.6h.87a.35.35,0,0,0,.23-.06.47.47,0,0,0,.14-.17,1.11,1.11,0,0,0,0-.28,1.5,1.5,0,0,0,0-.2.89.89,0,0,0-.08-.17.69.69,0,0,0-.13-.11.54.54,0,0,0-.2,0H48.7V12Zm1.44,0v1.6h.3V12Zm3.82.69h-.3a1.1,1.1,0,0,1,0,.18c0,.06-.05.11-.07.16l-.15-.16a.38.38,0,0,0-.13-.09l-.1,0,.18,0a.24.24,0,0,0,.11-.08.39.39,0,0,0,.06-.11.68.68,0,0,0,0-.15.48.48,0,0,0,0-.18.28.28,0,0,0-.09-.13A.38.38,0,0,0,53,12l-.27,0-.27,0a.54.54,0,0,0-.17.08.3.3,0,0,0-.09.13.9.9,0,0,0,0,.18.76.76,0,0,0,0,.15.21.21,0,0,0,0,.11.24.24,0,0,0,.09.08l.18,0a.76.76,0,0,0-.25.06.29.29,0,0,0-.14.15.45.45,0,0,0,0,.2.49.49,0,0,0,0,.22.5.5,0,0,0,.1.14.54.54,0,0,0,.19.07,1.2,1.2,0,0,0,.28,0h.17l.16,0,.13-.06.14-.09.06.09.06.08h.35l-.13-.19-.12-.16a.77.77,0,0,0,.2-.56Zm-1,.7a.4.4,0,0,1-.17,0,.14.14,0,0,1-.09-.08.26.26,0,0,1,0-.14.24.24,0,0,1,0-.15.18.18,0,0,1,.09-.08.47.47,0,0,1,.17,0,.51.51,0,0,1,.14,0,.71.71,0,0,1,.13.12,1.6,1.6,0,0,1,.16.19l-.11.08-.1.05-.11,0Zm0-.74a.29.29,0,0,1-.14,0,.16.16,0,0,1-.07-.07.25.25,0,0,1,0-.13.21.21,0,0,1,0-.12.14.14,0,0,1,.07-.06l.15,0,.15,0a.14.14,0,0,1,.07.06.24.24,0,0,1,0,.12.25.25,0,0,1,0,.13.15.15,0,0,1-.09.07.26.26,0,0,1-.14,0Zm3.16.17V12.3h.44c.07,0,.12,0,.14.07a.33.33,0,0,1,0,.21.31.31,0,0,1,0,.21.17.17,0,0,1-.14.07Zm0,.78v-.52h.53a.39.39,0,0,0,.2,0,.36.36,0,0,0,.14-.11.46.46,0,0,0,.07-.16.64.64,0,0,0,0-.2.78.78,0,0,0,0-.22.51.51,0,0,0-.07-.17.38.38,0,0,0-.14-.11.48.48,0,0,0-.22,0h-.83v1.6h.32Zm3-1.6h-.37c-.11.2-.22.41-.34.6l-.36.61V12h-.31v1.6h.4c.08-.12.16-.25.23-.38s.16-.25.23-.38.14-.26.21-.39v1.15h.3V12Zm1.56.89a.6.6,0,0,1,0,.2.81.81,0,0,1-.06.13.25.25,0,0,1-.1.08.22.22,0,0,1-.13,0h-.44l-.08,0-.07.27.1,0,.12,0H60a1.2,1.2,0,0,0,.28,0,.53.53,0,0,0,.22-.08.75.75,0,0,0,.15-.16,1.08,1.08,0,0,0,.1-.24,2.86,2.86,0,0,0,0-.34,1.61,1.61,0,0,0,0-.33.61.61,0,0,0-.1-.23.43.43,0,0,0-.15-.15.63.63,0,0,0-.22-.08A1.19,1.19,0,0,0,60,12h-.25l-.12,0-.1,0,.07.26h.08l.09,0h.35l.13,0,.09.07a.39.39,0,0,1,.06.11.8.8,0,0,1,0,.18h-.69V13h.69Zm2-.62v1.33h.3V12H61.66a5,5,0,0,1-.06.57c0,.18-.07.36-.12.53s-.09.34-.14.5h.32c0-.11.07-.22.1-.33l.09-.35.06-.33c0-.12,0-.22,0-.32Zm1.75,1.33V12.31h.55v-.26H63.34v.26h.54v1.33ZM66,12a1.27,1.27,0,0,0-.28,0,.76.76,0,0,0-.21.08.56.56,0,0,0-.16.15.61.61,0,0,0-.09.23,1.57,1.57,0,0,0,0,.33,1.25,1.25,0,0,0,0,.35.75.75,0,0,0,.09.24.61.61,0,0,0,.16.16,1,1,0,0,0,.21.08,1.2,1.2,0,0,0,.28,0,1.27,1.27,0,0,0,.28,0,.76.76,0,0,0,.21-.08.61.61,0,0,0,.16-.16.85.85,0,0,0,.09-.24,1.69,1.69,0,0,0,0-.35,1.11,1.11,0,0,0,0-.33.61.61,0,0,0-.09-.23.56.56,0,0,0-.16-.15.66.66,0,0,0-.21-.08A1.27,1.27,0,0,0,66,12Zm0,1.39a.5.5,0,0,1-.18,0,.19.19,0,0,1-.13-.05.34.34,0,0,1-.08-.09.61.61,0,0,1,0-.17,1.63,1.63,0,0,1,0-.24,1.7,1.7,0,0,1,0-.24.53.53,0,0,1,0-.16.27.27,0,0,1,.08-.1.4.4,0,0,1,.13,0h.36l.13,0a.27.27,0,0,1,.08.1.53.53,0,0,1,0,.16,1.77,1.77,0,0,1,0,.24,1.63,1.63,0,0,1,0,.24.61.61,0,0,1,0,.17.18.18,0,0,1-.08.09.19.19,0,0,1-.13.05l-.18,0Zm1.78-.54V12.3h.45a.15.15,0,0,1,.14.07.41.41,0,0,1,.05.21.38.38,0,0,1-.05.21.2.2,0,0,1-.15.07Zm0,.78v-.52h.54a.39.39,0,0,0,.2,0,.28.28,0,0,0,.13-.11.35.35,0,0,0,.08-.16.64.64,0,0,0,0-.2.78.78,0,0,0,0-.22.38.38,0,0,0-.08-.17.28.28,0,0,0-.13-.11.48.48,0,0,0-.22,0h-.83v1.6h.31Zm1.94-.26v-.52h.49a.14.14,0,0,1,.13.07.35.35,0,0,1,0,.2.49.49,0,0,1,0,.19.15.15,0,0,1-.13.06ZM69.43,12v1.6h.87a.36.36,0,0,0,.24-.06.37.37,0,0,0,.13-.17.78.78,0,0,0,0-.28.75.75,0,0,0,0-.2.53.53,0,0,0-.08-.17.36.36,0,0,0-.13-.11.53.53,0,0,0-.19,0h-.56V12Zm1.44,0v1.6h.3V12Z"/><path d="M38.23,5.47h1.49v.22a.3.3,0,0,0-.22.12.29.29,0,0,0-.07.23V7.13A.87.87,0,0,0,40,7a1.32,1.32,0,0,0,.39-.56,2.23,2.23,0,0,1,.47-.82.91.91,0,0,1,.58-.18h.2l.18,0v1h-.21a.29.29,0,0,0-.1-.16.37.37,0,0,0-.17,0,.28.28,0,0,0-.18.06.74.74,0,0,0-.19.2,4,4,0,0,1-.54.63,1.2,1.2,0,0,1-.32.16v0l.32.07.29.09a1.16,1.16,0,0,1,.45.36,2.2,2.2,0,0,1,.29.71c.06.26.1.42.11.45a.19.19,0,0,0,.05.09.7.7,0,0,0,.22.29.63.63,0,0,0,.32.12v.23l-.23.07-.24,0a1.43,1.43,0,0,1-.6-.13.87.87,0,0,1-.39-.37.91.91,0,0,1-.09-.17c0-.06-.06-.24-.12-.53A3.24,3.24,0,0,0,40.32,8a1,1,0,0,0-.24-.32.74.74,0,0,0-.3-.17.78.78,0,0,0-.34,0V9.19a.43.43,0,0,0,.07.24.36.36,0,0,0,.22.11v.22H38.24V9.54a.31.31,0,0,0,.22-.11.32.32,0,0,0,.08-.24V6.05a.38.38,0,0,0-.08-.24.42.42,0,0,0-.21-.11V5.47ZM67,7.48a.49.49,0,1,1-.49.49A.49.49,0,0,1,67,7.48Zm-23-2h1.42L46.6,9.05a1.17,1.17,0,0,0,.17.37.42.42,0,0,0,.22.11v.22H45.86L44.78,6.56h-.07c-.08.4-.18.83-.3,1.28s-.24.8-.33,1a2.79,2.79,0,0,1-.4.73.73.73,0,0,1-.53.22.53.53,0,0,1-.38-.13.4.4,0,0,1-.14-.32.45.45,0,0,1,.11-.28A.41.41,0,0,1,43,9h.07l.11,0,.2.08h0c.1,0,.19-.07.27-.23A6,6,0,0,0,44.05,8c.13-.42.23-.78.3-1.12a3.35,3.35,0,0,0,.12-.73.43.43,0,0,0-.11-.31.42.42,0,0,0-.28-.11H44V5.47Zm3.54,0H49v.22a.55.55,0,0,0-.25.13.42.42,0,0,0,0,.22V8.32h0l1.91-2V6a.34.34,0,0,0-.08-.23.34.34,0,0,0-.22-.12V5.47h1.5v.22a.31.31,0,0,0-.22.11.3.3,0,0,0-.07.24V9.17a.36.36,0,0,0,.07.24.36.36,0,0,0,.22.11v.22h-1.5V9.52a.35.35,0,0,0,.22-.1.37.37,0,0,0,.08-.25V6.85h0l-1.9,2v.31a.36.36,0,0,0,.07.24.38.38,0,0,0,.23.11v.22H47.5V9.52a.33.33,0,0,0,.22-.11.36.36,0,0,0,.08-.24V6a.36.36,0,0,0-.08-.24.31.31,0,0,0-.21-.11V5.47Zm5,0h3a.44.44,0,0,0,.19,0,.18.18,0,0,0,.08-.09H56v1.1h-.22a1,1,0,0,0-.29-.51,1.16,1.16,0,0,0-.68-.15h-1V7.33h.67a.67.67,0,0,0,.39-.08.34.34,0,0,0,.12-.3h.22v1.1h-.22a.43.43,0,0,0-.12-.29.36.36,0,0,0-.27-.1h-.79V9.42h1.45a.91.91,0,0,0,.59-.21,1,1,0,0,0,.32-.55h.21V9.74H52.54V9.52a.3.3,0,0,0,.23-.11.53.53,0,0,0,.09-.3v-3a.43.43,0,0,0-.09-.29.34.34,0,0,0-.23-.11V5.47Zm6,0v.22a.36.36,0,0,0-.23.11.34.34,0,0,0-.07.24V7.38h2.1V6a.36.36,0,0,0-.08-.24A.31.31,0,0,0,60,5.69V5.47h1.5v.22a.32.32,0,0,0-.24.11.34.34,0,0,0-.06.24V9.17a.32.32,0,0,0,.06.22.47.47,0,0,0,.24.13v.22H60V9.52a.49.49,0,0,0,.24-.13.39.39,0,0,0,.06-.22V7.7h-2.1V9.17a.32.32,0,0,0,.06.23.39.39,0,0,0,.24.12v.22H57V9.52a.5.5,0,0,0,.23-.13.32.32,0,0,0,.06-.22V6a.36.36,0,0,0-.08-.24A.33.33,0,0,0,57,5.69V5.47Zm3.52-.12h.24a.37.37,0,0,0,.16.07l.23,0h2.75a.65.65,0,0,0,.2,0,.56.56,0,0,0,.19-.07h.23v1.1h-.21a1.25,1.25,0,0,0-.39-.52.84.84,0,0,0-.55-.17h-.39V9.17a.37.37,0,0,0,.06.23.42.42,0,0,0,.24.12v.22h-1.5V9.52a.44.44,0,0,0,.24-.13.39.39,0,0,0,.06-.22V5.76h-.33a1,1,0,0,0-1,.69h-.21V5.35Z"/><path d="M72.17,5.47v.22A.31.31,0,0,0,72,5.8a.34.34,0,0,0-.07.24V9.17a.43.43,0,0,0,.07.24.36.36,0,0,0,.22.11v.22h-1.5V9.52a.36.36,0,0,0,.22-.11A.36.36,0,0,0,71,9.17V5.79H69.18V9.17a.36.36,0,0,0,.08.24.39.39,0,0,0,.21.11v.22H68V9.52a.32.32,0,0,0,.22-.1.34.34,0,0,0,.08-.25V6a.31.31,0,0,0-.08-.24A.36.36,0,0,0,68,5.69V5.47Zm1.71,0h1.43l1.21,3.58a1.17,1.17,0,0,0,.17.37.42.42,0,0,0,.21.11v.22H75.78L74.7,6.56h-.07c-.09.4-.19.83-.31,1.28a8.76,8.76,0,0,1-.33,1,2.53,2.53,0,0,1-.4.73.73.73,0,0,1-.53.22.53.53,0,0,1-.38-.13.4.4,0,0,1-.14-.32.45.45,0,0,1,.11-.28A.41.41,0,0,1,72.94,9H73l.11,0,.2.08h.05c.09,0,.18-.07.26-.23A6.9,6.9,0,0,0,74,8c.13-.42.22-.78.3-1.12a3.89,3.89,0,0,0,.11-.73.48.48,0,0,0-.1-.31A.45.45,0,0,0,74,5.7h-.1V5.47Zm4.65,2h.74A2.36,2.36,0,0,1,79.93,6,1.91,1.91,0,0,1,81.4,5.4,2,2,0,0,1,82.92,6a2.2,2.2,0,0,1,.61,1.57,2.18,2.18,0,0,1-.61,1.56,2,2,0,0,1-1.52.64,2.14,2.14,0,0,1-1.48-.58,2,2,0,0,1-.65-1.46h-.75V9.18a.38.38,0,0,0,.07.24.38.38,0,0,0,.23.11v.22h-1.5V9.53a.33.33,0,0,0,.22-.11.36.36,0,0,0,.08-.24V6a.42.42,0,0,0-.08-.23.31.31,0,0,0-.22-.11V5.47h1.51v.22a.32.32,0,0,0-.23.12.29.29,0,0,0-.07.23V7.43ZM81.4,5.72a.93.93,0,0,0-.86.44,2.89,2.89,0,0,0-.27,1.46v.12a.71.71,0,0,0,0,.14,2.51,2.51,0,0,0,.27,1.21A1.09,1.09,0,0,0,82.28,9a2.93,2.93,0,0,0,.26-1.42,2.88,2.88,0,0,0-.28-1.46,1,1,0,0,0-.86-.44Zm6.09,3.11.18.24a3.34,3.34,0,0,1-.85.56A2.15,2.15,0,0,1,86,9.8a2,2,0,0,1-1.53-.64,2.24,2.24,0,0,1-.58-1.59A2.21,2.21,0,0,1,84.46,6a1.89,1.89,0,0,1,1.44-.61l.33,0,.34.07c.1,0,.18,0,.24.07a.45.45,0,0,0,.16,0H87a.18.18,0,0,0,.08,0s0,0,0,0l0,0h.21v1h-.21a1.09,1.09,0,0,0-.45-.53A1.19,1.19,0,0,0,86,5.71h-.11a.27.27,0,0,0-.12,0,1,1,0,0,0-.67.54,3.27,3.27,0,0,0-.19,1.35,2.07,2.07,0,0,0,.32,1.3,1.16,1.16,0,0,0,1,.41,1.58,1.58,0,0,0,.63-.13A2.47,2.47,0,0,0,87.49,8.83Z"/></g></g></svg>