<svg xmlns="http://www.w3.org/2000/svg" viewBox="0 0 99.74 58.36"><defs><style>.cls-1{fill:#416a7b;}.cls-2{fill:#2f0800;}</style></defs><title>Ресурс 1</title><g id="Слой_2" data-name="Слой 2"><g id="Слой_1-2" data-name="Слой 1"><g id="Page-1"><g id="logo-mobile"><path id="Shape" class="cls-1" d="M55.31,17.86C49.79,10.19,45-.47,33.4,0a17,17,0,0,0-12,4.81,16.08,16.08,0,0,0-4.9,11.65,16.3,16.3,0,0,0,5,11.67,17.31,17.31,0,0,0,23,1,5.92,5.92,0,0,0,.52-.42,6.19,6.19,0,0,0,.81-.81l.07-.08c.14-.16.28-.28.38-.4a.61.61,0,0,0,.07-.1l0,0a1.6,1.6,0,0,1,.43-.33A.34.34,0,0,1,47,26.9a.9.9,0,0,1,.33,0h.22l.62-.39-1.83-2.87-.62.4a3.75,3.75,0,0,1-.29,2.35c-.09.2-.21.41-.31.6l0,.05c-.1.1-.23.22-.35.36a16,16,0,0,1-3.38,2.52C27,37.05,12,18.81,21.9,6c2.5-3.24,7.19-4.88,11.51-4.86C49.21,1,49.67,26.58,66.09,26.62a10.52,10.52,0,0,0,7.38-3,9.89,9.89,0,0,0,3-7.19,10.06,10.06,0,0,0-3.1-7.2,10.69,10.69,0,0,0-7.41-3,10.52,10.52,0,0,0-7.38,3,.56.56,0,0,0,0,.81.57.57,0,0,0,.82,0A9.37,9.37,0,0,1,66,7.4a9.49,9.49,0,0,1,6.58,2.65,9,9,0,0,1,2.76,6.4,8.8,8.8,0,0,1-2.69,6.39c-.24.23-.48.45-.74.66V15.62l-5.55-3.57-5.47,3.59v8.17A18,18,0,0,1,55.31,17.86Zm4.21-2.41a.51.51,0,0,1-.59-.18.47.47,0,0,1,.12-.65l7-4.69.26-.17.26.17,2.92,2,0-1.44h2.36l0,3,1.74,1.17a.49.49,0,0,1,.14.66.46.46,0,0,1-.57.17l-.07-.05-.88-.57-.35-.22L69.47,13,66.28,10.9l-5.87,3.93-.88.57S59.55,15.43,59.52,15.45ZM67,15.6h1.33a.39.39,0,0,1,.38.38v1.33a.36.36,0,0,1-.36.36H67a.39.39,0,0,1-.38-.38V16A.36.36,0,0,1,67,15.6Zm-2.48,0h1.32a.38.38,0,0,1,.38.38l0,1.33a.36.36,0,0,1-.36.36H64.5a.38.38,0,0,1-.38-.38l0-1.33A.35.35,0,0,1,64.47,15.6Zm0,2.43h1.32a.39.39,0,0,1,.38.38l0,1.33a.36.36,0,0,1-.36.36H64.5a.38.38,0,0,1-.38-.38l0-1.32A.39.39,0,0,1,64.47,18Zm2.5,0h1.32a.38.38,0,0,1,.38.38l0,1.33a.36.36,0,0,1-.36.36H67a.38.38,0,0,1-.38-.38l0-1.33A.36.36,0,0,1,67,18.05Z"/><path id="Shape-2" data-name="Shape" class="cls-2" d="M65.28,33.1c.27,0,.55,0,.84,0A16.81,16.81,0,0,0,78,28.21a16.31,16.31,0,0,0-.12-23.35A17,17,0,0,0,55.1,4a4.35,4.35,0,0,0-.51.41,7.74,7.74,0,0,0-.81.81l-.07.09a4.79,4.79,0,0,1-.38.39.34.34,0,0,0-.07.11h0a1.46,1.46,0,0,1-.43.33.34.34,0,0,1-.17.09h-.43a.22.22,0,0,0-.11,0l-.6.4L53.31,9.5l.6-.4a3.73,3.73,0,0,1,.3-2.34,3.5,3.5,0,0,1,.31-.61l0-.05c.1-.1.22-.22.34-.36a15.46,15.46,0,0,1,3.35-2.53C72.47-4,87.33,14.15,77.53,27a12.06,12.06,0,0,1-5.31,3.79v0a11.5,11.5,0,0,1-1.12.4,13,13,0,0,1-1.49.38A17.52,17.52,0,0,1,66,31.9a16,16,0,0,1-11-4.49,128.67,128.67,0,0,1-9.53-12.07c-1-1.39-2-2.77-3-4.07l0,0c-.11-.17-.23-.34-.35-.5a10.77,10.77,0,0,0-1.2-1.41,10.61,10.61,0,0,0-7.37-3,10.22,10.22,0,0,0-7.29,3,9.93,9.93,0,0,0-3,7.17,10.24,10.24,0,0,0,3.1,7.21,10.59,10.59,0,0,0,7.36,3A10.24,10.24,0,0,0,41,23.76c.18-.18.35-.35.52-.54a6.28,6.28,0,0,0,.47-.58.56.56,0,0,0-.12-.8.59.59,0,0,0-.81.12l-.42.52c-.14.16-.29.31-.45.48a9.14,9.14,0,0,1-6.48,2.62,9.33,9.33,0,0,1-6.53-2.67,9,9,0,0,1-2.76-6.39,8.81,8.81,0,0,1,2.62-6.38c.24-.24.52-.47.77-.69V19.86L33,23.24V15.76h-.27a.37.37,0,0,1-.37-.36V14.07a.37.37,0,0,1,.37-.36H34a.37.37,0,0,1,.37.36V15.4a.38.38,0,0,1-.38.36h-.35v7.48l5.23-3.36V9.33a20.79,20.79,0,0,1,4.91,5.74l.71,1A128.26,128.26,0,0,0,54,28l.1.14.22.23h0a17.13,17.13,0,0,0,10.93,4.64Z"/><path id="Shape-3" data-name="Shape" class="cls-1" d="M19.07,55a1.77,1.77,0,0,0-.48,0,.78.78,0,0,0-.38.2,1.16,1.16,0,0,0-.26.4,1.87,1.87,0,0,0-.12.64h-.71V55.08h-.6v3.21h.6V56.88h.71a3.17,3.17,0,0,0,.1.7,1.59,1.59,0,0,0,.24.47.85.85,0,0,0,.38.24,1.59,1.59,0,0,0,.5.07,1.81,1.81,0,0,0,.43,0,1,1,0,0,0,.35-.17,1.3,1.3,0,0,0,.26-.31,1.66,1.66,0,0,0,.15-.49,4.65,4.65,0,0,0,0-1.36,1.31,1.31,0,0,0-.15-.46,1,1,0,0,0-.26-.3,1,1,0,0,0-.35-.15A1.24,1.24,0,0,0,19.07,55Zm0,2.79a.47.47,0,0,1-.24,0,.3.3,0,0,1-.17-.1.54.54,0,0,1-.13-.21,1.3,1.3,0,0,1-.06-.32,3.62,3.62,0,0,1,0-.49,3.33,3.33,0,0,1,0-.48,1.3,1.3,0,0,1,.06-.33.64.64,0,0,1,.13-.19.45.45,0,0,1,.17-.08.9.9,0,0,1,.24,0,.86.86,0,0,1,.24,0,.37.37,0,0,1,.29.27,1,1,0,0,1,.07.33,5.89,5.89,0,0,1,0,1,.89.89,0,0,1-.07.32.53.53,0,0,1-.12.21.3.3,0,0,1-.17.1A.7.7,0,0,1,19.07,57.81Zm3.29-1.09V55.6h.9a.3.3,0,0,1,.27.14.74.74,0,0,1,.11.43.67.67,0,0,1-.11.41.34.34,0,0,1-.29.14Zm0,1.57v-1h1.07a.83.83,0,0,0,.67-.31,1.26,1.26,0,0,0,.16-.33,1.67,1.67,0,0,0,0-.39,2,2,0,0,0,0-.44,1.19,1.19,0,0,0-.16-.34.59.59,0,0,0-.27-.22.94.94,0,0,0-.43-.09H21.72v3.21h.64Zm6-3.21h-.72c-.23.4-.45.82-.69,1.21s-.49.81-.73,1.21V55.08h-.6v3.21h.79c.16-.24.31-.5.47-.76s.31-.51.44-.77.3-.52.44-.78v2.31h.58V55.08Zm1.45,1.57a3.43,3.43,0,0,0,.05.68,1.6,1.6,0,0,0,.17.48.87.87,0,0,0,.29.31,1,1,0,0,0,.42.17,2.24,2.24,0,0,0,.55.05h.47l.24,0,.2,0-.13-.53a.58.58,0,0,1-.14,0,1,1,0,0,1-.17,0,.62.62,0,0,1-.19,0h-.18a2.06,2.06,0,0,1-.36,0,1.07,1.07,0,0,1-.27-.08.69.69,0,0,1-.19-.19.76.76,0,0,1-.11-.33c0-.14,0-.29,0-.5s0-.36,0-.5a.76.76,0,0,1,.11-.33.57.57,0,0,1,.19-.19.86.86,0,0,1,.27-.08,2.06,2.06,0,0,1,.36,0h.18l.19,0a.47.47,0,0,1,.17,0,.43.43,0,0,0,.14,0l.13-.54-.2-.05a.93.93,0,0,0-.24,0,1.06,1.06,0,0,0-.25,0l-.22,0a3,3,0,0,0-.55.05,1.75,1.75,0,0,0-.42.16.81.81,0,0,0-.29.29,1.18,1.18,0,0,0-.17.47A3.91,3.91,0,0,0,29.83,56.65Zm5,1.64V55.62h1.09V55.1H33.1v.52h1.09v2.67Zm2.9-.52V56.72h1a.26.26,0,0,1,.25.14.64.64,0,0,1,.09.4.67.67,0,0,1-.09.38.27.27,0,0,1-.25.13Zm-.6-2.69v3.21h1.74a.74.74,0,0,0,.46-.12,1,1,0,0,0,.28-.34,1.88,1.88,0,0,0,.09-.56,1.51,1.51,0,0,0-.06-.41.91.91,0,0,0-.15-.33.92.92,0,0,0-.26-.22.91.91,0,0,0-.4-.09H37.67V55.08Zm2.88,0v3.21h.6V55.08Zm7.65,1.38H47a1.57,1.57,0,0,1-.05.37,2.37,2.37,0,0,1-.14.32,3.25,3.25,0,0,0-.3-.32,1,1,0,0,0-.25-.19.52.52,0,0,0-.21-.07,1.19,1.19,0,0,0,.36-.09.66.66,0,0,0,.23-.15,1.24,1.24,0,0,0,.12-.23,2.36,2.36,0,0,0,0-.29,1.25,1.25,0,0,0-.05-.36.55.55,0,0,0-.19-.26.74.74,0,0,0-.35-.14,2.44,2.44,0,0,0-.53,0,2.5,2.5,0,0,0-.53,0,.87.87,0,0,0-.35.16.44.44,0,0,0-.17.25,1.07,1.07,0,0,0,0,.37,2.71,2.71,0,0,0,0,.29.77.77,0,0,0,.09.22.43.43,0,0,0,.19.16,1.42,1.42,0,0,0,.34.08,1.41,1.41,0,0,0-.5.13.59.59,0,0,0-.27.29,1.07,1.07,0,0,0-.09.41,1.11,1.11,0,0,0,.07.43.67.67,0,0,0,.21.28,1,1,0,0,0,.38.15,2.2,2.2,0,0,0,.55.06,1.83,1.83,0,0,0,.34,0l.31-.07a1.69,1.69,0,0,0,.28-.12l.28-.17a1.1,1.1,0,0,0,.12.17.88.88,0,0,0,.12.17h.69l-.26-.38-.24-.33a2,2,0,0,0,.32-.53A1.92,1.92,0,0,0,47.62,56.46Zm-2,1.4a1.13,1.13,0,0,1-.35,0,.38.38,0,0,1-.17-.16.76.76,0,0,1,0-.29.5.5,0,0,1,.07-.29.32.32,0,0,1,.19-.17.81.81,0,0,1,.33-.06.66.66,0,0,1,.27.09,1.2,1.2,0,0,1,.28.24,3.35,3.35,0,0,1,.31.38l-.21.16-.21.1-.22,0Zm.09-1.48a.67.67,0,0,1-.28-.05.56.56,0,0,1-.16-.14.67.67,0,0,1,0-.26.51.51,0,0,1,0-.24.28.28,0,0,1,.16-.12,1.06,1.06,0,0,1,.29,0,1.28,1.28,0,0,1,.3,0,.26.26,0,0,1,.15.12.45.45,0,0,1,.05.24.38.38,0,0,1-.07.26.26.26,0,0,1-.17.14A.65.65,0,0,1,45.66,56.38Zm6.31.34V55.6h.89a.31.31,0,0,1,.28.14.74.74,0,0,1,.1.43.67.67,0,0,1-.1.41.36.36,0,0,1-.3.14Zm0,1.57v-1H53a.79.79,0,0,0,.4-.09.85.85,0,0,0,.28-.22,1,1,0,0,0,.15-.33,1.27,1.27,0,0,0,0-.39,1.52,1.52,0,0,0,0-.44,1,1,0,0,0-.15-.34.62.62,0,0,0-.28-.22.94.94,0,0,0-.43-.09H51.33v3.21H52Zm6-3.21h-.72c-.23.4-.45.82-.69,1.21s-.48.81-.73,1.21V55.08h-.6v3.21H56c.16-.24.31-.5.47-.76s.31-.51.45-.77.29-.52.43-.78v2.31H58V55.08Zm3.12,1.78a1.18,1.18,0,0,1-.05.4,1,1,0,0,1-.12.27.58.58,0,0,1-.19.16.8.8,0,0,1-.26.08,1.72,1.72,0,0,1-.34,0H60l-.19,0a.63.63,0,0,1-.19,0l-.16,0-.14.53.21,0a.93.93,0,0,0,.24,0h.5a2.34,2.34,0,0,0,.55-.05,1,1,0,0,0,.43-.17,1.3,1.3,0,0,0,.31-.31,1.6,1.6,0,0,0,.19-.48,3.31,3.31,0,0,0,.07-.68,2.3,2.3,0,0,0-.07-.67,1,1,0,0,0-.19-.46,1,1,0,0,0-.31-.3,1.21,1.21,0,0,0-.43-.15,2.24,2.24,0,0,0-.55,0H60l-.26,0a2.24,2.24,0,0,1-.24,0l-.21.06.14.53a.35.35,0,0,1,.16,0l.19,0a.62.62,0,0,1,.19,0h.17a1.77,1.77,0,0,1,.33,0,1.09,1.09,0,0,1,.25.07A.56.56,0,0,1,61,56a1.08,1.08,0,0,1,.07.35H59.74v.52H61.1Zm4-1.24v2.67h.6V55.08H63.59a10,10,0,0,1-.12,1.14c-.07.36-.14.73-.23,1.07s-.19.67-.29,1h.64c.07-.22.15-.45.2-.67s.12-.47.18-.69.08-.45.12-.67,0-.43.07-.64Zm3.5,2.67V55.62h1.08V55.1H67v.52H68v2.67ZM72.29,55a2.39,2.39,0,0,0-.55,0,1.46,1.46,0,0,0-.43.15,1.1,1.1,0,0,0-.31.3,1.3,1.3,0,0,0-.19.46,4.18,4.18,0,0,0-.07.67,2.82,2.82,0,0,0,.07.69,1.14,1.14,0,0,0,.19.49,1,1,0,0,0,.31.31,1.54,1.54,0,0,0,.43.17,3.05,3.05,0,0,0,1.1,0,1.44,1.44,0,0,0,.44-.17,1,1,0,0,0,.31-.31,2.51,2.51,0,0,0,.19-.49,4.21,4.21,0,0,0,.06-.69,2.73,2.73,0,0,0-.06-.67,1.3,1.3,0,0,0-.19-.46,1.1,1.1,0,0,0-.31-.3,1.26,1.26,0,0,0-.44-.15A2.34,2.34,0,0,0,72.29,55Zm0,2.79a1,1,0,0,1-.36,0,.55.55,0,0,1-.26-.1.45.45,0,0,1-.15-.19,1.1,1.1,0,0,1-.09-.33,3.4,3.4,0,0,1,0-.48,3.33,3.33,0,0,1,0-.48,1.2,1.2,0,0,1,.09-.33.36.36,0,0,1,.15-.19.67.67,0,0,1,.26-.09h.73a1.2,1.2,0,0,1,.25.09.43.43,0,0,1,.16.19,1.7,1.7,0,0,1,.09.33c0,.14,0,.29,0,.48s0,.36,0,.48a1.52,1.52,0,0,1-.09.33.34.34,0,0,1-.16.19.51.51,0,0,1-.25.1A2,2,0,0,1,72.29,57.81Zm3.57-1.09V55.6h.9a.3.3,0,0,1,.27.14.74.74,0,0,1,.11.43.67.67,0,0,1-.11.41.34.34,0,0,1-.29.14Zm0,1.57v-1h1.07a.83.83,0,0,0,.67-.31,1.26,1.26,0,0,0,.16-.33,1.67,1.67,0,0,0,0-.39,2,2,0,0,0,0-.44,1.19,1.19,0,0,0-.16-.34.59.59,0,0,0-.27-.22.94.94,0,0,0-.43-.09H75.22v3.21h.64Zm3.88-.52V56.72h1a.29.29,0,0,1,.26.14.73.73,0,0,1,.08.4.77.77,0,0,1-.08.38.3.3,0,0,1-.26.13Zm-.6-2.69v3.21h1.74a.74.74,0,0,0,.46-.12.91.91,0,0,0,.28-.34,1.88,1.88,0,0,0,.09-.56,2,2,0,0,0,0-.41,1.13,1.13,0,0,0-.16-.33.92.92,0,0,0-.26-.22.91.91,0,0,0-.4-.09H79.72V55.08Zm2.88,0v3.21h.6V55.08Z"/><path id="Shape-4" data-name="Shape" class="cls-2" d="M0,40.84H3v.45a.7.7,0,0,0-.45.24.66.66,0,0,0-.14.47v2.21a1.79,1.79,0,0,0,1.16-.33,2.77,2.77,0,0,0,.79-1.14,4.47,4.47,0,0,1,.95-1.67,1.79,1.79,0,0,1,1.16-.36,2.73,2.73,0,0,1,.41,0,1.58,1.58,0,0,1,.36.09v2H6.81a.46.46,0,0,0-.21-.31.53.53,0,0,0-.32-.1.55.55,0,0,0-.37.12,1.57,1.57,0,0,0-.38.39,7.76,7.76,0,0,1-1.1,1.28,2.58,2.58,0,0,1-.64.33v.08a5.27,5.27,0,0,1,.64.14,3.72,3.72,0,0,1,.59.19,2.12,2.12,0,0,1,.91.72,4.69,4.69,0,0,1,.59,1.43c.12.54.19.85.22.92a.48.48,0,0,0,.09.19,1.45,1.45,0,0,0,.45.57,1.17,1.17,0,0,0,.63.24v.48l-.46.14a2.7,2.7,0,0,1-.48.05,2.64,2.64,0,0,1-1.19-.26,1.79,1.79,0,0,1-.8-.74,1.09,1.09,0,0,1-.17-.34,10.66,10.66,0,0,1-.24-1.09A6.25,6.25,0,0,0,4.21,46a2.19,2.19,0,0,0-.49-.66,1.87,1.87,0,0,0-.6-.34,1.47,1.47,0,0,0-.69-.1v3.48a.78.78,0,0,0,.14.48.67.67,0,0,0,.45.22v.45H0v-.45a.65.65,0,0,0,.45-.22.73.73,0,0,0,.15-.48V42a.88.88,0,0,0-.15-.48A.71.71,0,0,0,0,41.33v-.49Zm57.86,4.07a1,1,0,1,1-1,1A1,1,0,0,1,57.86,44.91ZM11.53,40.84H14.4l2.43,7.26a2.34,2.34,0,0,0,.34.74.81.81,0,0,0,.43.23v.45H15.34l-2.17-6.47H13c-.17.81-.37,1.69-.62,2.6a20.2,20.2,0,0,1-.65,2.11A5,5,0,0,1,11,49.22a1.4,1.4,0,0,1-1.07.45,1,1,0,0,1-.76-.26.81.81,0,0,1-.28-.64.8.8,0,0,1,.23-.56A.73.73,0,0,1,9.64,48a.39.39,0,0,1,.15,0l.21.07.41.17h.09c.19,0,.38-.15.53-.46a14.81,14.81,0,0,0,.68-1.85c.26-.84.45-1.58.6-2.26a6.54,6.54,0,0,0,.22-1.48.84.84,0,0,0-.2-.62.78.78,0,0,0-.57-.22h-.21v-.49Zm7.13,0h3v.45a1.14,1.14,0,0,0-.5.28.7.7,0,0,0-.1.43v4.62h.05l3.83-4V42a.67.67,0,0,0-.16-.47.79.79,0,0,0-.45-.24v-.45h3v.45a.78.78,0,0,0-.45.23.7.7,0,0,0-.13.48v6.34a.86.86,0,0,0,.13.49.71.71,0,0,0,.45.22v.45h-3v-.45a.71.71,0,0,0,.45-.21.68.68,0,0,0,.16-.5v-4.7h-.07l-3.83,4.07v.63a.77.77,0,0,0,.14.49.72.72,0,0,0,.47.22v.45h-3v-.45a.69.69,0,0,0,.45-.22.74.74,0,0,0,.15-.49V42a.88.88,0,0,0-.15-.48.78.78,0,0,0-.43-.23Zm10.1,0h6a.85.85,0,0,0,.38-.05.29.29,0,0,0,.17-.17h.31v2.21h-.43a2,2,0,0,0-.59-1,2.23,2.23,0,0,0-1.36-.31h-2v3.12h1.35a1.38,1.38,0,0,0,.79-.17.7.7,0,0,0,.24-.61H34v2.23H33.6a.84.84,0,0,0-.24-.59.74.74,0,0,0-.55-.19H31.22v3.55h2.92a1.75,1.75,0,0,0,1.19-.43,1.82,1.82,0,0,0,.64-1.1h.43V49.5H28.78v-.45a.63.63,0,0,0,.46-.22,1,1,0,0,0,.17-.61V42.1a.89.89,0,0,0-.17-.58.78.78,0,0,0-.46-.23v-.45Zm12.05,0v.45a.73.73,0,0,0-.45.23.71.71,0,0,0-.15.48v2.72h4.22V42a.74.74,0,0,0-.15-.48.78.78,0,0,0-.45-.23v-.45h3v.45a.7.7,0,0,0-.46.23.71.71,0,0,0-.14.48l0,6.34a.73.73,0,0,0,.1.45,1.19,1.19,0,0,0,.48.26v.45h-3v-.45a.93.93,0,0,0,.48-.26.71.71,0,0,0,.12-.45v-3H40.21v3a.7.7,0,0,0,.12.47.9.9,0,0,0,.48.24v.45h-3v-.45a.94.94,0,0,0,.47-.26.66.66,0,0,0,.12-.45V42a.7.7,0,0,0-.16-.48.75.75,0,0,0-.43-.23v-.45Zm7.09-.22h.48a1.36,1.36,0,0,0,.33.14c.12,0,.26,0,.45,0h5.53a1.76,1.76,0,0,0,.41,0,2.57,2.57,0,0,0,.38-.14H56v2.22h-.43a2.72,2.72,0,0,0-.78-1.05,1.72,1.72,0,0,0-1.1-.34h-.8v6.89a.69.69,0,0,0,.13.47.86.86,0,0,0,.48.24v.45h-3v-.45a.89.89,0,0,0,.48-.26.71.71,0,0,0,.12-.45V41.45h-.67a1.91,1.91,0,0,0-2,1.39h-.43V40.62Z"/><path id="Shape-5" data-name="Shape" class="cls-1" d="M68.62,40.84v.45a.75.75,0,0,0-.45.23A.71.71,0,0,0,68,42v6.34a.86.86,0,0,0,.14.49.69.69,0,0,0,.45.22v.45h-3v-.45a.67.67,0,0,0,.45-.22.69.69,0,0,0,.16-.49V41.5H62.62v6.84a.65.65,0,0,0,.59.71v.45h-3v-.45a.66.66,0,0,0,.43-.21.68.68,0,0,0,.17-.5V42a.63.63,0,0,0-.17-.48.86.86,0,0,0-.43-.23v-.45Zm3.43,0h2.86l2.43,7.26a2.54,2.54,0,0,0,.35.74.78.78,0,0,0,.43.23v.45H75.86l-2.17-6.47h-.14c-.17.81-.38,1.69-.62,2.6a20.2,20.2,0,0,1-.65,2.11,5,5,0,0,1-.81,1.46,1.4,1.4,0,0,1-1.07.45,1,1,0,0,1-.76-.26.81.81,0,0,1-.28-.64.8.8,0,0,1,.23-.56.7.7,0,0,1,.57-.25.39.39,0,0,1,.15,0l.21.07.41.17H71c.19,0,.38-.15.53-.46a13.71,13.71,0,0,0,.67-1.85c.26-.84.45-1.58.61-2.26a7.17,7.17,0,0,0,.22-1.48.85.85,0,0,0-.21-.62.74.74,0,0,0-.56-.22h-.21v-.49Zm9.33,4h1.48a4.83,4.83,0,0,1,1.33-2.95,3.86,3.86,0,0,1,3-1.17,4,4,0,0,1,3,1.31,4.7,4.7,0,0,1,0,6.32,4,4,0,0,1-3,1.3,4.25,4.25,0,0,1-3-1.18,4.08,4.08,0,0,1-1.31-3h-1.5v2.86a.74.74,0,0,0,.14.48.78.78,0,0,0,.47.23v.45H79v-.45a.65.65,0,0,0,.6-.71V42a.92.92,0,0,0-.15-.49.69.69,0,0,0-.43-.22v-.47h3v.45a.78.78,0,0,0-.46.24.66.66,0,0,0-.14.47Zm5.76-3.47a1.87,1.87,0,0,0-1.73.88,6,6,0,0,0-.53,3v.24a1.32,1.32,0,0,0,0,.27,5,5,0,0,0,.55,2.47,2.2,2.2,0,0,0,3.46-.11,5.93,5.93,0,0,0,.52-2.87,6,6,0,0,0-.55-3A1.91,1.91,0,0,0,87.14,41.36Zm12.22,6.29.38.49A6.72,6.72,0,0,1,98,49.27a4.1,4.1,0,0,1-1.64.35,4,4,0,0,1-3.07-1.29,4.63,4.63,0,0,1-1.17-3.23,4.46,4.46,0,0,1,1.15-3.17,3.78,3.78,0,0,1,2.88-1.24,4.57,4.57,0,0,1,.67.05,4.85,4.85,0,0,1,.68.14c.2.07.36.1.48.14a1.23,1.23,0,0,0,.33,0h.12a.48.48,0,0,0,.15-.11.09.09,0,0,0,.06,0l0-.05h.43v2h-.43a2.34,2.34,0,0,0-.9-1.09,2.5,2.5,0,0,0-1.43-.43l-.22,0a.85.85,0,0,0-.25,0,2,2,0,0,0-1.34,1.11,6.58,6.58,0,0,0-.38,2.72,4.31,4.31,0,0,0,.64,2.64,2.32,2.32,0,0,0,2,.83,3.34,3.34,0,0,0,1.26-.26A4.73,4.73,0,0,0,99.36,47.65Z"/></g></g></g></g></svg>