<?xml version="1.0" encoding="UTF-8"?>
<svg width="100px" height="59px" viewBox="0 0 100 59" version="1.1" xmlns="http://www.w3.org/2000/svg" xmlns:xlink="http://www.w3.org/1999/xlink">
    <!-- Generator: Sketch 51 (57462) - http://www.bohemiancoding.com/sketch -->
    <title>logo-mobile</title>
    <desc>Created with Sketch.</desc>
    <defs></defs>
    <g id="Page-1" stroke="none" stroke-width="1" fill="none" fill-rule="evenodd">
        <g id="logo-mobile">
            <path d="M55.4310345,17.8793103 C49.9137931,10.2068966 45.137931,-0.448275862 33.5172414,0.0344827586 C29.1724138,0.0344827586 24.8448276,1.62068966 21.5517241,4.84482759 C18.2586207,8.06896552 16.6206897,12.2758621 16.6551724,16.5 C16.6724138,20.7241379 18.362069,24.9482759 21.6896552,28.1724138 C25.0172414,31.3965517 29.362069,33.0172414 33.7068966,33.0344828 C37.6034483,33.0344828 41.5172414,31.7413793 44.6551724,29.1551724 C44.8448276,29.0172414 45.0172414,28.8793103 45.1724138,28.7413793 C45.4482759,28.5172414 45.7068966,28.2413793 45.9827586,27.9310345 L46.0517241,27.8448276 C46.1896552,27.6896552 46.3275862,27.5689655 46.4310345,27.4482759 C46.4655172,27.4137931 46.4827586,27.3793103 46.5,27.3448276 L46.5172414,27.3275862 C46.6551724,27.1896552 46.8103448,27.0689655 46.9482759,27 C46.9827586,26.9655172 47.0517241,26.9310345 47.1206897,26.9137931 C47.2068966,26.8965517 47.3103448,26.8965517 47.4482759,26.9137931 C47.4827586,26.9137931 47.5172414,26.9137931 47.5517241,26.9137931 C47.5862069,26.9310345 47.6206897,26.9310345 47.6724138,26.9310345 L48.2931034,26.5344828 L46.4655172,23.6724138 L45.8448276,24.0689655 C46,24.8275862 45.9137931,25.6206897 45.5517241,26.4137931 C45.4655172,26.6206897 45.3448276,26.8275862 45.2413793,27.0172414 L45.1896552,27.0689655 C45.0862069,27.1724138 44.9655172,27.2931034 44.8448276,27.4310345 C43.8103448,28.4310345 42.6724138,29.2758621 41.4655172,29.9482759 C27.1206897,37.0689655 12.137931,18.8275862 22.0172414,6.05172414 C24.5172414,2.81034483 29.2068966,1.17241379 33.5344828,1.18965517 C49.3275862,1.03448276 49.7931034,26.6034483 66.2068966,26.637931 C68.8793103,26.637931 71.5517241,25.6551724 73.5862069,23.6724138 C75.6206897,21.6896552 76.6206897,19.0862069 76.6034483,16.4827586 C76.5862069,13.8793103 75.5517241,11.2586207 73.5,9.27586207 C71.4482759,7.29310345 68.7586207,6.29310345 66.0862069,6.27586207 C63.4137931,6.27586207 60.7413793,7.25862069 58.7068966,9.24137931 C58.4827586,9.46551724 58.4827586,9.82758621 58.7068966,10.0517241 C58.9310345,10.2758621 59.3103448,10.2758621 59.5344828,10.0517241 C61.3448276,8.29310345 63.7068966,7.4137931 66.0862069,7.4137931 C68.4655172,7.4137931 70.8448276,8.31034483 72.6724138,10.0689655 C74.5,11.8448276 75.4137931,14.1551724 75.4310345,16.4655172 C75.4482759,18.7758621 74.5517241,21.0862069 72.7413793,22.862069 C72.5,23.0862069 72.2586207,23.3103448 72,23.5172414 L72,15.637931 L66.4482759,12.0689655 L60.9827586,15.6551724 L60.9827586,23.8275862 C58.9137931,22.5344828 57.0689655,20.5172414 55.4310345,17.8793103 Z M59.637931,15.4655172 C59.4310345,15.5517241 59.1896552,15.4827586 59.0517241,15.2931034 C58.9137931,15.0689655 58.9655172,14.7931034 59.1724138,14.637931 L66.1551724,9.94827586 L66.4137931,9.77586207 L66.6724138,9.94827586 L69.5862069,11.9137931 L69.5689655,10.4827586 L71.9310345,10.4827586 L71.9482759,13.5 L73.6896552,14.6724138 C73.9137931,14.8103448 73.9655172,15.1034483 73.8275862,15.3275862 C73.7068966,15.5172414 73.4482759,15.5862069 73.2586207,15.5 C73.2413793,15.4827586 73.2241379,15.4655172 73.1896552,15.4482759 L72.3103448,14.8793103 L71.9655172,14.6551724 L69.5862069,13.0517241 L66.3965517,10.9137931 L60.5344828,14.8448276 L59.6551724,15.4137931 C59.6896552,15.4310345 59.6724138,15.4482759 59.637931,15.4655172 Z M67.0689655,15.6206897 L68.3965517,15.6206897 C68.6034483,15.6206897 68.7758621,15.7931034 68.7758621,16 L68.7931034,17.3275862 C68.7931034,17.5344828 68.6206897,17.6896552 68.4310345,17.6896552 L67.1034483,17.6896552 C66.8965517,17.6896552 66.7241379,17.5172414 66.7241379,17.3103448 L66.7068966,15.9827586 C66.7068966,15.7931034 66.862069,15.6206897 67.0689655,15.6206897 Z M64.5862069,15.6206897 L65.9137931,15.6206897 C66.1206897,15.6206897 66.2931034,15.7931034 66.2931034,16 L66.3103448,17.3275862 C66.3103448,17.5344828 66.137931,17.6896552 65.9482759,17.6896552 L64.6206897,17.6896552 C64.4137931,17.6896552 64.2413793,17.5172414 64.2413793,17.3103448 L64.2241379,15.9827586 C64.2068966,15.7758621 64.3793103,15.6206897 64.5862069,15.6206897 Z M64.5862069,18.0517241 L65.9137931,18.0517241 C66.1206897,18.0517241 66.2931034,18.2241379 66.2931034,18.4310345 L66.3103448,19.7586207 C66.3103448,19.9655172 66.137931,20.1206897 65.9482759,20.1206897 L64.6206897,20.1206897 C64.4137931,20.1206897 64.2413793,19.9482759 64.2413793,19.7413793 L64.2241379,18.4137931 C64.2241379,18.2241379 64.3965517,18.0517241 64.5862069,18.0517241 Z M67.0862069,18.0689655 L68.4137931,18.0689655 C68.6206897,18.0689655 68.7931034,18.2413793 68.7931034,18.4482759 L68.8103448,19.7758621 C68.8103448,19.9827586 68.637931,20.137931 68.4482759,20.137931 L67.1206897,20.137931 C66.9137931,20.137931 66.7413793,19.9655172 66.7413793,19.7586207 L66.7241379,18.4310345 C66.7241379,18.2241379 66.8793103,18.0689655 67.0862069,18.0689655 Z" id="Shape" fill="#416A7B"></path>
            <path d="M65.3965517,33.1206897 C65.6724138,33.1206897 65.9482759,33.1206897 66.2413793,33.1034483 C70.5517241,33.0862069 74.8448276,31.4655172 78.1034483,28.2241379 C81.362069,24.9827586 82.9827586,20.7586207 82.9655172,16.5344828 C82.9482759,12.3103448 81.2758621,8.0862069 77.9827586,4.87931034 C74.6896552,1.67241379 70.3793103,0.0689655172 66.0689655,0.0862068966 C62.2068966,0.103448276 58.3448276,1.4137931 55.2241379,4.03448276 C55.0344828,4.17241379 54.862069,4.31034483 54.7068966,4.44827586 C54.4310345,4.68965517 54.1724138,4.94827586 53.8965517,5.25862069 L53.8275862,5.34482759 C53.6896552,5.5 53.5689655,5.63793103 53.4482759,5.74137931 C53.4137931,5.77586207 53.3965517,5.81034483 53.3793103,5.84482759 L53.362069,5.86206897 C53.2241379,6 53.0862069,6.12068966 52.9310345,6.18965517 C52.8965517,6.22413793 52.8275862,6.25862069 52.7586207,6.27586207 C52.6724138,6.29310345 52.5689655,6.29310345 52.4310345,6.27586207 C52.3965517,6.27586207 52.362069,6.27586207 52.3275862,6.27586207 C52.2931034,6.25862069 52.2586207,6.25862069 52.2241379,6.25862069 L51.6206897,6.65517241 L53.4310345,9.51724138 L54.0344828,9.12068966 C53.8793103,8.36206897 53.9655172,7.5862069 54.3275862,6.77586207 C54.4137931,6.56896552 54.5172414,6.36206897 54.637931,6.17241379 L54.6896552,6.12068966 C54.7931034,6.01724138 54.9137931,5.89655172 55.0344828,5.75862069 C56.0517241,4.74137931 57.1896552,3.89655172 58.3793103,3.22413793 C72.5862069,-3.98275862 87.4482759,14.1724138 77.6551724,27.0172414 C76.362069,28.7241379 74.4655172,29.9827586 72.3448276,30.8103448 L72.3275862,30.7931034 C71.9655172,30.9482759 71.5862069,31.0689655 71.2068966,31.1896552 C70.7241379,31.3448276 70.2241379,31.4655172 69.7241379,31.5689655 C68.5344828,31.8103448 67.3103448,31.9310345 66.137931,31.9137931 C62.1724138,31.8965517 58.1724138,30.3965517 55.1034483,27.4310345 C51.7931034,23.8965517 48.6206897,19.5517241 45.5689655,15.362069 C44.5517241,13.9655172 43.5517241,12.5862069 42.5862069,11.2931034 L42.5689655,11.3103448 C42.4655172,11.137931 42.3448276,10.9655172 42.2241379,10.8103448 C41.862069,10.3103448 41.4655172,9.82758621 41.0172414,9.39655172 C38.9827586,7.39655172 36.3103448,6.39655172 33.6551724,6.37931034 C31,6.36206897 28.362069,7.34482759 26.362069,9.32758621 C24.362069,11.3103448 23.3793103,13.8965517 23.3965517,16.5 C23.4310345,19.1034483 24.4655172,21.7068966 26.5,23.7068966 C28.5344828,25.7068966 31.2068966,26.7068966 33.862069,26.7241379 C36.5172414,26.7413793 39.1551724,25.7586207 41.1551724,23.7758621 C41.3275862,23.6034483 41.5,23.4310345 41.6724138,23.2413793 C41.8448276,23.0517241 42,22.862069 42.137931,22.6551724 C42.3275862,22.3965517 42.2758621,22.0517241 42.0172414,21.862069 C41.7586207,21.6724138 41.3965517,21.7241379 41.2068966,21.9827586 C41.0689655,22.1551724 40.9310345,22.3275862 40.7931034,22.5 C40.6551724,22.6551724 40.5,22.8103448 40.3448276,22.9827586 C38.5689655,24.7413793 36.2241379,25.6034483 33.862069,25.6034483 C31.5,25.5862069 29.137931,24.7068966 27.3275862,22.9310345 C25.5172414,21.1551724 24.5862069,18.8448276 24.5689655,16.5344828 C24.5517241,14.2241379 25.4137931,11.9137931 27.1896552,10.1551724 C27.4310345,9.9137931 27.7068966,9.68965517 27.9655172,9.46551724 L27.9655172,19.8793103 L33.1034483,23.2586207 L33.1034483,15.7758621 L32.8275862,15.7758621 C32.6206897,15.7758621 32.4655172,15.6034483 32.4655172,15.4137931 L32.4655172,14.0862069 C32.4655172,13.8793103 32.637931,13.7241379 32.8275862,13.7241379 L34.1551724,13.7241379 C34.362069,13.7241379 34.5172414,13.8965517 34.5172414,14.0862069 L34.5172414,15.4137931 C34.5172414,15.6206897 34.3448276,15.7758621 34.137931,15.7758621 L33.7931034,15.7758621 L33.7931034,23.2586207 L39.0172414,19.8965517 L39.0172414,9.34482759 C40.7931034,10.637931 42.3448276,12.6034483 43.9310345,15.0862069 L44.637931,16.0689655 C47.6551724,20.2068966 50.7931034,24.5172414 54.0862069,28.0517241 C54.1206897,28.1034483 54.1551724,28.137931 54.1896552,28.1896552 C54.2586207,28.2586207 54.3448276,28.3448276 54.4137931,28.4137931 L54.4310345,28.4310345 C57.5172414,31.3275862 61.4137931,32.8793103 65.362069,33.0689655 L65.3965517,33.1206897 Z" id="Shape" fill="#2F0800"></path>
            <path d="M19.1896552,55.0344828 C19.0172414,55.0344828 18.8448276,55.0517241 18.7068966,55.0862069 C18.5689655,55.1206897 18.4310345,55.1896552 18.3275862,55.2931034 C18.2241379,55.3965517 18.137931,55.5172414 18.0689655,55.6896552 C18,55.862069 17.9655172,56.0689655 17.9482759,56.3275862 L17.2413793,56.3275862 L17.2413793,55.1034483 L16.637931,55.1034483 L16.637931,58.3103448 L17.2413793,58.3103448 L17.2413793,56.8965517 L17.9482759,56.8965517 C17.9655172,57.1724138 18,57.4137931 18.0517241,57.6034483 C18.1206897,57.7931034 18.1896552,57.9482759 18.2931034,58.0689655 C18.3965517,58.1896552 18.5172414,58.2586207 18.6724138,58.3103448 C18.8275862,58.362069 18.9827586,58.3793103 19.1724138,58.3793103 C19.3275862,58.3793103 19.4827586,58.362069 19.6034483,58.3275862 C19.7413793,58.2931034 19.8448276,58.2413793 19.9482759,58.1551724 C20.0517241,58.0689655 20.137931,57.9655172 20.2068966,57.8448276 C20.2758621,57.7068966 20.3275862,57.5517241 20.362069,57.362069 C20.3965517,57.1724138 20.4137931,56.9482759 20.4137931,56.6724138 C20.4137931,56.4137931 20.3965517,56.1896552 20.362069,56 C20.3275862,55.8103448 20.2758621,55.6551724 20.2068966,55.5344828 C20.137931,55.4137931 20.0517241,55.3103448 19.9482759,55.2413793 C19.8448276,55.1724138 19.7413793,55.1206897 19.6034483,55.0862069 C19.5,55.0517241 19.3448276,55.0344828 19.1896552,55.0344828 Z M19.1896552,57.8275862 C19.1034483,57.8275862 19.0172414,57.8275862 18.9482759,57.7931034 C18.8793103,57.7758621 18.8275862,57.7413793 18.7758621,57.6896552 C18.7241379,57.637931 18.6896552,57.5689655 18.6551724,57.4827586 C18.6206897,57.3965517 18.6034483,57.2758621 18.5862069,57.1551724 C18.5689655,57.0172414 18.5689655,56.862069 18.5689655,56.6724138 C18.5689655,56.4827586 18.5689655,56.3103448 18.5862069,56.1896552 C18.6034483,56.0517241 18.6206897,55.9482759 18.6551724,55.862069 C18.6896552,55.7758621 18.7241379,55.7241379 18.7758621,55.6724138 C18.8275862,55.637931 18.8793103,55.6034483 18.9482759,55.5862069 C19.0172414,55.5689655 19.1034483,55.5689655 19.1896552,55.5689655 C19.2931034,55.5689655 19.362069,55.5689655 19.4310345,55.5862069 C19.5,55.6034483 19.5517241,55.637931 19.6034483,55.6724138 C19.6551724,55.7068966 19.6896552,55.7758621 19.7241379,55.862069 C19.7586207,55.9482759 19.7758621,56.0517241 19.7931034,56.1896552 C19.8103448,56.3275862 19.8103448,56.4827586 19.8103448,56.6724138 C19.8103448,56.862069 19.8103448,57.0344828 19.7931034,57.1551724 C19.7758621,57.2931034 19.7586207,57.3965517 19.7241379,57.4827586 C19.6896552,57.5689655 19.6551724,57.637931 19.6034483,57.6896552 C19.5517241,57.7413793 19.5,57.7758621 19.4310345,57.7931034 C19.3793103,57.8103448 19.2931034,57.8275862 19.1896552,57.8275862 Z M22.4827586,56.7413793 L22.4827586,55.6206897 L23.3793103,55.6206897 C23.5,55.6206897 23.6034483,55.6724138 23.6551724,55.7586207 C23.7241379,55.862069 23.7586207,56 23.7586207,56.1896552 C23.7586207,56.3793103 23.7241379,56.5 23.6551724,56.6034483 C23.5862069,56.6896552 23.4827586,56.7413793 23.362069,56.7413793 L22.4827586,56.7413793 Z M22.4827586,58.3103448 L22.4827586,57.2586207 L23.5517241,57.2586207 C23.7068966,57.2586207 23.8448276,57.2241379 23.9482759,57.1724138 C24.0517241,57.1206897 24.1551724,57.0344828 24.2241379,56.9482759 C24.2931034,56.8448276 24.3448276,56.7413793 24.3793103,56.6206897 C24.4137931,56.5 24.4310345,56.362069 24.4310345,56.2241379 C24.4310345,56.0689655 24.4137931,55.9137931 24.3793103,55.7931034 C24.3448276,55.6551724 24.2931034,55.5517241 24.2241379,55.4482759 C24.1551724,55.3448276 24.0689655,55.2758621 23.9482759,55.2241379 C23.8275862,55.1724138 23.6896552,55.137931 23.5172414,55.137931 L21.8448276,55.137931 L21.8448276,58.3448276 L22.4827586,58.3448276 L22.4827586,58.3103448 Z M28.5,55.1034483 L27.7758621,55.1034483 C27.5517241,55.5 27.3275862,55.9137931 27.0862069,56.3103448 C26.8448276,56.7068966 26.6034483,57.1206897 26.362069,57.5172414 L26.362069,55.1034483 L25.7586207,55.1034483 L25.7586207,58.3103448 L26.5517241,58.3103448 C26.7068966,58.0689655 26.862069,57.8103448 27.0172414,57.5517241 C27.1724138,57.2931034 27.3275862,57.0344828 27.4655172,56.7758621 C27.6206897,56.5172414 27.7586207,56.2586207 27.8965517,56 L27.8965517,58.3103448 L28.4827586,58.3103448 L28.4827586,55.1034483 L28.5,55.1034483 Z M29.9482759,56.6724138 C29.9482759,56.9310345 29.9655172,57.1551724 30,57.3448276 C30.0344828,57.5344828 30.1034483,57.6896552 30.1724138,57.8275862 C30.2586207,57.9655172 30.3448276,58.0689655 30.4655172,58.137931 C30.5862069,58.2241379 30.7241379,58.2758621 30.8793103,58.3103448 C31.0344828,58.3448276 31.2241379,58.362069 31.4310345,58.362069 C31.5,58.362069 31.5862069,58.362069 31.6551724,58.362069 C31.7413793,58.362069 31.8103448,58.3448276 31.8965517,58.3448276 C31.9827586,58.3275862 32.0517241,58.3275862 32.137931,58.3103448 C32.2068966,58.2931034 32.2758621,58.2758621 32.3448276,58.2586207 L32.2068966,57.7241379 C32.1724138,57.7413793 32.1206897,57.7586207 32.0689655,57.7586207 C32.0172414,57.7758621 31.9482759,57.7758621 31.8965517,57.7931034 C31.8275862,57.8103448 31.7758621,57.8103448 31.7068966,57.8103448 C31.637931,57.8103448 31.5862069,57.8103448 31.5344828,57.8103448 C31.3965517,57.8103448 31.2758621,57.8103448 31.1724138,57.7931034 C31.0689655,57.7758621 30.9827586,57.7413793 30.8965517,57.7068966 C30.8275862,57.6551724 30.7586207,57.6034483 30.7068966,57.5172414 C30.6551724,57.4310345 30.6206897,57.3275862 30.6034483,57.1896552 C30.5862069,57.0517241 30.5689655,56.8965517 30.5689655,56.6896552 C30.5689655,56.5 30.5862069,56.3275862 30.6034483,56.1896552 C30.6206897,56.0517241 30.6551724,55.9482759 30.7068966,55.862069 C30.7586207,55.7758621 30.8103448,55.7241379 30.8965517,55.6724138 C30.9655172,55.637931 31.0689655,55.6034483 31.1724138,55.5862069 C31.2758621,55.5689655 31.3965517,55.5689655 31.5344828,55.5689655 C31.5862069,55.5689655 31.6551724,55.5689655 31.7068966,55.5689655 C31.7758621,55.5689655 31.8275862,55.5862069 31.8965517,55.5862069 C31.9655172,55.5862069 32.0172414,55.6034483 32.0689655,55.6206897 C32.1206897,55.637931 32.1724138,55.6551724 32.2068966,55.6551724 L32.3448276,55.1206897 C32.2758621,55.1034483 32.2068966,55.0862069 32.137931,55.0689655 C32.0689655,55.0517241 31.9827586,55.0344828 31.8965517,55.0344828 C31.8103448,55.0172414 31.7413793,55.0172414 31.6551724,55.0172414 C31.5689655,55.0172414 31.5,55 31.4310345,55 C31.2241379,55 31.0517241,55.0172414 30.8793103,55.0517241 C30.7241379,55.0862069 30.5862069,55.137931 30.4655172,55.2068966 C30.3448276,55.2758621 30.2413793,55.3793103 30.1724138,55.5 C30.0862069,55.6206897 30.0344828,55.7758621 30,55.9655172 C29.9655172,56.1896552 29.9482759,56.4137931 29.9482759,56.6724138 Z M34.9137931,58.3103448 L34.9137931,55.637931 L36,55.637931 L36,55.1206897 L33.2241379,55.1206897 L33.2241379,55.637931 L34.3103448,55.637931 L34.3103448,58.3103448 L34.9137931,58.3103448 Z M37.8103448,57.7931034 L37.8103448,56.7413793 L38.7758621,56.7413793 C38.8965517,56.7413793 38.9827586,56.7931034 39.0344828,56.8793103 C39.1034483,56.9655172 39.1206897,57.1034483 39.1206897,57.2758621 C39.1206897,57.4482759 39.0862069,57.5689655 39.0344828,57.6551724 C38.9827586,57.7413793 38.8965517,57.7931034 38.7758621,57.7931034 L37.8103448,57.7931034 Z M37.2068966,55.1034483 L37.2068966,58.3103448 L38.9482759,58.3103448 C39.137931,58.3103448 39.2931034,58.2758621 39.4137931,58.1896552 C39.5344828,58.1034483 39.6206897,57.9827586 39.6896552,57.8448276 C39.7413793,57.6896552 39.7758621,57.5 39.7758621,57.2931034 C39.7758621,57.1551724 39.7586207,57.0172414 39.7241379,56.8793103 C39.6896552,56.7586207 39.637931,56.637931 39.5689655,56.5517241 C39.5,56.4655172 39.4137931,56.3793103 39.3103448,56.3275862 C39.2068966,56.2758621 39.0689655,56.2413793 38.9137931,56.2413793 L37.7931034,56.2413793 L37.7931034,55.1034483 L37.2068966,55.1034483 Z M40.0862069,55.1034483 L40.0862069,58.3103448 L40.6896552,58.3103448 L40.6896552,55.1034483 L40.0862069,55.1034483 Z M47.7413793,56.4827586 L47.137931,56.4827586 C47.137931,56.6034483 47.1206897,56.7241379 47.0862069,56.8448276 C47.0517241,56.9655172 47,57.0689655 46.9482759,57.1724138 C46.8448276,57.0344828 46.7413793,56.9310345 46.6551724,56.8448276 C46.5689655,56.7586207 46.4827586,56.7068966 46.3965517,56.6551724 C46.3275862,56.6206897 46.2413793,56.5862069 46.1896552,56.5862069 C46.3275862,56.5689655 46.4482759,56.5517241 46.5517241,56.5 C46.6551724,56.4655172 46.7241379,56.3965517 46.7758621,56.3448276 C46.8275862,56.2758621 46.862069,56.2068966 46.8965517,56.1206897 C46.9137931,56.0344828 46.9310345,55.9310345 46.9310345,55.8275862 C46.9310345,55.6896552 46.9137931,55.5689655 46.8793103,55.4655172 C46.8448276,55.362069 46.7758621,55.2758621 46.6896552,55.2068966 C46.6034483,55.137931 46.4827586,55.0862069 46.3448276,55.0689655 C46.2068966,55.0344828 46.0344828,55.0172414 45.8103448,55.0172414 C45.6034483,55.0172414 45.4137931,55.0344828 45.2758621,55.0689655 C45.137931,55.1034483 45.0172414,55.1551724 44.9310345,55.2241379 C44.8448276,55.2931034 44.7931034,55.3793103 44.7586207,55.4827586 C44.7241379,55.5862069 44.7068966,55.7068966 44.7068966,55.8448276 C44.7068966,55.9482759 44.7068966,56.0517241 44.7241379,56.137931 C44.7413793,56.2241379 44.7758621,56.3103448 44.8103448,56.362069 C44.862069,56.4310345 44.9137931,56.4827586 45,56.5172414 C45.0862069,56.5517241 45.2068966,56.5862069 45.3448276,56.6034483 C45.137931,56.6206897 44.9827586,56.6551724 44.8448276,56.7241379 C44.7241379,56.7931034 44.6206897,56.8965517 44.5689655,57.0172414 C44.5172414,57.137931 44.4827586,57.2758621 44.4827586,57.4310345 C44.4827586,57.6034483 44.5,57.7413793 44.5517241,57.862069 C44.6034483,57.9827586 44.6724138,58.0689655 44.7586207,58.137931 C44.862069,58.2068966 44.9827586,58.2586207 45.137931,58.2931034 C45.2931034,58.3275862 45.4827586,58.3448276 45.6896552,58.3448276 C45.8103448,58.3448276 45.9310345,58.3448276 46.0344828,58.3275862 C46.137931,58.3103448 46.2413793,58.2931034 46.3448276,58.2586207 C46.4310345,58.2241379 46.5344828,58.1896552 46.6206897,58.137931 C46.7068966,58.0862069 46.7931034,58.0344828 46.8965517,57.9655172 C46.9310345,58.0172414 46.9655172,58.0689655 47.0172414,58.137931 C47.0517241,58.1896552 47.0862069,58.2586207 47.137931,58.3103448 L47.8275862,58.3103448 C47.7413793,58.1724138 47.6551724,58.0517241 47.5689655,57.9310345 C47.4827586,57.8103448 47.4137931,57.7068966 47.3275862,57.6034483 C47.4655172,57.4482759 47.5689655,57.2586207 47.6551724,57.0689655 C47.7068966,56.8793103 47.7413793,56.6896552 47.7413793,56.4827586 Z M45.6896552,57.8793103 C45.5517241,57.8793103 45.4310345,57.862069 45.3448276,57.8275862 C45.2586207,57.7931034 45.2068966,57.7413793 45.1724138,57.6724138 C45.137931,57.6034483 45.1206897,57.5 45.1206897,57.3793103 C45.1206897,57.2586207 45.137931,57.1551724 45.1896552,57.0862069 C45.2241379,57.0172414 45.2931034,56.9482759 45.3793103,56.9137931 C45.4655172,56.8793103 45.5862069,56.862069 45.7068966,56.862069 C45.7931034,56.862069 45.8793103,56.8965517 45.9827586,56.9482759 C46.0689655,57 46.1724138,57.0862069 46.2586207,57.1896552 C46.362069,57.2931034 46.4655172,57.4137931 46.5689655,57.5689655 C46.5,57.6206897 46.4310345,57.6724138 46.362069,57.7241379 C46.2931034,57.7586207 46.2241379,57.7931034 46.1551724,57.8275862 C46.0862069,57.8448276 46.0172414,57.862069 45.9310345,57.8793103 C45.8793103,57.8793103 45.7931034,57.8793103 45.6896552,57.8793103 Z M45.7758621,56.3965517 C45.6551724,56.3965517 45.5689655,56.3793103 45.5,56.3448276 C45.4310345,56.3103448 45.3793103,56.2586207 45.3448276,56.2068966 C45.3103448,56.137931 45.2931034,56.0517241 45.2931034,55.9482759 C45.2931034,55.8448276 45.3103448,55.7586207 45.3448276,55.7068966 C45.3793103,55.6551724 45.4310345,55.6034483 45.5,55.5862069 C45.5689655,55.5689655 45.6724138,55.5517241 45.7931034,55.5517241 C45.9137931,55.5517241 46,55.5689655 46.0862069,55.5862069 C46.1551724,55.6034483 46.2068966,55.6551724 46.2413793,55.7068966 C46.2758621,55.7758621 46.2931034,55.8448276 46.2931034,55.9482759 C46.2931034,56.0517241 46.2758621,56.137931 46.2241379,56.2068966 C46.1896552,56.2758621 46.1206897,56.3275862 46.0517241,56.3448276 C45.9827586,56.3793103 45.8965517,56.3965517 45.7758621,56.3965517 Z M52.0862069,56.7413793 L52.0862069,55.6206897 L52.9827586,55.6206897 C53.1034483,55.6206897 53.2068966,55.6724138 53.2586207,55.7586207 C53.3275862,55.862069 53.362069,56 53.362069,56.1896552 C53.362069,56.3793103 53.3275862,56.5 53.2586207,56.6034483 C53.1896552,56.6896552 53.0862069,56.7413793 52.9655172,56.7413793 L52.0862069,56.7413793 Z M52.0862069,58.3103448 L52.0862069,57.2586207 L53.1551724,57.2586207 C53.3103448,57.2586207 53.4482759,57.2241379 53.5517241,57.1724138 C53.6551724,57.1206897 53.7586207,57.0344828 53.8275862,56.9482759 C53.8965517,56.8448276 53.9482759,56.7413793 53.9827586,56.6206897 C54.0172414,56.5 54.0344828,56.362069 54.0344828,56.2241379 C54.0344828,56.0689655 54.0172414,55.9137931 53.9827586,55.7931034 C53.9482759,55.6551724 53.8965517,55.5517241 53.8275862,55.4482759 C53.7586207,55.3448276 53.6724138,55.2758621 53.5517241,55.2241379 C53.4310345,55.1724138 53.2931034,55.137931 53.1206897,55.137931 L51.4482759,55.137931 L51.4482759,58.3448276 L52.0862069,58.3448276 L52.0862069,58.3103448 Z M58.1034483,55.1034483 L57.3793103,55.1034483 C57.1551724,55.5 56.9310345,55.9137931 56.6896552,56.3103448 C56.4482759,56.7068966 56.2068966,57.1206897 55.9655172,57.5172414 L55.9655172,55.1034483 L55.362069,55.1034483 L55.362069,58.3103448 L56.1551724,58.3103448 C56.3103448,58.0689655 56.4655172,57.8103448 56.6206897,57.5517241 C56.7758621,57.2931034 56.9310345,57.0344828 57.0689655,56.7758621 C57.2241379,56.5172414 57.362069,56.2586207 57.5,56 L57.5,58.3103448 L58.0862069,58.3103448 L58.0862069,55.1034483 L58.1034483,55.1034483 Z M61.2241379,56.8793103 C61.2241379,57.0344828 61.2068966,57.1724138 61.1724138,57.2758621 C61.137931,57.3793103 61.1034483,57.4827586 61.0517241,57.5517241 C61,57.6206897 60.9310345,57.6724138 60.862069,57.7068966 C60.7931034,57.7413793 60.7068966,57.7758621 60.6034483,57.7931034 C60.5,57.8103448 60.3965517,57.8103448 60.2586207,57.8103448 C60.2068966,57.8103448 60.137931,57.8103448 60.0862069,57.8103448 C60.0172414,57.8103448 59.9655172,57.7931034 59.8965517,57.7931034 C59.8275862,57.7931034 59.7758621,57.7758621 59.7068966,57.7586207 C59.6551724,57.7413793 59.6034483,57.7241379 59.5517241,57.7241379 L59.4137931,58.2586207 C59.4827586,58.2758621 59.5517241,58.2931034 59.6206897,58.3103448 C59.6896552,58.3275862 59.7758621,58.3448276 59.862069,58.3448276 C59.9482759,58.362069 60.0344828,58.362069 60.1206897,58.362069 C60.2068966,58.362069 60.2758621,58.362069 60.362069,58.362069 C60.5689655,58.362069 60.7413793,58.3448276 60.9137931,58.3103448 C61.0689655,58.2758621 61.2241379,58.2241379 61.3448276,58.137931 C61.4655172,58.0517241 61.5689655,57.9482759 61.6551724,57.8275862 C61.7413793,57.6896552 61.7931034,57.5344828 61.8448276,57.3448276 C61.8793103,57.1551724 61.9137931,56.9310345 61.9137931,56.6724138 C61.9137931,56.4137931 61.8965517,56.1896552 61.8448276,56 C61.8103448,55.8103448 61.7413793,55.6551724 61.6551724,55.5344828 C61.5689655,55.4137931 61.4655172,55.3103448 61.3448276,55.2413793 C61.2241379,55.1724138 61.0862069,55.1206897 60.9137931,55.0862069 C60.7586207,55.0517241 60.5689655,55.0344828 60.362069,55.0344828 C60.2931034,55.0344828 60.2068966,55.0344828 60.1206897,55.0517241 C60.0344828,55.0517241 59.9482759,55.0689655 59.862069,55.0689655 C59.7758621,55.0862069 59.6896552,55.0862069 59.6206897,55.1034483 C59.5517241,55.1206897 59.4655172,55.137931 59.4137931,55.1551724 L59.5517241,55.6896552 C59.5862069,55.6724138 59.637931,55.6551724 59.7068966,55.6551724 C59.7586207,55.637931 59.8275862,55.637931 59.8965517,55.6206897 C59.9655172,55.6034483 60.0344828,55.6034483 60.0862069,55.6034483 C60.1551724,55.6034483 60.2068966,55.6034483 60.2586207,55.6034483 C60.3793103,55.6034483 60.4827586,55.6034483 60.5862069,55.6206897 C60.6896552,55.637931 60.7758621,55.6551724 60.8448276,55.6896552 C60.9137931,55.7241379 60.9827586,55.7586207 61.0344828,55.8275862 C61.0862069,55.8793103 61.1206897,55.9655172 61.1551724,56.0517241 C61.1896552,56.137931 61.2068966,56.2586207 61.2241379,56.3965517 L59.862069,56.3965517 L59.862069,56.9137931 L61.2241379,56.9137931 L61.2241379,56.8793103 Z M65.2586207,55.637931 L65.2586207,58.3103448 L65.862069,58.3103448 L65.862069,55.1034483 L63.7068966,55.1034483 C63.6896552,55.5 63.6551724,55.8793103 63.5862069,56.2413793 C63.5172414,56.6034483 63.4482759,56.9655172 63.362069,57.3103448 C63.2758621,57.6551724 63.1724138,57.9827586 63.0689655,58.3103448 L63.7068966,58.3103448 C63.7758621,58.0862069 63.862069,57.862069 63.9137931,57.637931 C63.9827586,57.4137931 64.0344828,57.1724138 64.0862069,56.9482759 C64.137931,56.7241379 64.1724138,56.5 64.2068966,56.2758621 C64.2413793,56.0517241 64.2586207,55.8448276 64.2758621,55.637931 L65.2586207,55.637931 Z M68.7586207,58.3103448 L68.7586207,55.637931 L69.8448276,55.637931 L69.8448276,55.1206897 L67.0689655,55.1206897 L67.0689655,55.637931 L68.1551724,55.637931 L68.1551724,58.3103448 L68.7586207,58.3103448 Z M72.4137931,55.0344828 C72.2068966,55.0344828 72.0344828,55.0517241 71.862069,55.0862069 C71.7068966,55.1206897 71.5517241,55.1724138 71.4310345,55.2413793 C71.3103448,55.3103448 71.2068966,55.4137931 71.1206897,55.5344828 C71.0344828,55.6551724 70.9827586,55.8103448 70.9310345,56 C70.8965517,56.1896552 70.862069,56.4137931 70.862069,56.6724138 C70.862069,56.9310345 70.8793103,57.1724138 70.9310345,57.362069 C70.9655172,57.5517241 71.0344828,57.7241379 71.1206897,57.8448276 C71.2068966,57.9827586 71.3103448,58.0862069 71.4310345,58.1551724 C71.5517241,58.2241379 71.6896552,58.2931034 71.862069,58.3275862 C72.0172414,58.362069 72.2068966,58.3793103 72.4137931,58.3793103 C72.6206897,58.3793103 72.7931034,58.362069 72.9655172,58.3275862 C73.1206897,58.2931034 73.2758621,58.2413793 73.3965517,58.1551724 C73.5172414,58.0862069 73.6206897,57.9827586 73.7068966,57.8448276 C73.7931034,57.7068966 73.8448276,57.5517241 73.8965517,57.362069 C73.9310345,57.1724138 73.9655172,56.9482759 73.9655172,56.6724138 C73.9655172,56.4137931 73.9482759,56.1896552 73.8965517,56 C73.862069,55.8103448 73.7931034,55.6551724 73.7068966,55.5344828 C73.6206897,55.4137931 73.5172414,55.3103448 73.3965517,55.2413793 C73.2758621,55.1724138 73.137931,55.1206897 72.9655172,55.0862069 C72.7931034,55.0517241 72.6206897,55.0344828 72.4137931,55.0344828 Z M72.4137931,57.8275862 C72.2758621,57.8275862 72.1551724,57.8275862 72.0517241,57.7931034 C71.9482759,57.7758621 71.862069,57.7413793 71.7931034,57.6896552 C71.7241379,57.637931 71.6724138,57.5689655 71.637931,57.5 C71.6034483,57.4137931 71.5689655,57.3103448 71.5517241,57.1724138 C71.5344828,57.0344828 71.5344828,56.8793103 71.5344828,56.6896552 C71.5344828,56.5 71.5344828,56.3275862 71.5517241,56.2068966 C71.5689655,56.0689655 71.6034483,55.9655172 71.637931,55.8793103 C71.6724138,55.7931034 71.7241379,55.7413793 71.7931034,55.6896552 C71.862069,55.637931 71.9482759,55.6206897 72.0517241,55.6034483 C72.1551724,55.5862069 72.2758621,55.5862069 72.4137931,55.5862069 C72.5517241,55.5862069 72.6724138,55.5862069 72.7758621,55.6034483 C72.8793103,55.6206897 72.9655172,55.6551724 73.0344828,55.6896552 C73.1034483,55.7413793 73.1551724,55.7931034 73.1896552,55.8793103 C73.2241379,55.9655172 73.2586207,56.0689655 73.2758621,56.2068966 C73.2931034,56.3448276 73.2931034,56.5 73.2931034,56.6896552 C73.2931034,56.8793103 73.2931034,57.0517241 73.2758621,57.1724138 C73.2586207,57.3103448 73.2241379,57.4137931 73.1896552,57.5 C73.1551724,57.5862069 73.1034483,57.6551724 73.0344828,57.6896552 C72.9655172,57.7413793 72.8793103,57.7758621 72.7758621,57.7931034 C72.6724138,57.8103448 72.5517241,57.8275862 72.4137931,57.8275862 Z M75.9827586,56.7413793 L75.9827586,55.6206897 L76.8793103,55.6206897 C77,55.6206897 77.1034483,55.6724138 77.1551724,55.7586207 C77.2241379,55.862069 77.2586207,56 77.2586207,56.1896552 C77.2586207,56.3793103 77.2241379,56.5 77.1551724,56.6034483 C77.0862069,56.6896552 76.9827586,56.7413793 76.862069,56.7413793 L75.9827586,56.7413793 Z M75.9827586,58.3103448 L75.9827586,57.2586207 L77.0517241,57.2586207 C77.2068966,57.2586207 77.3448276,57.2241379 77.4482759,57.1724138 C77.5517241,57.1206897 77.6551724,57.0344828 77.7241379,56.9482759 C77.7931034,56.8448276 77.8448276,56.7413793 77.8793103,56.6206897 C77.9137931,56.5 77.9310345,56.362069 77.9310345,56.2241379 C77.9310345,56.0689655 77.9137931,55.9137931 77.8793103,55.7931034 C77.8448276,55.6551724 77.7931034,55.5517241 77.7241379,55.4482759 C77.6551724,55.3448276 77.5689655,55.2758621 77.4482759,55.2241379 C77.3275862,55.1724138 77.1896552,55.137931 77.0172414,55.137931 L75.3448276,55.137931 L75.3448276,58.3448276 L75.9827586,58.3448276 L75.9827586,58.3103448 Z M79.862069,57.7931034 L79.862069,56.7413793 L80.8275862,56.7413793 C80.9482759,56.7413793 81.0344828,56.7931034 81.0862069,56.8793103 C81.1551724,56.9655172 81.1724138,57.1034483 81.1724138,57.2758621 C81.1724138,57.4482759 81.137931,57.5689655 81.0862069,57.6551724 C81.0344828,57.7413793 80.9482759,57.7931034 80.8275862,57.7931034 L79.862069,57.7931034 Z M79.2586207,55.1034483 L79.2586207,58.3103448 L81,58.3103448 C81.1896552,58.3103448 81.3448276,58.2758621 81.4655172,58.1896552 C81.5862069,58.1034483 81.6724138,57.9827586 81.7413793,57.8448276 C81.7931034,57.6896552 81.8275862,57.5 81.8275862,57.2931034 C81.8275862,57.1551724 81.8103448,57.0172414 81.7758621,56.8793103 C81.7413793,56.7586207 81.6896552,56.637931 81.6206897,56.5517241 C81.5517241,56.4655172 81.4655172,56.3793103 81.362069,56.3275862 C81.2586207,56.2758621 81.1206897,56.2413793 80.9655172,56.2413793 L79.8448276,56.2413793 L79.8448276,55.1034483 L79.2586207,55.1034483 Z M82.137931,55.1034483 L82.137931,58.3103448 L82.7413793,58.3103448 L82.7413793,55.1034483 L82.137931,55.1034483 Z" id="Shape" fill="#416A7B"></path>
            <path d="M0.120689655,40.862069 L3.12068966,40.862069 L3.12068966,41.3103448 C2.9137931,41.3448276 2.75862069,41.4310345 2.67241379,41.5517241 C2.56896552,41.6724138 2.51724138,41.8275862 2.53448276,42.0172414 L2.53448276,44.2241379 C2.98275862,44.2413793 3.37931034,44.137931 3.68965517,43.8965517 C4,43.6551724 4.25862069,43.2758621 4.48275862,42.7586207 C4.82758621,41.8793103 5.13793103,41.3275862 5.43103448,41.0862069 C5.72413793,40.8448276 6.12068966,40.7241379 6.5862069,40.7241379 C6.72413793,40.7241379 6.87931034,40.7413793 7,40.7586207 C7.13793103,40.7758621 7.25862069,40.8103448 7.36206897,40.8448276 L7.36206897,42.8275862 L6.93103448,42.8275862 C6.89655172,42.6896552 6.82758621,42.5862069 6.72413793,42.5172414 C6.62068966,42.4482759 6.51724138,42.4137931 6.39655172,42.4137931 C6.25862069,42.4137931 6.13793103,42.4482759 6.03448276,42.5344828 C5.9137931,42.6206897 5.79310345,42.7413793 5.65517241,42.9310345 C5.10344828,43.6551724 4.74137931,44.0689655 4.55172414,44.2068966 C4.36206897,44.3448276 4.15517241,44.4482759 3.9137931,44.5344828 L3.9137931,44.6206897 C4.12068966,44.6551724 4.32758621,44.6896552 4.55172414,44.7586207 C4.77586207,44.8103448 4.96551724,44.8793103 5.13793103,44.9482759 C5.53448276,45.1206897 5.82758621,45.362069 6.05172414,45.6724138 C6.27586207,45.9827586 6.46551724,46.4655172 6.63793103,47.1034483 C6.75862069,47.637931 6.82758621,47.9482759 6.86206897,48.0172414 C6.87931034,48.1034483 6.9137931,48.1551724 6.94827586,48.2068966 C7.05172414,48.4310345 7.18965517,48.6206897 7.39655172,48.7758621 C7.5862069,48.9310345 7.81034483,49 8.03448276,49.0172414 L8.03448276,49.5 C7.87931034,49.5517241 7.72413793,49.6034483 7.56896552,49.637931 C7.4137931,49.6724138 7.24137931,49.6896552 7.0862069,49.6896552 C6.63793103,49.6896552 6.24137931,49.6034483 5.89655172,49.4310345 C5.55172414,49.2586207 5.29310345,49.0172414 5.10344828,48.6896552 C5.03448276,48.5862069 4.96551724,48.4655172 4.93103448,48.3448276 C4.87931034,48.2241379 4.81034483,47.862069 4.68965517,47.2586207 C4.56896552,46.6896552 4.44827586,46.2758621 4.32758621,46.0172414 C4.20689655,45.7586207 4.03448276,45.5344828 3.84482759,45.362069 C3.67241379,45.2068966 3.46551724,45.1034483 3.24137931,45.0172414 C3.01724138,44.9310345 2.79310345,44.8965517 2.55172414,44.9137931 L2.55172414,48.3965517 C2.55172414,48.6034483 2.60344828,48.7586207 2.68965517,48.8793103 C2.79310345,49 2.93103448,49.0689655 3.13793103,49.1034483 L3.13793103,49.5517241 L0.137931034,49.5517241 L0.137931034,49.1034483 C0.327586207,49.0862069 0.482758621,49 0.586206897,48.8793103 C0.689655172,48.7586207 0.74137931,48.6034483 0.74137931,48.3965517 L0.74137931,42.0517241 C0.74137931,41.862069 0.672413793,41.6896552 0.586206897,41.5689655 C0.482758621,41.4482759 0.344827586,41.3793103 0.155172414,41.3448276 L0.155172414,40.862069 L0.120689655,40.862069 Z M57.9827586,44.9310345 C58.5344828,44.9310345 58.9827586,45.3793103 58.9827586,45.9310345 C58.9827586,46.4827586 58.5344828,46.9310345 57.9827586,46.9310345 C57.4310345,46.9310345 56.9827586,46.4827586 56.9827586,45.9310345 C56.9827586,45.3793103 57.4310345,44.9310345 57.9827586,44.9310345 Z M11.6551724,40.862069 L14.5172414,40.862069 L16.9482759,48.1206897 C17.0689655,48.5 17.1896552,48.7413793 17.2931034,48.862069 C17.3965517,48.9655172 17.5344828,49.0517241 17.7241379,49.0862069 L17.7241379,49.5344828 L15.4655172,49.5344828 L13.2931034,43.0689655 L13.1551724,43.0689655 C12.9827586,43.8793103 12.7758621,44.7586207 12.5344828,45.6724138 C12.2931034,46.5862069 12.0689655,47.2931034 11.8793103,47.7758621 C11.6206897,48.4482759 11.3448276,48.9310345 11.0689655,49.2413793 C10.7931034,49.5344828 10.4310345,49.6896552 10,49.6896552 C9.67241379,49.6896552 9.4137931,49.6034483 9.24137931,49.4310345 C9.05172414,49.2586207 8.96551724,49.0517241 8.96551724,48.7931034 C8.96551724,48.5862069 9.03448276,48.3965517 9.18965517,48.2241379 C9.32758621,48.0689655 9.51724138,47.9827586 9.75862069,47.9827586 C9.81034483,47.9827586 9.86206897,47.9827586 9.9137931,48 C9.98275862,48.0172414 10.0344828,48.0344828 10.1206897,48.0689655 C10.3793103,48.1724138 10.5172414,48.2241379 10.5344828,48.2413793 C10.5517241,48.2413793 10.5862069,48.2413793 10.6206897,48.2413793 C10.8103448,48.2413793 11,48.0862069 11.1551724,47.7758621 C11.3103448,47.4655172 11.5344828,46.862069 11.8275862,45.9310345 C12.0862069,45.0862069 12.2758621,44.3448276 12.4310345,43.6724138 C12.5862069,43.0172414 12.6551724,42.5172414 12.6551724,42.1896552 C12.6551724,41.9137931 12.5862069,41.7068966 12.4482759,41.5689655 C12.3103448,41.4310345 12.1206897,41.3448276 11.8793103,41.3448276 L11.6724138,41.3448276 L11.6724138,40.862069 L11.6551724,40.862069 Z M18.7758621,40.862069 L21.7931034,40.862069 L21.7931034,41.3103448 C21.5344828,41.3965517 21.362069,41.5 21.2931034,41.5862069 C21.2241379,41.6724138 21.1896552,41.8275862 21.1896552,42.0172414 L21.1896552,46.637931 L21.2413793,46.637931 L25.0689655,42.5862069 L25.0689655,42.0172414 C25.0689655,41.8275862 25.0172414,41.6724138 24.9137931,41.5517241 C24.8103448,41.4310345 24.6551724,41.3448276 24.4655172,41.3103448 L24.4655172,40.862069 L27.4827586,40.862069 L27.4827586,41.3103448 C27.2758621,41.3448276 27.137931,41.4137931 27.0344828,41.5344828 C26.9310345,41.6551724 26.8965517,41.8103448 26.8965517,42.0172414 L26.8965517,48.362069 C26.8965517,48.5689655 26.9482759,48.7241379 27.0344828,48.8448276 C27.137931,48.9655172 27.2758621,49.0344828 27.4827586,49.0689655 L27.4827586,49.5172414 L24.4655172,49.5172414 L24.4655172,49.0689655 C24.6551724,49.0517241 24.7931034,48.9827586 24.9137931,48.862069 C25.0172414,48.7413793 25.0689655,48.5862069 25.0689655,48.362069 L25.0689655,43.6551724 L25,43.6551724 L21.1724138,47.7241379 L21.1724138,48.362069 C21.1724138,48.5517241 21.2068966,48.7241379 21.3103448,48.8448276 C21.4137931,48.9655172 21.5689655,49.0344828 21.7758621,49.0689655 L21.7758621,49.5172414 L18.7586207,49.5172414 L18.7586207,49.0689655 C18.9482759,49.0517241 19.1034483,48.9655172 19.2068966,48.8448276 C19.3103448,48.7241379 19.362069,48.5689655 19.362069,48.362069 L19.362069,42.0172414 C19.362069,41.8275862 19.2931034,41.6551724 19.2068966,41.5344828 C19.1034483,41.4137931 18.9655172,41.3448276 18.7758621,41.3103448 L18.7758621,40.862069 Z M28.8793103,40.862069 L34.8793103,40.862069 C35.0689655,40.862069 35.1896552,40.8448276 35.2586207,40.8103448 C35.3275862,40.7758621 35.3965517,40.7241379 35.4310345,40.637931 L35.7413793,40.637931 L35.7413793,42.8448276 L35.3103448,42.8448276 C35.1724138,42.3793103 34.9827586,42.0344828 34.7241379,41.8275862 C34.4655172,41.6206897 34,41.5172414 33.362069,41.5172414 L31.3448276,41.5172414 L31.3448276,44.637931 L32.6896552,44.637931 C33.0517241,44.637931 33.3103448,44.5862069 33.4827586,44.4655172 C33.6551724,44.3448276 33.7241379,44.137931 33.7241379,43.862069 L34.1551724,43.862069 L34.1551724,46.0862069 L33.7241379,46.0862069 C33.7068966,45.8275862 33.6206897,45.637931 33.4827586,45.5 C33.3448276,45.362069 33.1551724,45.3103448 32.9310345,45.3103448 L31.3448276,45.3103448 L31.3448276,48.862069 L34.2586207,48.862069 C34.7068966,48.862069 35.1034483,48.7241379 35.4482759,48.4310345 C35.7931034,48.1551724 36,47.7758621 36.0862069,47.3275862 L36.5172414,47.3275862 L36.5172414,49.5172414 L28.8965517,49.5172414 L28.8965517,49.0689655 C29.1034483,49.0517241 29.2586207,48.9827586 29.362069,48.8448276 C29.4655172,48.7241379 29.5172414,48.5172414 29.5344828,48.2413793 L29.5344828,42.1206897 C29.5344828,41.8448276 29.4655172,41.6551724 29.362069,41.5344828 C29.2586207,41.4137931 29.1034483,41.3448276 28.8965517,41.3103448 L28.8965517,40.862069 L28.8793103,40.862069 Z M40.9310345,40.862069 L40.9310345,41.3103448 C40.7413793,41.3275862 40.6034483,41.4137931 40.4827586,41.5344828 C40.3793103,41.6551724 40.3275862,41.8103448 40.3275862,42.0172414 L40.3275862,44.7413793 L44.5517241,44.7413793 L44.5517241,42.0172414 C44.5517241,41.8275862 44.5,41.6551724 44.3965517,41.5344828 C44.2931034,41.4137931 44.1551724,41.3448276 43.9482759,41.3103448 L43.9482759,40.862069 L46.9655172,40.862069 L46.9655172,41.3103448 C46.7413793,41.3448276 46.5862069,41.4137931 46.5,41.5344828 C46.3965517,41.6551724 46.362069,41.8103448 46.362069,42.0172414 L46.3793103,48.362069 C46.3793103,48.5689655 46.4137931,48.7241379 46.4827586,48.8103448 C46.5517241,48.8965517 46.7241379,48.9827586 46.9655172,49.0689655 L46.9655172,49.5172414 L43.9482759,49.5172414 L43.9482759,49.0689655 C44.1896552,49 44.3448276,48.9137931 44.4310345,48.8103448 C44.5,48.7241379 44.5517241,48.5689655 44.5517241,48.362069 L44.5517241,45.3793103 L40.3275862,45.3793103 L40.3275862,48.362069 C40.3275862,48.5689655 40.362069,48.7241379 40.4482759,48.8275862 C40.5344828,48.9310345 40.7068966,49.0172414 40.9310345,49.0689655 L40.9310345,49.5172414 L37.9137931,49.5172414 L37.9137931,49.0689655 C38.137931,49 38.2931034,48.9137931 38.3793103,48.8103448 C38.4655172,48.7241379 38.5,48.5689655 38.5,48.362069 L38.5,42.0172414 C38.5,41.8275862 38.4482759,41.6551724 38.3448276,41.5344828 C38.2413793,41.4137931 38.0862069,41.3448276 37.9137931,41.3103448 L37.9137931,40.862069 L40.9310345,40.862069 Z M48.0172414,40.637931 L48.5,40.637931 C48.6034483,40.7068966 48.7241379,40.7413793 48.8275862,40.7758621 C48.9482759,40.7931034 49.0862069,40.8103448 49.2758621,40.8103448 L54.8103448,40.8103448 C54.9655172,40.8103448 55.1034483,40.8103448 55.2241379,40.7758621 C55.3448276,40.7413793 55.4655172,40.7068966 55.6034483,40.637931 L56.0689655,40.637931 L56.0689655,42.862069 L55.637931,42.862069 C55.4310345,42.3965517 55.1724138,42.0517241 54.862069,41.8103448 C54.5517241,41.5689655 54.1896552,41.4655172 53.7586207,41.4655172 L52.9655172,41.4655172 L52.9655172,48.362069 C52.9655172,48.5689655 53,48.7241379 53.0862069,48.8275862 C53.1724138,48.9310345 53.3448276,49.0172414 53.5689655,49.0689655 L53.5689655,49.5172414 L50.5517241,49.5172414 L50.5517241,49.0689655 C50.7931034,49 50.9482759,48.9137931 51.0344828,48.8103448 C51.1034483,48.7241379 51.1551724,48.5689655 51.1551724,48.362069 L51.1551724,41.4655172 L50.4827586,41.4655172 C49.9655172,41.4655172 49.5517241,41.5862069 49.2241379,41.8103448 C48.8965517,42.0344828 48.6551724,42.3965517 48.4827586,42.862069 L48.0517241,42.862069 L48.0517241,40.637931 L48.0172414,40.637931 Z" id="Shape" fill="#2F0800"></path>
            <path d="M68.7413793,40.862069 L68.7413793,41.3103448 C68.5344828,41.3448276 68.3965517,41.4137931 68.2931034,41.5344828 C68.1896552,41.6551724 68.1551724,41.8103448 68.1551724,42.0172414 L68.1551724,48.362069 C68.1551724,48.5689655 68.2068966,48.7241379 68.2931034,48.8448276 C68.3965517,48.9655172 68.5344828,49.0344828 68.7413793,49.0689655 L68.7413793,49.5172414 L65.7241379,49.5172414 L65.7241379,49.0689655 C65.9310345,49.0344828 66.0689655,48.9655172 66.1724138,48.8448276 C66.2758621,48.7241379 66.3275862,48.5689655 66.3275862,48.362069 L66.3275862,41.5172414 L62.7413793,41.5172414 L62.7413793,48.362069 C62.7413793,48.5689655 62.7931034,48.7241379 62.8965517,48.8448276 C63,48.9655172 63.1551724,49.0344828 63.3275862,49.0689655 L63.3275862,49.5172414 L60.3103448,49.5172414 L60.3103448,49.0689655 C60.4827586,49.0517241 60.637931,48.9827586 60.7413793,48.862069 C60.862069,48.7413793 60.9137931,48.5689655 60.9137931,48.362069 L60.9137931,42.0172414 C60.9137931,41.8103448 60.862069,41.6551724 60.7413793,41.5344828 C60.6206897,41.4137931 60.4827586,41.3448276 60.3103448,41.3103448 L60.3103448,40.862069 L68.7413793,40.862069 Z M72.1724138,40.862069 L75.0344828,40.862069 L77.4655172,48.1206897 C77.5862069,48.5 77.7068966,48.7413793 77.8103448,48.862069 C77.9137931,48.9655172 78.0517241,49.0517241 78.2413793,49.0862069 L78.2413793,49.5344828 L75.9827586,49.5344828 L73.8103448,43.0689655 L73.6724138,43.0689655 C73.5,43.8793103 73.2931034,44.7586207 73.0517241,45.6724138 C72.8103448,46.5862069 72.5862069,47.2931034 72.3965517,47.7758621 C72.137931,48.4482759 71.862069,48.9310345 71.5862069,49.2413793 C71.3103448,49.5344828 70.9482759,49.6896552 70.5172414,49.6896552 C70.1896552,49.6896552 69.9310345,49.6034483 69.7586207,49.4310345 C69.5689655,49.2586207 69.4827586,49.0517241 69.4827586,48.7931034 C69.4827586,48.5862069 69.5517241,48.3965517 69.7068966,48.2241379 C69.8448276,48.0689655 70.0344828,47.9827586 70.2758621,47.9827586 C70.3275862,47.9827586 70.3793103,47.9827586 70.4310345,48 C70.5,48.0172414 70.5517241,48.0344828 70.637931,48.0689655 C70.8965517,48.1724138 71.0344828,48.2241379 71.0517241,48.2413793 C71.0689655,48.2413793 71.1034483,48.2413793 71.137931,48.2413793 C71.3275862,48.2413793 71.5172414,48.0862069 71.6724138,47.7758621 C71.8275862,47.4655172 72.0517241,46.862069 72.3448276,45.9310345 C72.6034483,45.0862069 72.7931034,44.3448276 72.9482759,43.6724138 C73.1034483,43.0172414 73.1724138,42.5172414 73.1724138,42.1896552 C73.1724138,41.9137931 73.1034483,41.7068966 72.9655172,41.5689655 C72.8275862,41.4310345 72.637931,41.3448276 72.3965517,41.3448276 L72.1896552,41.3448276 L72.1896552,40.862069 L72.1724138,40.862069 Z M81.5,44.8448276 L82.9827586,44.8448276 C83.1034483,43.6724138 83.5517241,42.6896552 84.3103448,41.8965517 C85.0689655,41.1034483 86.0517241,40.7241379 87.2586207,40.7241379 C88.4655172,40.7241379 89.4827586,41.1551724 90.3103448,42.0344828 C91.137931,42.8965517 91.5344828,43.9655172 91.5344828,45.2068966 C91.5344828,46.4482759 91.1206897,47.5 90.3103448,48.362069 C89.5,49.2241379 88.4827586,49.6551724 87.2586207,49.6551724 C86.1206897,49.6551724 85.137931,49.2586207 84.2931034,48.4827586 C83.4655172,47.7068966 83.0172414,46.7068966 82.9827586,45.5172414 L81.4827586,45.5172414 L81.4827586,48.3793103 C81.4827586,48.5689655 81.5172414,48.7413793 81.6206897,48.862069 C81.7241379,48.9827586 81.8793103,49.0517241 82.0862069,49.0862069 L82.0862069,49.5344828 L79.0689655,49.5344828 L79.0689655,49.0862069 C79.2586207,49.0689655 79.4137931,48.9827586 79.5172414,48.862069 C79.6206897,48.7413793 79.6724138,48.5862069 79.6724138,48.3793103 L79.6724138,42.0344828 C79.6724138,41.8448276 79.6034483,41.6724138 79.5172414,41.5517241 C79.4137931,41.4310345 79.2758621,41.362069 79.0862069,41.3275862 L79.0862069,40.862069 L82.1034483,40.862069 L82.1034483,41.3103448 C81.8965517,41.3448276 81.7413793,41.4310345 81.637931,41.5517241 C81.5344828,41.6724138 81.5,41.8275862 81.5,42.0172414 L81.5,44.8448276 Z M87.2586207,41.3793103 C86.4655172,41.3793103 85.8965517,41.6724138 85.5344828,42.2586207 C85.1724138,42.8448276 85,43.8275862 85,45.2241379 C85,45.2931034 85,45.3793103 85,45.4655172 C85,45.5517241 85,45.637931 85.0172414,45.7413793 C85.0517241,46.862069 85.2413793,47.6896552 85.5689655,48.2068966 C85.8965517,48.7413793 86.4655172,49 87.2758621,49 C88.1034483,49 88.6896552,48.7068966 89.0344828,48.1034483 C89.3793103,47.5 89.5517241,46.5517241 89.5517241,45.2241379 C89.5517241,43.8275862 89.362069,42.8448276 89,42.2586207 C88.6206897,41.6724138 88.0517241,41.3793103 87.2586207,41.3793103 Z M99.4827586,47.6724138 L99.862069,48.1551724 C99.2413793,48.6896552 98.6724138,49.0689655 98.137931,49.2931034 C97.6034483,49.5172414 97.0689655,49.637931 96.5,49.637931 C95.2413793,49.637931 94.2241379,49.2068966 93.4310345,48.3448276 C92.6551724,47.4827586 92.2586207,46.4137931 92.2586207,45.1206897 C92.2586207,43.8275862 92.637931,42.7758621 93.4137931,41.9482759 C94.1896552,41.1206897 95.137931,40.7068966 96.2931034,40.7068966 C96.5344828,40.7068966 96.7586207,40.7241379 96.9655172,40.7586207 C97.1724138,40.7931034 97.3965517,40.8275862 97.637931,40.8965517 C97.8448276,40.9655172 98,41 98.1206897,41.0344828 C98.2413793,41.0517241 98.3448276,41.0689655 98.4482759,41.0517241 C98.4827586,41.0517241 98.5172414,41.0517241 98.5689655,41.0344828 C98.6206897,41.0172414 98.6724138,40.9827586 98.7241379,40.9310345 C98.7413793,40.9310345 98.7586207,40.9137931 98.7758621,40.8965517 C98.7931034,40.8793103 98.8103448,40.862069 98.8275862,40.8448276 L99.2586207,40.8448276 L99.2586207,42.8793103 L98.8275862,42.8793103 C98.6724138,42.4482759 98.362069,42.0862069 97.9310345,41.7931034 C97.5,41.5 97.0172414,41.362069 96.5,41.362069 C96.4310345,41.362069 96.3448276,41.3793103 96.2758621,41.3793103 C96.2068966,41.3793103 96.1206897,41.3965517 96.0344828,41.4310345 C95.3965517,41.6034483 94.9482759,41.9655172 94.6896552,42.5344828 C94.4310345,43.1034483 94.2931034,44 94.3103448,45.2586207 C94.3103448,46.4655172 94.5172414,47.3448276 94.9482759,47.8965517 C95.362069,48.4482759 96.0344828,48.7241379 96.9310345,48.7241379 C97.3448276,48.7241379 97.7758621,48.637931 98.1896552,48.4655172 C98.5689655,48.3275862 99.0172414,48.0517241 99.4827586,47.6724138 Z" id="Shape" fill="#416A7B"></path>
        </g>
    </g>
</svg>