<?xml version="1.0" encoding="UTF-8"?>
<svg width="30px" height="30px" viewBox="0 0 30 30" version="1.1" xmlns="http://www.w3.org/2000/svg" xmlns:xlink="http://www.w3.org/1999/xlink">
<g id="Group-5">
    <path d="M0,15 C0,6.71572834 6.61518015,0 14.7754193,0 C22.9356585,0 29.5508386,6.71572834 29.5508386,15 C29.5508386,23.2842717 22.9356585,30 14.7754193,30 C6.61518015,30 0,23.2842717 0,15 Z M22.5803279,11.4806727 C22.5803279,11.4806727 22.4263934,10.3540232 21.9547541,9.85788866 C21.3562295,9.20642467 20.6854098,9.20335895 20.3780328,9.1655485 C18.1757377,9 14.8722951,9 14.8722951,9 L14.8654098,9 C14.8654098,9 11.5619672,9 9.35967213,9.1655485 C9.05180328,9.20335895 8.38147541,9.20642467 7.78245902,9.85788866 C7.31081967,10.3540232 7.15737705,11.4806727 7.15737705,11.4806727 C7.15737705,11.4806727 7,12.8040387 7,14.1268939 L7,15.3674857 C7,16.6908517 7.15737705,18.0137068 7.15737705,18.0137068 C7.15737705,18.0137068 7.31081967,19.1403563 7.78245902,19.6364909 C8.38147541,20.2879549 9.16786885,20.2675168 9.51803279,20.3354734 C10.7770492,20.4611676 14.8688525,20.5 14.8688525,20.5 C14.8688525,20.5 18.1757377,20.4948905 20.3780328,20.329342 C20.6854098,20.2910206 21.3562295,20.2879549 21.9547541,19.6364909 C22.4263934,19.1403563 22.5803279,18.0137068 22.5803279,18.0137068 C22.5803279,18.0137068 22.7377049,16.6908517 22.7377049,15.3674857 L22.7377049,14.1268939 C22.7377049,12.8040387 22.5803279,11.4806727 22.5803279,11.4806727 Z" id="Combined-Shape"></path>
    <polygon id="Path" points="13.0004918 17.5939708 13 13 17.2521311 15.3049051"></polygon>
</g>
</svg>