<?xml version="1.0" encoding="UTF-8"?>
<svg width="30px" height="30px" viewBox="0 0 30 30" version="1.1" xmlns="http://www.w3.org/2000/svg" xmlns:xlink="http://www.w3.org/1999/xlink">
<g id="Group-7">
    <g id="Group-4">
        <path d="M0,15 C0,6.71572834 6.71572834,0 15,0 C23.2842717,0 30,6.71572834 30,15 C30,23.2842717 23.2842717,30 15,30 C6.71572834,30 0,23.2842717 0,15 Z M15.00075,7 C12.8280607,7 12.5553912,7.0095001 11.702049,7.04833384 C10.8503734,7.08733424 10.2690341,7.22216898 9.76036209,7.42000438 C9.23418994,7.62433984 8.78785196,7.89767602 8.34318066,8.34251398 C7.89817602,8.78718528 7.62483984,9.23352327 7.41983771,9.75952875 C7.22150231,10.2683674 7.0865009,10.8498734 7.04816717,11.7012156 C7.0100001,12.5545579 7,12.827394 7,15.0000833 C7,17.1727726 7.00966677,17.4446088 7.04833384,18.297951 C7.08750091,19.1496266 7.22233565,19.7309659 7.42000438,20.2396379 C7.62450651,20.7658101 7.89784269,21.212148 8.34268065,21.6568193 C8.78718528,22.101824 9.23352327,22.3758268 9.75936208,22.5801623 C10.2683674,22.7779977 10.8498734,22.9128324 11.7013823,22.9518328 C12.5547245,22.9906666 12.8272274,23.0001667 14.99975,23.0001667 C17.172606,23.0001667 17.4444421,22.9906666 18.2977844,22.9518328 C19.1494599,22.9128324 19.731466,22.7779977 20.2404713,22.5801623 C20.7664767,22.3758268 21.212148,22.101824 21.6566527,21.6568193 C22.1016573,21.212148 22.3749935,20.7658101 22.5799956,20.2398046 C22.7766643,19.7309659 22.9116657,19.1494599 22.9516662,18.2981177 C22.9899999,17.4447755 23,17.1727726 23,15.0000833 C23,12.827394 22.9899999,12.5547245 22.9516662,11.7013823 C22.9116657,10.8497068 22.7766643,10.2683674 22.5799956,9.75969541 C22.3749935,9.23352327 22.1016573,8.78718528 21.6566527,8.34251398 C21.211648,7.89750935 20.7666434,7.62417317 20.2399712,7.42000438 C19.7299659,7.22216898 19.1482932,7.08733424 18.2966177,7.04833384 C17.4432755,7.0095001 17.171606,7 14.99825,7 L15.00075,7 Z" id="Combined-Shape"></path>
        <path d="M13.8407275,8.00200002 C14.0537297,8.00166668 14.2913989,8.00200002 14.5584017,8.00200002 C16.6944239,8.00200002 16.9475932,8.00966677 17.791102,8.0480005 C18.5711101,8.08366754 18.9944479,8.21400223 19.2764508,8.32350337 C19.649788,8.46850488 19.9159575,8.64184002 20.1957937,8.92184294 C20.4757966,9.20184585 20.6491318,9.4685153 20.7944666,9.84185252 C20.9039677,10.1235221 21.0344691,10.5468599 21.0699695,11.326868 C21.1083032,12.1702101 21.1166366,12.4235461 21.1166366,14.5585683 C21.1166366,16.6935906 21.1083032,16.9469265 21.0699695,17.7902686 C21.0343024,18.5702768 20.9039677,18.9936145 20.7944666,19.2752841 C20.6494651,19.6486213 20.4757966,19.9144574 20.1957937,20.1942937 C19.9157908,20.4742966 19.6499547,20.6476317 19.2764508,20.7926333 C18.9947812,20.9026344 18.5711101,21.0326358 17.791102,21.0683028 C16.9477599,21.1066365 16.6944239,21.1149699 14.5584017,21.1149699 C12.4222127,21.1149699 12.1690434,21.1066365 11.3257013,21.0683028 C10.5456932,21.0323024 10.1223554,20.9019677 9.84018584,20.7924666 C9.46684861,20.6474651 9.20017917,20.4741299 8.92017625,20.194127 C8.64017334,19.9141241 8.4668382,19.6481213 8.32150335,19.2746174 C8.21200221,18.9929478 8.08150085,18.5696101 8.04600048,17.789602 C8.00766675,16.9462599 8,16.6929239 8,14.5565683 C8,12.4202127 8.00766675,12.1682101 8.04600048,11.324868 C8.08166752,10.5448598 8.21200221,10.1215221 8.32150335,9.83951916 C8.46650486,9.46618194 8.64017334,9.19951249 8.92017625,8.91950958 C9.20017917,8.63950666 9.46684861,8.46617152 9.84018584,8.32083668 C10.1221888,8.21083553 10.5456932,8.08083418 11.3257013,8.04500047 C12.063709,8.01166679 12.349712,8.00166668 13.8407275,8 L13.8407275,8.00200002 Z M18.96001,10.0003333 C18.4300045,10.0003333 18,10.4298378 18,10.96001 C18,11.4900155 18.4300045,11.92002 18.96001,11.92002 C19.4900155,11.92002 19.92002,11.4900155 19.92002,10.96001 C19.92002,10.4300045 19.4900155,10 18.96001,10 L18.96001,10.0003333 Z M15.1083761,11 C12.8395192,11 11,12.8395192 11,15.1083761 C11,17.3772331 12.8395192,19.2159189 15.1083761,19.2159189 C17.3772331,19.2159189 19.2160856,17.3772331 19.2160856,15.1083761 C19.2160856,12.8395192 17.3770664,11 15.1082095,11 L15.1083761,11 Z" id="Combined-Shape"></path>
    </g>
    <path d="M14.6666944,12 C16.1393765,12 17.3333889,13.1938458 17.3333889,14.6666944 C17.3333889,16.1393765 16.1393765,17.3333889 14.6666944,17.3333889 C13.1938458,17.3333889 12,16.1393765 12,14.6666944 C12,13.1938458 13.1938458,12 14.6666944,12 L14.6666944,12 Z" id="Shape"></path>
</g>
</svg>