<?xml version="1.0" encoding="UTF-8"?>
<svg width="30px" height="30px" viewBox="0 0 30 30" version="1.1" xmlns="http://www.w3.org/2000/svg" xmlns:xlink="http://www.w3.org/1999/xlink">
<g id="VK">
    <path d="M0,15 C0,6.71572834 6.71572834,0 15,0 C23.2842717,0 30,6.71572834 30,15 C30,23.2842717 23.2842717,30 15,30 C6.71572834,30 0,23.2842717 0,15 Z M15.784664,18.9225501 C15.784664,18.9225501 16.0734289,18.8910556 16.2213328,18.7351193 C16.3567158,18.5922418 16.3520204,18.322618 16.3520204,18.322618 C16.3520204,18.322618 16.3340216,17.0636058 16.9295502,16.8777113 C17.5164706,16.6948896 18.2700765,18.095243 19.0698534,18.6337224 C19.6739902,19.0408465 20.1325707,18.9517401 20.1325707,18.9517401 L22.2697437,18.9225501 C22.2697437,18.9225501 23.3872402,18.8549521 22.8574467,17.9923098 C22.8136233,17.9216391 22.5483353,17.3539698 21.2688487,16.1879047 C19.9283224,14.9673004 20.1083113,15.1647172 21.7219513,13.0530487 C22.7048474,11.7671509 23.0976928,10.9820926 22.9748308,10.6464072 C22.8582293,10.3253168 22.1351433,10.4105824 22.1351433,10.4105824 L19.729552,10.4251775 C19.729552,10.4251775 19.5511282,10.4013645 19.4188754,10.4789486 C19.2897529,10.5549963 19.2060189,10.732441 19.2060189,10.732441 C19.2060189,10.732441 18.8256945,11.7272066 18.3178127,12.5737176 C17.2464872,14.3589187 16.8184266,14.4534022 16.643133,14.3427873 C16.2354189,14.0839178 16.3371518,13.3042366 16.3371518,12.7503941 C16.3371518,11.0197324 16.6047875,10.2984313 15.816749,10.1117687 C15.5553738,10.0495478 15.3628638,10.0088354 14.6937745,10.001922 C13.8353056,9.99347221 13.1090893,10.0049946 12.6974624,10.2024114 C12.4235662,10.3337666 12.2122749,10.6272032 12.3413974,10.6441027 C12.5002572,10.664843 12.8602351,10.7393544 13.0511798,10.9943831 C13.2976864,11.3239232 13.2890783,12.062892 13.2890783,12.062892 C13.2890783,12.062892 13.4307217,14.1000491 12.9580551,14.3527734 C12.634075,14.5263773 12.1895806,14.1722561 11.2340741,12.5522092 C10.7449738,11.7225977 10.3756052,10.8054161 10.3756052,10.8054161 C10.3756052,10.8054161 10.3043921,10.6341166 10.1768348,10.5419376 C10.0226703,10.4305546 9.80746616,10.3959874 9.80746616,10.3959874 L7.52160665,10.4105824 C7.52160665,10.4105824 7.17806255,10.4198003 7.05207029,10.5665187 C6.94016412,10.6963375 7.04346212,10.9659612 7.04346212,10.9659612 C7.04346212,10.9659612 8.83317821,15.076379 10.8600102,17.1481032 C12.7185916,19.0469918 14.828375,18.9225501 14.828375,18.9225501 L15.784664,18.9225501 Z" id="Combined-Shape"></path>
</g>
</svg>