<?xml version="1.0" encoding="UTF-8"?>
<svg width="30px" height="30px" viewBox="0 0 30 30" version="1.1" xmlns="http://www.w3.org/2000/svg" xmlns:xlink="http://www.w3.org/1999/xlink">
<g id="Group-6">
    <path d="M0,15 C0,6.71572834 6.71572834,0 15,0 C23.2842717,0 30,6.71572834 30,15 C30,23.2842717 23.2842717,30 15,30 C6.71572834,30 0,23.2842717 0,15 Z M15.0099522,14.7408199 C17.221868,14.7408199 19.0199044,13.004966 19.0199044,10.870989 C19.0199044,8.73631711 17.221868,7 15.0099522,7 C12.7985162,7 11,8.73631711 11,10.870989 C11,13.004966 12.7985162,14.7408199 15.0099522,14.7408199 Z M16.1224764,18.0257347 C16.9387187,17.8462434 17.7259295,17.5345077 18.4509983,17.0949279 C18.9997185,16.7609584 19.1650303,16.0608268 18.819291,15.5311539 C18.4737917,15.0003231 17.7489627,14.840518 17.1992828,15.1744875 C15.5567212,16.1715323 13.4419771,16.1713007 11.8003752,15.1744875 C11.2506952,14.840518 10.5256264,15.0003231 10.1808468,15.5311539 C9.8351075,16.06129 9.9999395,16.7609584 10.5486597,17.0949279 C11.2737285,17.5340445 12.0609393,17.8462434 12.8771816,18.0257347 L10.6352745,20.1898199 C10.1770079,20.6326421 10.1770079,21.3506071 10.6357543,21.7934293 C10.8653675,22.0146088 11.16576,22.1253144 11.4661525,22.1253144 C11.7670249,22.1253144 12.0678972,22.0146088 12.2975104,21.7934293 L14.4995891,19.6668635 L16.7035872,21.7934293 C17.1618537,22.2362515 17.9053972,22.2362515 18.3641436,21.7934293 C18.8233698,21.3506071 18.8233698,20.6321789 18.3641436,20.1898199 L16.1224764,18.0257347 Z" id="Combined-Shape"></path>
    <path d="M14.6603165,10 C15.5758898,10 16.3206329,10.7186597 16.3206329,11.6024514 C16.3206329,12.4855483 15.5758898,13.2046712 14.6603165,13.2046712 C13.7454629,13.2046712 13,12.4855483 13,11.6024514 C13,10.7186597 13.7454629,10 14.6603165,10 L14.6603165,10 Z" id="Path"></path>
</g>
</svg>