<?xml version="1.0" encoding="UTF-8"?>
<svg width="40px" height="50px" viewBox="0 0 40 50" version="1.1" xmlns="http://www.w3.org/2000/svg" xmlns:xlink="http://www.w3.org/1999/xlink">
    <g id="Dekstope-(1440-px)" stroke="none" stroke-width="1" fill="none" fill-rule="evenodd">
        <g id="3.-К.Н.-––-«Превью.-Карта»" transform="translate(-464.000000, -462.000000)" fill="#002649">
            <g id="4.-Карта" transform="translate(-93.000000, 200.000000)">
                <g id="Карта">
                    <g id="1" transform="translate(557.000000, 262.000000)">
                        <path d="M20,50 C6.66666667,37.3637967 0,27.3637967 0,20 C0,8.954305 8.954305,0 20,0 C31.045695,0 40,8.954305 40,20 C40,27.3637967 33.3333333,37.3637967 20,50 Z M20,26 C23.3137085,26 26,23.3137085 26,20 C26,16.6862915 23.3137085,14 20,14 C16.6862915,14 14,16.6862915 14,20 C14,23.3137085 16.6862915,26 20,26 Z" id="Combined-Shape"></path>
                    </g>
                </g>
            </g>
        </g>
    </g>
</svg>