<?xml version="1.0" encoding="UTF-8"?>
<svg width="28px" height="28px" viewBox="0 0 28 28" version="1.1" xmlns="http://www.w3.org/2000/svg" xmlns:xlink="http://www.w3.org/1999/xlink">
    <path d="M27.5307374,2.72451604 C28.1426931,2.11256035 28.1542917,1.09125035 27.5315207,0.468479304 C26.9044078,-0.158633585 25.8986876,-0.153941051 25.275484,0.46926259 L14,11.7447466 L2.72451604,0.46926259 C2.11256035,-0.142693099 1.09125035,-0.15429174 0.468479304,0.468479304 C-0.158633585,1.09559219 -0.153941051,2.1013124 0.46926259,2.72451604 L11.7447466,14 L0.46926259,25.275484 C-0.142693099,25.8874396 -0.15429174,26.9087497 0.468479304,27.5315207 C1.09559219,28.1586336 2.1013124,28.1539411 2.72451604,27.5307374 L14,16.2552534 L25.275484,27.5307374 C25.8874396,28.1426931 26.9087497,28.1542917 27.5315207,27.5315207 C28.1586336,26.9044078 28.1539411,25.8986876 27.5307374,25.275484 L16.2552534,14 L27.5307374,2.72451604 Z" id="Cancel"></path>
</svg>