<?xml version="1.0" encoding="UTF-8"?>
<svg width="10px" height="20px" viewBox="0 0 10 20" version="1.1" xmlns="http://www.w3.org/2000/svg" xmlns:xlink="http://www.w3.org/1999/xlink">
    <g id="Dekstope-(1440-px)" stroke="none" stroke-width="1" fill="none" fill-rule="evenodd">
        <g id="-g-1.-Главная-страница" transform="translate(-1358.000000, -412.000000)" fill="#FFFFFF" fill-rule="nonzero">
            <g id="2.-Баннер" transform="translate(0.000000, 115.000000)">
                <g id="Навигаци" transform="translate(1261.000000, 287.000000)">
                    <g id="Group-2" transform="translate(80.000000, 0.000000)">
                        <path d="M31.4034699,15.6916057 C31.2864135,15.548338 31.1168822,15.4578847 30.9327001,15.4404266 C30.7485181,15.4229686 30.5650111,15.4799587 30.4231215,15.5986816 L21.5767548,22.9722026 L12.748973,15.5986816 C12.452597,15.342079 12.0043193,15.3743218 11.7477167,15.6706978 C11.4911141,15.9670737 11.5233568,16.4153515 11.8197328,16.6719541 L21.1121348,24.4171711 C21.3724872,24.6269664 21.7438529,24.6269664 22.0042053,24.4171711 L31.3337769,16.6719541 C31.4736542,16.5515907 31.5596878,16.3803629 31.5727734,16.1962929 C31.5858589,16.0122229 31.5249133,15.8305463 31.4034699,15.6916057 Z" id="Shape" transform="translate(21.574518, 20.000000) rotate(-90.000000) translate(-21.574518, -20.000000) "></path>
                    </g>
                </g>
            </g>
        </g>
    </g>
</svg>