<?xml version="1.0" encoding="UTF-8"?>
<svg width="10px" height="20px" viewBox="0 0 10 20" version="1.1" xmlns="http://www.w3.org/2000/svg" xmlns:xlink="http://www.w3.org/1999/xlink">
    <g id="Dekstope-(1440-px)" stroke="none" stroke-width="1" fill="none" fill-rule="evenodd">
        <g id="-g-1.-Главная-страница" transform="translate(-1275.000000, -412.000000)" fill="#FFFFFF" fill-rule="nonzero">
            <g id="2.-Баннер" transform="translate(0.000000, 130.000000)">
                <g id="Навигаци" transform="translate(1261.000000, 272.000000)">
                    <g id="Group">
                        <path d="M28.4034699,15.6916057 C28.2864135,15.548338 28.1168822,15.4578847 27.9327001,15.4404266 C27.7485181,15.4229686 27.5650111,15.4799587 27.4231215,15.5986816 L18.5767548,22.9722026 L9.74897303,15.5986816 C9.45259703,15.342079 9.00431931,15.3743218 8.74771672,15.6706978 C8.49111413,15.9670737 8.52335684,16.4153515 8.81973283,16.6719541 L18.1121348,24.4171711 C18.3724872,24.6269664 18.7438529,24.6269664 19.0042053,24.4171711 L28.3337769,16.6719541 C28.4736542,16.5515907 28.5596878,16.3803629 28.5727734,16.1962929 C28.5858589,16.0122229 28.5249133,15.8305463 28.4034699,15.6916057 Z" id="Shape" transform="translate(18.574518, 20.000000) rotate(90.000000) translate(-18.574518, -20.000000) "></path>
                    </g>
                </g>
            </g>
        </g>
    </g>
</svg>