<?xml version="1.0" encoding="UTF-8"?>
<svg width="40px" height="51px" viewBox="0 0 40 51" version="1.1" xmlns="http://www.w3.org/2000/svg" xmlns:xlink="http://www.w3.org/1999/xlink">
    <g id="Dekstope-(1440-px)" stroke="none" stroke-width="1" fill="none" fill-rule="evenodd">
        <g id="2.-О-компании-––-«Акредитация»" transform="translate(-406.000000, -858.000000)" fill="#FFFFFF" fill-rule="nonzero">
            <g id="5.-Документы" transform="translate(371.000000, 755.000000)">
                <g id="1" transform="translate(10.000000, 84.000000)">
                    <g id="Иконка" transform="translate(25.000000, 19.000000)">
                        <path d="M11.5707692,18.3610096 L12.5861538,18.3610096 C13.2907692,18.3610096 13.8292308,18.3245192 14.2,18.2483654 C14.4738462,18.1864904 14.7430769,18.0611538 15.0076923,17.8723558 C15.2723077,17.6819712 15.4892308,17.4217788 15.6615385,17.0886058 C15.8338462,16.7554327 15.9184615,16.3445192 15.9184615,15.8590385 C15.9184615,15.2260096 15.7692308,14.7087981 15.4707692,14.3089904 C15.1723077,13.9091827 14.8030769,13.6505769 14.3615385,13.5315865 C14.0738462,13.4522596 13.4569231,13.4125962 12.5107692,13.4125962 L10.0138462,13.4125962 L10.0138462,21.3627404 L11.5707692,21.3627404 L11.5707692,18.3610096 Z M11.5707692,14.7548077 L12.3230769,14.7548077 C12.8846154,14.7548077 13.2569231,14.7738462 13.4430769,14.80875 C13.6953846,14.8547596 13.9046154,14.97375 14.0692308,15.1625481 C14.2338462,15.3497596 14.3169231,15.5893269 14.3169231,15.8780769 C14.3169231,16.1112981 14.2584615,16.3175481 14.14,16.4952404 C14.0230769,16.6729327 13.86,16.8030288 13.6538462,16.8855288 C13.4476923,16.9696154 13.0369231,17.0108654 12.4230769,17.0108654 L11.5707692,17.0108654 L11.5707692,14.7548077 Z" id="Shape"></path>
                        <path d="M21.4984615,21.1929808 C21.9569231,21.0406731 22.3230769,20.8296635 22.5923077,20.5583654 C22.9492308,20.1998077 23.2246154,19.7317788 23.4169231,19.1542788 C23.5753846,18.6799038 23.6538462,18.1166827 23.6538462,17.4630288 C23.6538462,16.7173558 23.5692308,16.0922596 23.4015385,15.5829808 C23.2338462,15.0737019 22.9861538,14.6453365 22.6646154,14.2947115 C22.3415385,13.9425 21.9538462,13.6997596 21.5015385,13.5617308 C21.1646154,13.4617788 20.6753846,13.4094231 20.0338462,13.4094231 L17.1892308,13.4094231 L17.1892308,21.3595673 L20.1184615,21.3595673 C20.6953846,21.3595673 21.1553846,21.3040385 21.4984615,21.1929808 Z M18.7492308,20.0221154 L18.7492308,14.7548077 L19.4492308,14.7548077 C20.0846154,14.7548077 20.5092308,14.7801923 20.7276923,14.8309615 C21.0184615,14.8960096 21.2584615,15.0197596 21.4476923,15.2053846 C21.6384615,15.3878365 21.7846154,15.6448558 21.8907692,15.9732692 C21.9953846,16.3032692 22.0492308,16.7744712 22.0492308,17.3900481 C22.0492308,18.005625 21.9969231,18.4895192 21.8907692,18.8464904 C21.7846154,19.2034615 21.6492308,19.4588942 21.4815385,19.6127885 C21.3153846,19.7682692 21.1061538,19.8777404 20.8538462,19.9427885 C20.6615385,19.9935577 20.3476923,20.0205288 19.9123077,20.0205288 L18.7492308,20.0205288 L18.7492308,20.0221154 Z" id="Shape"></path>
                        <polygon id="Shape" points="26.5415385 17.9818269 29.76 17.9818269 29.76 16.6380288 26.5415385 16.6380288 26.5415385 14.7548077 30.2707692 14.7548077 30.2707692 13.4110096 24.9846154 13.4110096 24.9846154 21.3595673 26.5415385 21.3595673"></polygon>
                        <path d="M3.84615385,50.7692308 L36.1538462,50.7692308 C37.8461538,50.7692308 39.2307692,49.3413462 39.2307692,47.5961538 L39.2307692,3.17307692 C39.2307692,1.42788462 37.8461538,0 36.1538462,0 L3.84615385,0 C2.15384615,0 0.769230769,1.42788462 0.769230769,3.17307692 L0.769230769,47.5961538 C0.769230769,49.3413462 2.15384615,50.7692308 3.84615385,50.7692308 Z M1.53846154,3.17307692 C1.53846154,1.86100962 2.57384615,0.793269231 3.84615385,0.793269231 L36.1538462,0.793269231 C37.4261538,0.793269231 38.4615385,1.86100962 38.4615385,3.17307692 L38.4615385,47.5961538 C38.4615385,48.9082212 37.4261538,49.9759615 36.1538462,49.9759615 L3.84615385,49.9759615 C2.57384615,49.9759615 1.53846154,48.9082212 1.53846154,47.5961538 L1.53846154,3.17307692 Z" id="Shape"></path>
                        <rect id="Rectangle-path" x="8.47230769" y="39.331875" width="23.0553846" height="1"></rect>
                        <rect id="Rectangle-path" x="8.47230769" y="33.7139423" width="23.0553846" height="1"></rect>
                    </g>
                </g>
            </g>
        </g>
    </g>
</svg>