<?xml version="1.0" encoding="UTF-8"?>
<svg width="32px" height="20px" viewBox="0 0 32 20" version="1.1" xmlns="http://www.w3.org/2000/svg" xmlns:xlink="http://www.w3.org/1999/xlink">
                        <g id="Group">
                            <g transform="translate(0.000000, 1.000000)">
                                <path d="M7.003,10.651 C5.015,10.651 3.397,9.033 3.397,7.045 L3.397,5.319 L4.397,5.319 L4.397,7.045 C4.397,8.483 5.566,9.651 7.003,9.651 C8.44,9.651 9.609,8.482 9.609,7.045 L9.609,5.319 L10.609,5.319 L10.609,7.045 C10.609,9.033 8.991,10.651 7.003,10.651 Z" id="Shape"></path>
                                <rect id="Rectangle-path" x="4.719" y="9.69" width="1" height="1.405"></rect>
                                <rect id="Rectangle-path" x="8.287" y="9.69" width="1" height="1.405"></rect>
                                <path d="M10.111,6.225 C9.962,6.225 9.818,6.158 9.721,6.038 L8.753,4.837 C8.682,4.748 8.643,4.638 8.643,4.524 L8.643,4.31 L5.361,4.31 L5.361,4.524 C5.361,4.638 5.322,4.749 5.251,4.837 L4.287,6.038 C4.17,6.185 3.979,6.257 3.796,6.215 C3.611,6.177 3.465,6.039 3.415,5.858 L2.883,3.912 C2.772,3.393 2.893,2.889 3.208,2.498 C3.426,2.229 3.716,2.04 4.04,1.948 C4.129,1.531 4.347,1.168 4.666,0.897 C5.093,0.536 5.654,0.379 6.205,0.473 L9.571,1.034 C10.084,1.119 10.531,1.401 10.83,1.826 C11.13,2.252 11.243,2.768 11.15,3.281 L10.6,5.83 C10.56,6.018 10.414,6.167 10.227,6.211 C10.188,6.22 10.149,6.225 10.111,6.225 Z M5.893,1.445 C5.682,1.445 5.476,1.519 5.313,1.658 C5.111,1.83 4.995,2.08 4.995,2.345 C4.995,2.621 4.771,2.883 4.495,2.883 C4.297,2.883 4.111,2.972 3.986,3.126 C3.861,3.28 3.813,3.48 3.855,3.674 L4.122,4.648 L4.362,4.348 L4.362,3.81 C4.362,3.534 4.586,3.31 4.862,3.31 L9.144,3.31 C9.42,3.31 9.644,3.534 9.644,3.81 L9.644,4.347 L9.844,4.595 L10.17,3.084 C10.211,2.854 10.156,2.605 10.013,2.399 C9.868,2.195 9.654,2.059 9.408,2.018 L6.042,1.457 C5.991,1.45 5.941,1.445 5.893,1.445 Z" id="Shape"></path>
                                <path d="M0.5,18.473 C0.224,18.473 0,18.249 0,17.973 L0,15.331 C0,14.44 0.475,13.602 1.238,13.143 L3.662,11.689 C3.896,11.546 4.206,11.624 4.348,11.861 C4.491,12.097 4.413,12.404 4.176,12.547 L1.753,14.001 C1.289,14.28 1,14.79 1,15.331 L1,17.973 C1,18.249 0.776,18.473 0.5,18.473 Z" id="Shape"></path>
                                <path d="M13.5,18.473 C13.224,18.473 13,18.249 13,17.973 L13,15.331 C13,14.79 12.711,14.28 12.246,14.001 L9.824,12.547 C9.587,12.404 9.51,12.098 9.652,11.861 C9.795,11.624 10.104,11.547 10.338,11.689 L12.761,13.143 C13.525,13.603 14,14.44 14,15.331 L14,17.973 C14,18.249 13.776,18.473 13.5,18.473 Z" id="Shape"></path>
                                <path d="M3.099,18.473 C2.823,18.473 2.599,18.249 2.599,17.973 L2.599,17.128 C2.599,16.74 2.454,16.369 2.193,16.083 L1.765,15.613 C1.578,15.409 1.593,15.092 1.797,14.907 C2.001,14.72 2.318,14.736 2.503,14.939 L2.931,15.408 C3.362,15.879 3.599,16.489 3.599,17.128 L3.599,17.973 C3.599,18.249 3.375,18.473 3.099,18.473 Z" id="Shape"></path>
                                <path d="M10.901,18.473 C10.625,18.473 10.401,18.249 10.401,17.973 L10.401,17.128 C10.401,16.489 10.638,15.879 11.069,15.407 L11.497,14.939 C11.684,14.736 11.999,14.72 12.203,14.907 C12.407,15.093 12.422,15.409 12.235,15.613 L11.807,16.082 C11.545,16.369 11.401,16.74 11.401,17.128 L11.401,17.973 C11.401,18.249 11.178,18.473 10.901,18.473 Z" id="Shape"></path>
                                <g transform="translate(3.000000, 10.000000)" id="Shape">
                                    <path d="M2.295,4.328 C2.286,4.328 2.276,4.328 2.268,4.327 C2.125,4.319 1.994,4.252 1.905,4.14 L0.538,2.43 C0.386,2.239 0.393,1.965 0.557,1.783 L1.48,0.758 C1.628,0.594 1.87,0.545 2.067,0.642 L4.221,1.667 C4.367,1.736 4.471,1.873 4.499,2.033 C4.526,2.193 4.475,2.356 4.359,2.471 L2.649,4.181 C2.555,4.275 2.427,4.328 2.295,4.328 Z M1.583,2.138 L2.337,3.079 L3.15,2.266 L1.972,1.705 L1.583,2.138 Z"></path>
                                    <path d="M5.714,4.328 C5.582,4.328 5.454,4.275 5.36,4.182 L3.651,2.472 C3.536,2.357 3.484,2.194 3.511,2.034 C3.539,1.874 3.643,1.737 3.789,1.668 L5.942,0.643 C6.14,0.546 6.38,0.595 6.529,0.759 L7.452,1.784 C7.615,1.967 7.623,2.24 7.471,2.431 L6.104,4.141 C6.015,4.252 5.883,4.32 5.741,4.328 C5.732,4.328 5.723,4.328 5.714,4.328 Z M4.858,2.266 L5.672,3.079 L6.425,2.138 L6.035,1.705 L4.858,2.266 Z"></path>
                                </g>
                                <path d="M6.995,18.473 C6.719,18.473 6.495,18.249 6.495,17.973 L6.495,12.096 C6.495,11.82 6.719,11.596 6.995,11.596 C7.271,11.596 7.495,11.82 7.495,12.096 L7.495,17.973 C7.495,18.249 7.271,18.473 6.995,18.473 Z" id="Shape"></path>
                            </g>
                            <path d="M25.001,14.809 C23.827,14.809 22.707,14.368 21.846,13.567 C21.644,13.379 21.633,13.062 21.821,12.86 C22.01,12.659 22.326,12.646 22.528,12.835 C23.876,14.091 26.119,14.091 27.466,12.843 C27.667,12.655 27.984,12.665 28.172,12.869 C28.36,13.071 28.349,13.388 28.146,13.575 C27.288,14.37 26.171,14.809 25.001,14.809 Z" id="Shape"></path>
                            <path d="M18.5,19.473 C18.224,19.473 18,19.249 18,18.973 L18,16.78 C18,15.787 18.503,14.88 19.346,14.354 L22.965,12.098 C23.198,11.955 23.508,12.023 23.654,12.258 C23.8,12.492 23.728,12.801 23.494,12.947 L19.875,15.202 C19.327,15.543 19,16.133 19,16.779 L19,18.972 C19,19.249 18.776,19.473 18.5,19.473 Z" id="Shape"></path>
                            <rect id="Rectangle-path" x="22.729" y="10.749" width="1" height="1.773"></rect>
                            <path d="M31.5,19.473 C31.224,19.473 31,19.249 31,18.973 L31,16.78 C31,16.134 30.673,15.544 30.124,15.203 L26.502,12.948 C26.356,12.856 26.267,12.696 26.267,12.523 L26.267,10.75 C26.267,10.474 26.491,10.25 26.767,10.25 C27.043,10.25 27.267,10.474 27.267,10.75 L27.267,12.246 L30.654,14.353 C31.496,14.878 32,15.785 32,16.779 L32,18.972 C32,19.249 31.776,19.473 31.5,19.473 Z" id="Shape"></path>
                            <path d="M21.168,19.473 C20.892,19.473 20.668,19.249 20.668,18.973 L20.668,17.891 C20.668,17.539 20.537,17.203 20.301,16.944 L19.904,16.51 C19.717,16.306 19.732,15.989 19.935,15.803 C20.139,15.616 20.455,15.63 20.642,15.834 L21.039,16.269 C21.444,16.713 21.668,17.29 21.668,17.891 L21.668,18.973 C21.668,19.249 21.444,19.473 21.168,19.473 Z" id="Shape"></path>
                            <path d="M28.832,19.473 C28.556,19.473 28.332,19.249 28.332,18.973 L28.332,17.891 C28.332,17.289 28.556,16.713 28.961,16.27 L29.357,15.835 C29.544,15.631 29.86,15.615 30.063,15.803 C30.267,15.989 30.282,16.305 30.095,16.509 L29.699,16.944 C29.463,17.204 29.332,17.54 29.332,17.891 L29.332,18.973 C29.332,19.249 29.108,19.473 28.832,19.473 Z" id="Shape"></path>
                            <path d="M25,11.814 C23.1,11.814 21.553,10.267 21.553,8.367 L21.553,7.512 C21.553,7.236 21.777,7.012 22.053,7.012 C22.329,7.012 22.553,7.236 22.553,7.512 L22.553,8.367 C22.553,9.717 23.651,10.814 25,10.814 C26.349,10.814 27.447,9.716 27.447,8.367 L27.447,7.032 C27.447,6.756 27.671,6.532 27.947,6.532 C28.223,6.532 28.447,6.756 28.447,7.032 L28.447,8.367 C28.447,10.268 26.9,11.814 25,11.814 Z" id="Shape"></path>
                            <path d="M26.543,6.725 C25.341,6.725 24.192,6.353 23.221,5.649 C22.997,5.487 22.947,5.173 23.109,4.951 C23.273,4.725 23.588,4.68 23.807,4.839 C24.608,5.419 25.553,5.726 26.543,5.726 C26.819,5.726 27.043,5.95 27.043,6.226 C27.043,6.502 26.819,6.725 26.543,6.725 Z" id="Shape"></path>
                            <path d="M22.053,8.297 C21.777,8.297 21.553,8.073 21.553,7.797 C21.553,6.476 22.45,5.347 23.737,5.05 C24.011,4.987 24.274,5.155 24.337,5.425 C24.399,5.695 24.232,5.962 23.962,6.025 C23.133,6.216 22.554,6.945 22.554,7.797 C22.553,8.073 22.329,8.297 22.053,8.297 Z" id="Shape"></path>
                            <path d="M27.972,8.153 C27.926,8.153 27.879,8.147 27.833,8.133 C27.619,8.071 27.472,7.875 27.472,7.653 C27.472,7.141 27.055,6.724 26.543,6.724 C26.267,6.724 26.043,6.5 26.043,6.224 C26.043,5.948 26.267,5.724 26.543,5.724 C27.058,5.724 27.526,5.927 27.873,6.257 C27.876,6.206 27.877,6.155 27.877,6.105 C27.877,4.556 26.616,3.295 25.067,3.295 C23.518,3.295 22.257,4.556 22.257,6.105 C22.257,6.49 22.333,6.862 22.483,7.21 C22.592,7.463 22.475,7.758 22.221,7.866 C21.968,7.976 21.673,7.859 21.565,7.604 C21.361,7.13 21.257,6.625 21.257,6.104 C21.257,4.003 22.966,2.294 25.067,2.294 C27.168,2.294 28.877,4.003 28.877,6.104 C28.877,6.658 28.761,7.192 28.531,7.692 L28.395,7.918 C28.302,8.067 28.141,8.153 27.972,8.153 Z" id="Shape"></path>
                            <path d="M23.921,3.504 C23.803,3.504 23.687,3.462 23.594,3.383 C23.228,3.067 23.027,2.649 23.027,2.206 C23.027,1.28 23.913,0.527 25.001,0.527 C26.089,0.527 26.975,1.28 26.975,2.206 C26.975,2.621 26.792,3.02 26.459,3.332 C26.325,3.458 26.133,3.497 25.959,3.442 C25.354,3.238 24.706,3.248 24.095,3.472 C24.038,3.494 23.979,3.504 23.921,3.504 Z M25,1.527 C24.473,1.527 24.026,1.838 24.026,2.206 C24.026,2.289 24.049,2.363 24.084,2.428 C24.691,2.263 25.324,2.254 25.93,2.396 C25.956,2.339 25.974,2.276 25.974,2.207 C25.974,1.838 25.527,1.527 25,1.527 Z" id="Shape"></path>
                            <path d="M13.5,7.973 C13.224,7.973 13,7.749 13,7.473 C13,6.37 13.897,5.473 15,5.473 L18.5,5.473 C18.776,5.473 19,5.697 19,5.973 C19,6.249 18.776,6.473 18.5,6.473 L15,6.473 C14.448,6.473 14,6.921 14,7.473 C14,7.749 13.776,7.973 13.5,7.973 Z" id="Shape"></path>
                            <path d="M17.5,7.473 C17.372,7.473 17.244,7.424 17.146,7.327 C16.951,7.132 16.951,6.815 17.146,6.62 L17.792,5.974 L17.146,5.328 C16.951,5.133 16.951,4.816 17.146,4.621 C17.341,4.426 17.658,4.426 17.853,4.621 L18.853,5.621 C19.048,5.816 19.048,6.133 18.853,6.328 L17.853,7.328 C17.756,7.424 17.628,7.473 17.5,7.473 Z" id="Shape"></path>
                            <path d="M17,10.473 L13.5,10.473 C13.224,10.473 13,10.249 13,9.973 C13,9.697 13.224,9.473 13.5,9.473 L17,9.473 C17.552,9.473 18,9.025 18,8.473 C18,8.197 18.224,7.973 18.5,7.973 C18.776,7.973 19,8.197 19,8.473 C19,9.575 18.103,10.473 17,10.473 Z" id="Shape"></path>
                            <path d="M14.5,11.473 C14.372,11.473 14.244,11.424 14.146,11.327 L13.146,10.327 C12.951,10.132 12.951,9.815 13.146,9.62 L14.146,8.62 C14.341,8.425 14.658,8.425 14.853,8.62 C15.048,8.815 15.048,9.132 14.853,9.327 L14.207,9.973 L14.853,10.619 C15.048,10.814 15.048,11.131 14.853,11.326 C14.756,11.424 14.628,11.473 14.5,11.473 Z" id="Shape"></path>
                        </g>
</svg>