<?xml version="1.0" encoding="UTF-8"?>
<svg width="24px" height="32px" viewBox="0 0 24 32" version="1.1" xmlns="http://www.w3.org/2000/svg" xmlns:xlink="http://www.w3.org/1999/xlink">
<g id="Group">
    <path d="M11.997,17.302 C8.688,17.302 5.997,14.611 5.997,11.302 L5.997,8.246 L6.997,8.246 L6.997,11.302 C6.997,14.059 9.24,16.302 11.997,16.302 C14.754,16.302 16.997,14.059 16.997,11.302 L16.997,8.246 L17.997,8.246 L17.997,11.302 C17.997,14.611 15.306,17.302 11.997,17.302 Z" id="Shape"></path>
    <rect id="Rectangle-path" x="8.338" y="15.987" width="1" height="2.487"></rect>
    <rect id="Rectangle-path" x="14.656" y="15.987" width="1" height="2.487"></rect>
    <path d="M17.5,9.465 C17.351,9.465 17.207,9.398 17.11,9.278 L15.398,7.152 C15.327,7.063 15.288,6.953 15.288,6.839 L15.288,6.075 L8.706,6.075 L8.706,6.839 C8.706,6.953 8.667,7.063 8.596,7.152 L6.889,9.278 C6.771,9.425 6.583,9.494 6.397,9.455 C6.213,9.416 6.066,9.279 6.016,9.097 L5.073,5.652 C4.906,4.869 5.092,4.092 5.577,3.492 C5.962,3.016 6.496,2.701 7.086,2.591 C7.19,1.839 7.549,1.183 8.107,0.71 C8.776,0.143 9.658,-0.099 10.521,0.045 L16.479,1.038 C17.285,1.172 17.988,1.614 18.458,2.283 C18.928,2.951 19.106,3.762 18.961,4.566 L17.988,9.071 C17.947,9.259 17.802,9.407 17.614,9.452 C17.577,9.46 17.538,9.465 17.5,9.465 Z M10.032,1.004 C9.568,1.004 9.115,1.168 8.755,1.473 C8.311,1.849 8.056,2.399 8.056,2.981 C8.056,3.257 7.832,3.548 7.556,3.548 C7.088,3.548 6.65,3.757 6.355,4.121 C6.06,4.485 5.947,4.957 6.045,5.415 L6.723,7.888 L7.706,6.663 L7.706,5.575 C7.706,5.299 7.93,5.075 8.206,5.075 L15.788,5.075 C16.064,5.075 16.288,5.299 16.288,5.575 L16.288,6.662 L17.232,7.835 L17.981,4.37 C18.076,3.848 17.956,3.305 17.641,2.857 C17.327,2.41 16.856,2.113 16.316,2.024 L10.358,1.031 C10.249,1.013 10.14,1.004 10.032,1.004 Z" id="Shape"></path>
    <path d="M0.5,31.996 C0.224,31.996 0,31.772 0,31.496 L0,25.973 C0,24.53 0.769,23.173 2.006,22.431 L6.295,19.857 C6.533,19.714 6.839,19.791 6.981,20.028 C7.123,20.265 7.046,20.572 6.81,20.714 L2.521,23.288 C1.583,23.85 1,24.88 1,25.973 L1,31.496 C1,31.772 0.776,31.996 0.5,31.996 Z" id="Shape"></path>
    <path d="M23.5,31.996 C23.224,31.996 23,31.772 23,31.496 L23,25.973 C23,24.88 22.417,23.85 21.479,23.288 L17.189,20.714 C16.952,20.572 16.876,20.265 17.018,20.028 C17.16,19.791 17.466,19.714 17.704,19.857 L21.994,22.431 C23.231,23.173 24,24.53 24,25.973 L24,31.496 C24,31.772 23.776,31.996 23.5,31.996 Z" id="Shape"></path>
    <path d="M5.5,31.996 C5.224,31.996 5,31.772 5,31.496 L5,29.154 C5,28.371 4.709,27.621 4.181,27.042 L3.424,26.213 C3.238,26.009 3.252,25.692 3.456,25.506 C3.66,25.32 3.976,25.333 4.163,25.538 L4.92,26.367 C5.616,27.131 6,28.12 6,29.154 L6,31.496 C6,31.772 5.776,31.996 5.5,31.996 Z" id="Shape"></path>
    <path d="M18.5,31.996 C18.224,31.996 18,31.772 18,31.496 L18,29.154 C18,28.12 18.384,27.131 19.081,26.368 L19.838,25.538 C20.025,25.333 20.34,25.321 20.545,25.506 C20.749,25.692 20.763,26.008 20.577,26.213 L19.82,27.042 C19.291,27.621 19,28.371 19,29.154 L19,31.496 C19,31.772 18.776,31.996 18.5,31.996 Z" id="Shape"></path>
    <g transform="translate(6.000000, 17.000000)" id="Shape">
        <path d="M2.974,6.812 C2.965,6.812 2.955,6.812 2.946,6.811 C2.804,6.803 2.672,6.735 2.583,6.624 L0.162,3.598 C0.009,3.407 0.017,3.133 0.181,2.951 L1.815,1.135 C1.963,0.97 2.202,0.923 2.401,1.018 L6.214,2.834 C6.361,2.904 6.464,3.041 6.492,3.201 C6.52,3.361 6.468,3.525 6.353,3.639 L3.327,6.665 C3.233,6.76 3.106,6.812 2.974,6.812 Z M1.208,3.304 L3.015,5.563 L5.146,3.432 L2.309,2.081 L1.208,3.304 Z"></path>
        <path d="M9.026,6.812 C8.894,6.812 8.766,6.76 8.672,6.666 L5.646,3.64 C5.531,3.525 5.479,3.362 5.507,3.202 C5.534,3.042 5.638,2.906 5.785,2.835 L9.598,1.019 C9.797,0.924 10.036,0.971 10.184,1.136 L11.818,2.952 C11.982,3.134 11.99,3.408 11.837,3.599 L9.416,6.625 C9.327,6.736 9.195,6.804 9.053,6.812 C9.045,6.811 9.036,6.812 9.026,6.812 Z M6.854,3.432 L8.985,5.563 L10.792,3.304 L9.691,2.081 L6.854,3.432 Z"></path>
    </g>
    <path d="M13.21,23.812 L10.79,23.812 C10.514,23.812 10.29,23.588 10.29,23.312 L10.29,21.799 C10.29,21.523 10.514,21.299 10.79,21.299 C11.066,21.299 11.29,21.523 11.29,21.799 L11.29,22.812 L12.711,22.812 L12.711,21.799 C12.711,21.523 12.935,21.299 13.211,21.299 C13.487,21.299 13.711,21.523 13.711,21.799 L13.711,23.312 C13.71,23.588 13.487,23.812 13.21,23.812 Z" id="Shape"></path>
    <path d="M13.5,31.996 C13.248,31.996 13.031,31.807 13.003,31.55 L12.157,23.812 L11.843,23.812 L10.997,31.55 C10.967,31.824 10.719,32.02 10.446,31.993 C10.172,31.963 9.973,31.716 10.003,31.442 L10.898,23.258 C10.926,23.004 11.14,22.812 11.395,22.812 L12.606,22.812 C12.861,22.812 13.075,23.004 13.103,23.258 L13.998,31.442 C14.028,31.716 13.83,31.963 13.555,31.993 C13.536,31.995 13.518,31.996 13.5,31.996 Z" id="Shape"></path>
</g>
</svg>