<?xml version="1.0" encoding="UTF-8"?>
<svg width="20px" height="42px" viewBox="0 0 20 42" version="1.1" xmlns="http://www.w3.org/2000/svg" xmlns:xlink="http://www.w3.org/1999/xlink">
                        <g id="noun_1499546_cc">
                            <path d="M1.61290323,0 C0.709677419,0 0,0.825 0,1.875 L0,30.375 C0,31.425 0.709677419,32.25 1.61290323,32.25 L3.22580645,32.25 L3.22580645,32.6997068 C3.22580645,33.6747067 3.54863935,34.6502933 4.12928452,35.5502932 C4.58089742,36.2252933 4.77444581,36.9752933 4.77444581,37.8002932 L4.77444581,38.25 L3.5483871,38.25 C3.35483871,38.25 3.22580645,38.4 3.22580645,38.625 L3.22580645,41.625 C3.22580645,41.85 3.35483871,42 3.5483871,42 C3.74193548,42 3.87096774,41.85 3.87096774,41.625 L3.87096774,39 L4.77444581,39 L16.1290323,39 L16.7741935,39 L16.7741935,41.625 C16.7741935,41.85 16.9032258,42 17.0967742,42 C17.2903226,42 17.4193548,41.85 17.4193548,41.625 L17.4193548,38.625 C17.4193548,38.4 17.2903226,38.25 17.0967742,38.25 L16.1529735,38.25 C16.2062032,37.6474148 16.3781368,37.084218 16.6456652,36.5244142 L19.4191026,31.1997068 C19.8061994,30.3747068 20,29.5494143 20,28.6494142 L20,22.9497068 C20,20.8497067 19.2905748,18.8994142 18.0002523,17.3994142 L14.8387097,13.724121 L14.8387097,1.875 C14.8387097,0.825 14.1290323,0 13.2258065,0 L1.61290323,0 Z M1.61290323,0.75 L13.2258065,0.75 C13.7419355,0.75 14.1935484,1.275 14.1935484,1.875 L14.1935484,13.7255858 L14.1935484,20.25 L14.1935484,20.3994142 L14.1935484,22.875 C14.1935484,23.475 13.7419355,24 13.2258065,24 L12.2580645,24 L12.2580645,5.625 C12.2580645,5.475 12.2583168,5.32470675 12.1938006,5.32470675 C12.1292845,5.32470675 12,5.25 11.9354839,5.25 C11.0322581,5.25 10.3225806,4.425 10.3225806,3.375 C10.3225806,3.225 10.1935484,3 10,3 L4.83870968,3 C4.77419355,3 4.5803929,2.99970705 4.5803929,3.07470705 C4.5803929,3.14970705 4.51612903,3.3 4.51612903,3.375 C4.51612903,4.425 3.80645161,5.25 2.90322581,5.25 C2.70967742,5.25 2.58064516,5.4 2.58064516,5.625 L2.58064516,26.625 C2.58064516,26.7 2.5803929,27 2.64490903,27 C2.70942516,27 2.83870968,27.0747068 2.90322581,27.0747068 C3.05143419,27.0747068 3.19818581,27.0785197 3.33417355,27.1069335 C3.27060581,27.4377097 3.22580645,27.7748812 3.22580645,28.125 L3.22580645,31.5 L1.61290323,31.5 C1.09677419,31.5 0.64516129,30.975 0.64516129,30.375 L0.64516129,1.875 C0.64516129,1.275 1.09677419,0.75 1.61290323,0.75 Z M5.16129032,3.75 L9.67741935,3.75 C9.87096774,4.95 10.6451613,5.85 11.6129032,6 L11.6129032,24 L11.2903226,24 C11.2240845,24 11.168751,24.0220695 11.1202116,24.0541995 C9.97178323,23.947917 9.03225806,22.807161 9.03225806,21.4497068 L9.03225806,18.552246 C9.6573529,17.955588 10,17.1121027 10,16.1997068 C10,14.5497068 8.83870968,13.1997068 7.41935484,13.1997068 C6,13.1997068 4.83870968,14.5497068 4.83870968,16.1997068 L4.83870968,16.3740233 C4.63596323,16.7584298 4.51612903,17.2091603 4.51612903,17.6997068 L4.51612903,23.1752932 C4.51612903,24.0002932 4.32232839,24.7502933 3.93523161,25.4252932 C3.87350516,25.5380542 3.82449161,25.6554322 3.77016129,25.770996 C3.75969548,25.7933378 3.74879806,25.8171315 3.73865935,25.8398438 C3.66649484,25.998447 3.60212387,26.1594113 3.5446071,26.323242 C3.41864,26.3214818 3.3532871,26.25 3.22580645,26.25 L3.22580645,6 C4.25806452,5.775 5.03225806,4.875 5.16129032,3.75 Z M7.41935484,5.25 C6.51612903,5.25 5.80645161,6.075 5.80645161,7.125 C5.80645161,8.175 6.51612903,9 7.41935484,9 C8.32258065,9 9.03225806,8.175 9.03225806,7.125 C9.03225806,6.075 8.32258065,5.25 7.41935484,5.25 Z M7.41935484,6 C7.93548387,6 8.38709677,6.525 8.38709677,7.125 C8.38709677,7.725 7.93548387,8.25 7.41935484,8.25 C6.90322581,8.25 6.4516129,7.725 6.4516129,7.125 C6.4516129,6.525 6.90322581,6 7.41935484,6 Z M7.41935484,13.875 C8.51612903,13.875 9.35483871,14.85 9.35483871,16.125 C9.35483871,16.575 9.22580645,17.0244142 9.03225806,17.3994142 C8.90322581,16.1244143 7.99949613,15.075 6.90272194,15 C6.3865929,15 5.99949613,15.15 5.61239935,15.375 C5.87046387,14.475 6.58064516,13.875 7.41935484,13.875 Z M14.8387097,14.6997068 L17.5478832,17.9252933 C18.7091735,19.2752933 19.3548387,21.0747068 19.3548387,22.9497068 L19.3548387,28.6494142 C19.3548387,29.3994142 19.1607865,30.075 18.8382058,30.75 L16.0647684,36.0747068 C15.7421877,36.7497068 15.5483871,37.5 15.483871,38.25 L5.4196071,38.25 L5.4196071,37.7255858 C5.4196071,36.7505858 5.16078645,35.7744142 4.64465742,35.0244142 C4.12852839,34.2744142 3.87096774,33.45 3.87096774,32.625 L3.87096774,28.0502932 C3.87096774,27.7420913 3.91144645,27.4219223 3.97681419,27.104004 C4.03305935,27.0538552 4.06502,26.9748098 4.06502,26.9252933 C4.19405226,26.5502932 4.32258065,26.1752933 4.51612903,25.8002933 C4.58164452,25.7241315 4.59652258,25.628889 4.5791329,25.5336915 C4.94600516,24.781503 5.16129032,23.9728208 5.16129032,23.1005858 L5.16129032,17.625 C5.16129032,17.1 5.35534258,16.6494142 5.67792323,16.2744142 C5.72365935,16.221246 5.77324258,16.1825198 5.8215729,16.1381835 C6.1274271,15.893739 6.49437161,15.75 6.83845742,15.75 C7.6771671,15.825 8.38709677,16.7244143 8.38709677,17.7744142 L8.38709677,18.3002933 L8.38709677,21.375 C8.38709677,23.25 9.67741935,24.75 11.2903226,24.75 L13.2258065,24.75 C13.3387097,24.75 13.4488406,24.7365233 13.5546877,24.7119142 C14.2956148,24.5396483 14.8387097,23.79375 14.8387097,22.875 L14.8387097,14.6997068 Z" id="Shape"></path>
                        </g>
</svg>