<?xml version="1.0" encoding="UTF-8"?>
<svg width="20px" height="42px" viewBox="0 0 20 42" version="1.1" xmlns="http://www.w3.org/2000/svg" xmlns:xlink="http://www.w3.org/1999/xlink">
                        <g id="сборка">
                            <path d="M6,0 C4.725,0 3.75,0.975 3.75,2.25 L3.75,12.0190432 C1.67050275,12.2132707 0,14.0013037 0,16.125 L0,20.25 L0,20.9252932 C0,22.7252932 0.60029325,24.5247068 1.80029325,25.9497068 L3.14941425,27.5244142 C3.52441425,27.9744143 3.75,28.5752932 3.75,29.1752932 L3.75,30 L2.625,30 C2.4,30 2.25,30.15 2.25,30.375 L2.25,36.375 L2.25,41.625 C2.25,41.85 2.4,42 2.625,42 C2.85,42 3,41.85 3,41.625 L3,36.75 L18,36.75 L18,41.625 C18,41.85 18.15,42 18.375,42 C18.6,42 18.75,41.85 18.75,41.625 L18.75,36.375 L18.75,30.375 C18.75,30.15 18.6,30 18.375,30 L17.25,30 L17.25,29.1005858 C17.25,28.5005858 17.3252933,27.9002933 17.5502932,27.3002932 L18.8994142,23.3247068 C19.2744142,22.0497067 19.5,20.7752933 19.5,19.4252932 L19.5,16.125 L19.5,13.5 C19.5,12.225 18.525,11.25 17.25,11.25 C16.6621297,11.25 16.1441527,11.464113 15.75,11.8125 L15.75,11.25 C15.75,9.975 14.775,9 13.5,9 C12.9043702,9 12.379755,9.2189355 11.983887,9.5756835 C11.8978598,8.38902 10.9649963,7.5 9.75,7.5 C9.1619985,7.5 8.64418275,7.71397275 8.25,8.0625 L8.25,2.25 C8.25,0.975 7.275,0 6,0 Z M5.625,0.8041992 L5.625,3 C5.625,3.225 5.775,3.375 6,3.375 C6.225,3.375 6.375,3.15 6.375,3 L6.375,0.8041992 C7.01914125,0.972460725 7.5,1.55503777 7.5,2.25 L7.5,15 L7.5,15.75 C7.5,15.975 7.65,16.125 7.875,16.125 C8.1,16.125 8.25,15.975 8.25,15.75 L8.25,9.75 C8.25,8.925 8.925,8.25 9.75,8.25 C10.575,8.25 11.25,8.925 11.25,9.75 L11.25,15.75 L11.25,17.25 C11.25,17.475 11.4,17.625 11.625,17.625 C11.85,17.625 12,17.475 12,17.25 L12,11.25 C12,10.425 12.675,9.75 13.5,9.75 C14.325,9.75 15,10.425 15,11.25 L15,18.75 C15,18.975 15.15,19.125 15.375,19.125 C15.6,19.125 15.75,18.975 15.75,18.75 L15.75,13.5 C15.75,12.675 16.425,12 17.25,12 C18.075,12 18.75,12.675 18.75,13.5 L18.75,17.25 L18.75,19.4252932 C18.75,20.7002933 18.5244142,21.9005857 18.1494142,23.1005858 L16.8002932,27.0747068 C16.5752933,27.7497067 16.5,28.4255857 16.5,29.1005858 L16.5,30 L4.5,30 L4.5,29.25 C4.5,28.425 4.275,27.6747067 3.75,27.0747068 L2.39941425,25.5 C1.34941425,24.225 0.75,22.5752933 0.75,20.9252932 L0.75,18.375 L0.75,16.125 C0.75,14.4 2.1,12.975 3.75,12.75 L3.75,15 L3.75,20.25 C3.75,20.475 3.9,20.625 4.125,20.625 C4.35,20.625 4.5,20.475 4.5,20.25 L4.5,12.375 L4.5,2.25 C4.5,1.55503777 4.98085875,0.972460725 5.625,0.8041992 Z M3,30.75 L18,30.75 L18,36 L3,36 L3,30.75 Z" id="Shape"></path>
                        </g>
</svg>