<?xml version="1.0" encoding="utf-8"?>
<!-- Generator: Adobe Illustrator 22.0.1, SVG Export Plug-In . SVG Version: 6.00 Build 0)  -->
<svg version="1.1" id="Слой_1" xmlns="http://www.w3.org/2000/svg" xmlns:xlink="http://www.w3.org/1999/xlink" x="0px" y="0px"
	 viewBox="0 0 40 40" style="enable-background:new 0 0 40 40;" xml:space="preserve">
<style type="text/css">
	.st0{fill:#FFFFFF;stroke:#FFFFFF;stroke-width:0.25;stroke-miterlimit:10;}
</style>
<g id="Dekstope-_x28_1440-px_x29_">
	<g id="_x2D_g-1.-Главная-страница" transform="translate(-371.000000, -771.000000)">
		<g id="_x34_.-Фильтр" transform="translate(0.000000, 540.000000)">
			<g id="Иконки-для-ссылок" transform="translate(61.000000, 222.000000)">
				<g id="_x32_" transform="translate(301.000000, 0.000000)">
					<g id="ик_смотреть_на_карте" transform="translate(9.000000, 9.000000)">
						<g id="Иконка">
							<path id="Shape" class="st0" d="M30.4,14c1.7,2.9,2,6.1,1.2,9.1c-0.8,3-2.7,5.6-5.6,7.3c-2.9,1.7-6.1,2-9.1,1.2
								c-3-0.8-5.6-2.7-7.3-5.6c-1.7-2.9-2-6.1-1.2-9.1c0.8-3,2.7-5.6,5.6-7.3c2.9-1.7,6.1-2,9.1-1.2C26.1,9.2,28.7,11.1,30.4,14z
								 M30.9,22.9c0.7-2.8,0.4-5.8-1.1-8.5c-1.6-2.7-4-4.5-6.8-5.2c-2.8-0.7-5.8-0.4-8.5,1.1c-2.7,1.6-4.5,4-5.2,6.8
								c-0.7,2.8-0.4,5.8,1.1,8.5c1.6,2.7,4,4.5,6.8,5.2c2.8,0.7,5.8,0.4,8.5-1.1C28.3,28.2,30.1,25.7,30.9,22.9z"/>
							<path id="Shape_1_" class="st0" d="M30.3,14.5c-0.3,0.2-0.5,0.3-0.7,0.4c-1.5,0.9-2.1,1.4-3.9,0.7c-0.5-0.2-1-0.3-1.5-0.4
								c-0.4-0.1-0.8,0-0.9,0.1l0,0c-0.1,0.1-1.2,1.3-2.3,0.7c-0.3-0.2-0.5-0.2-0.7-0.2c-0.1,0-0.2,0.1-0.3,0.2
								c-0.1,0.2-0.1,0.5-0.2,0.8c0,0.9,0.2,2.1,0.3,2.4c0.3,0.8,0.6,1.6,0.7,2.3c0.1,0.6,0,1.1-0.2,1.5c-0.2,0.4-1.3,2.5-3.5,0.9
								c-0.1-0.1-1-0.5-1.6,0.3l0,0c0,0-0.7,0.8-1.5,1c-0.1,0-0.3,0.1-0.4,0c-0.3,0-0.6-0.2-0.9-0.4c-0.2-0.2-0.3-0.5-0.4-0.9
								c-0.1-0.3-0.1-0.7-0.1-1c0-0.4,0.2-0.7,0.3-1c0.1-0.1,0.1-0.2,0.2-0.4l0.6-1.7c0.4-1.1,0.1-1.9-0.2-2.6
								c-0.3-0.9-0.6-1.6,0.1-2.6c0.2-0.3,1.5-3.2,0.7-4.5l0.6-0.4c1,1.8-0.7,5.2-0.7,5.2l0,0.1c-0.5,0.7-0.3,1.2,0,1.9
								c0.3,0.8,0.7,1.8,0.2,3.1l-0.6,1.7c-0.1,0.2-0.1,0.3-0.2,0.4c-0.1,0.2-0.2,0.5-0.2,0.7c0,0.2,0,0.5,0.1,0.8
								c0.1,0.2,0.2,0.4,0.3,0.6c0.1,0.1,0.2,0.2,0.3,0.2c0.1,0,0.1,0,0.2,0c0.5-0.2,1.1-0.7,1.1-0.8c1.1-1.3,2.6-0.4,2.6-0.4l0,0
								c1.7,1.3,2.4-0.6,2.4-0.6l0.1-0.1c0.1-0.2,0.2-0.5,0.1-0.9c-0.1-0.7-0.4-1.4-0.7-2.2c-0.1-0.3-0.4-1.6-0.4-2.7
								c0-0.4,0.1-0.8,0.2-1.1c0.2-0.4,0.5-0.6,0.9-0.6c0.3,0,0.6,0.1,1.1,0.3c0.6,0.3,1.4-0.5,1.4-0.5l0,0c0.3-0.4,0.9-0.4,1.6-0.3
								c0.6,0.1,1.2,0.2,1.7,0.4c1.5,0.5,2,0.1,3.3-0.7c0.2-0.2,0.5-0.3,0.7-0.4L30.3,14.5L30.3,14.5z"/>
							<path id="Shape_2_" class="st0" d="M31.3,16.7c0,0-1.6,1.4-3.1,2.3c-0.2,0.1-0.4,0.2-0.7,0.4c-0.4,0.2-0.8,0.4-0.9,0.6
								c0,0,0,0,0,0c0,0.1-0.1,0.2,0,0.3c0,0.1,0.2,0.2,0.4,0.4l0,0c0.5,0.3,0.7,0.2,1,0.2c0.2,0,0.4-0.1,0.7-0.1
								c0.5,0,1.2,0,1.8,0.3c0.5,0.2,0.9,0.6,1.2,1.1l-0.7,0.3c-0.2-0.4-0.5-0.6-0.8-0.8c-0.5-0.2-1-0.2-1.4-0.2
								c-0.3,0-0.5,0.1-0.6,0.1c-0.4,0.1-0.7,0.1-1.5-0.2c0,0,0,0-0.1,0c-0.5-0.2-0.7-0.5-0.8-0.8c-0.1-0.3,0-0.6,0.1-0.8
								c0,0,0,0,0,0c0.2-0.4,0.8-0.7,1.3-1c0.2-0.1,0.4-0.2,0.6-0.3c1.4-0.9,3-2.3,3-2.3L31.3,16.7L31.3,16.7z"/>
							<path id="Shape_3_" class="st0" d="M30.2,25.8c0,0-1.1-0.2-2-1.1c-0.3-0.3-0.5-0.6-0.7-0.8c-0.2-0.3-0.3-0.5-0.7-0.7
								c-0.5-0.2-0.9-0.3-1.3-0.2c-0.5,0.1-0.9,0.4-1.2,0.9c-0.2,0.2-0.4,0.5-0.5,0.9c-0.1,0.3-0.2,0.6-0.2,1v0c0,0-0.1,2.3-2.4,3.1
								l0,0c0,0-2,0.5-1.5,2.6l-0.7,0.2c-0.7-2.7,1.8-3.5,2-3.5c1.8-0.7,1.9-2.4,1.9-2.4c0-0.5,0.1-0.9,0.2-1.3
								c0.2-0.5,0.4-0.8,0.6-1.1c0.5-0.6,1-1,1.6-1.1c0.6-0.2,1.2-0.1,1.9,0.2c0.5,0.3,0.7,0.6,1,1c0.1,0.2,0.3,0.5,0.5,0.7
								c0.8,0.7,1.7,0.9,1.7,0.9L30.2,25.8L30.2,25.8z"/>
						</g>
					</g>
				</g>
			</g>
		</g>
	</g>
</g>
</svg>
